<?xml version="1.0" encoding="utf-8"?>
<!-- Generator: Adobe Illustrator 27.5.0, SVG Export Plug-In . SVG Version: 6.00 Build 0)  -->
<svg version="1.1" id="Ñëîé_1" xmlns="http://www.w3.org/2000/svg" xmlns:xlink="http://www.w3.org/1999/xlink" x="0px" y="0px"
	 viewBox="0 0 600 450" style="enable-background:new 0 0 600 450;" xml:space="preserve">
<radialGradient id="SVGID_1_" cx="308.9898" cy="-78.5034" r="454.4017" gradientUnits="userSpaceOnUse">
	<stop  offset="0" style="stop-color:#31024A"/>
	<stop  offset="1" style="stop-color:#2A023F"/>
</radialGradient>
<rect x="0" y="0" style="fill:url(#SVGID_1_);" width="600" height="450"/>
<polygon style="opacity:0.05;fill:#53A5F8;" points="310.044,411.346 117.992,300.465 310.039,189.587 502.091,300.468 "/>
<polygon style="opacity:0.1;fill:#53A5F8;" points="310.044,391.559 117.992,280.677 310.039,169.799 502.091,280.68 "/>
<radialGradient id="SVGID_00000147190216509823237490000007780445958340075420_" cx="307.5414" cy="219.7423" r="244.7849" gradientUnits="userSpaceOnUse">
	<stop  offset="0" style="stop-color:#FC2FFD"/>
	<stop  offset="0.0314" style="stop-color:#E92BEC"/>
	<stop  offset="0.1121" style="stop-color:#BD21C5"/>
	<stop  offset="0.1991" style="stop-color:#9619A2"/>
	<stop  offset="0.2911" style="stop-color:#761285"/>
	<stop  offset="0.3895" style="stop-color:#5B0C6D"/>
	<stop  offset="0.497" style="stop-color:#47085B"/>
	<stop  offset="0.6178" style="stop-color:#38044E"/>
	<stop  offset="0.7633" style="stop-color:#300346"/>
	<stop  offset="1" style="stop-color:#2D0244"/>
</radialGradient>
<polygon style="opacity:0.2;fill:url(#SVGID_00000147190216509823237490000007780445958340075420_);" points="310.044,372.122 
	117.992,261.241 310.039,150.362 502.091,261.244 "/>
<polygon style="opacity:0.1;fill:#53A5F8;" points="310.043,338.829 178.655,262.971 310.039,187.116 441.428,262.974 "/>
<path style="fill:#53A5F8;" d="M310.043,338.674c-0.814,0-1.63-0.21-2.357-0.63L179.59,264.089
	c-0.404-0.233-0.645-0.651-0.645-1.117s0.241-0.884,0.645-1.117l128.092-73.953c1.455-0.842,3.263-0.842,4.716,0l128.096,73.956
	c0.403,0.232,0.645,0.65,0.645,1.117c0,0.466-0.241,0.884-0.645,1.116l-128.092,73.954
	C311.674,338.465,310.858,338.674,310.043,338.674z M308.185,337.179c1.146,0.66,2.568,0.66,3.716,0l128.092-73.954
	c0.131-0.076,0.145-0.201,0.145-0.251c0-0.051-0.014-0.176-0.145-0.252l-128.096-73.956c-1.146-0.662-2.569-0.662-3.716,0
	L180.09,262.719c-0.131,0.076-0.145,0.201-0.145,0.252c0,0.051,0.014,0.176,0.146,0.252L308.185,337.179z"/>
<path style="opacity:0.4;fill:#73CFFE;" d="M189.698,362.962l-0.5-0.865l0.866-0.5l0.5,0.865L189.698,362.962z M193.931,360.518
	l-0.5-0.865l0.866-0.5l0.5,0.865L193.931,360.518z M198.164,358.074l-0.5-0.865l0.866-0.5l0.5,0.865L198.164,358.074z
	 M202.397,355.631l-0.5-0.865l0.866-0.5l0.5,0.865L202.397,355.631z M206.63,353.186l-0.5-0.865l0.866-0.5l0.5,0.865L206.63,353.186
	z M210.863,350.743l-0.5-0.865l0.866-0.5l0.5,0.865L210.863,350.743z M215.096,348.298l-0.5-0.865l0.866-0.5l0.5,0.865
	L215.096,348.298z M219.328,345.855l-0.5-0.865l0.866-0.5l0.5,0.865L219.328,345.855z M223.561,343.412l-0.5-0.865l0.866-0.5
	l0.5,0.865L223.561,343.412z M227.794,340.967l-0.5-0.865l0.866-0.5l0.5,0.865L227.794,340.967z M232.027,338.524l-0.5-0.865
	l0.866-0.5l0.5,0.865L232.027,338.524z M236.083,335.386l-0.95-0.311c0.057-0.176,0.087-0.358,0.087-0.545
	c0-0.074-0.004-0.149-0.014-0.224l0.992-0.127c0.015,0.117,0.022,0.233,0.022,0.351
	C236.219,334.823,236.174,335.111,236.083,335.386z M232.761,332.114l-0.866-0.5l0.5-0.865l0.866,0.5L232.761,332.114z
	 M228.528,329.671l-0.866-0.5l0.5-0.865l0.866,0.5L228.528,329.671z M224.295,327.226l-0.866-0.5l0.5-0.865l0.866,0.5
	L224.295,327.226z M220.062,324.783l-0.866-0.5l0.5-0.865l0.866,0.5L220.062,324.783z M215.83,322.339l-0.866-0.5l0.5-0.865
	l0.866,0.5L215.83,322.339z M211.597,319.895l-0.866-0.5l0.5-0.865l0.866,0.5L211.597,319.895z M207.364,317.451l-0.866-0.5
	l0.5-0.865l0.866,0.5L207.364,317.451z M399.631,315.762c-0.163,0-0.327-0.005-0.492-0.015l0.059-0.998
	c0.158,0.008,0.315,0.017,0.476,0.013c0.158,0,0.313-0.005,0.469-0.013l0.053,0.998
	C400.007,315.759,399.816,315.762,399.631,315.762z M203.131,315.008l-0.866-0.5l0.5-0.865l0.866,0.5L203.131,315.008z
	 M404.121,314.658l-0.473-0.881c0.093-0.05,0.185-0.1,0.274-0.151l0.58-0.335l0.5,0.865l-0.58,0.335
	C404.323,314.548,404.221,314.604,404.121,314.658z M395.219,314.652c-0.098-0.052-0.195-0.105-0.291-0.161l-0.594-0.344l0.5-0.865
	l0.595,0.344c0.087,0.05,0.173,0.098,0.259,0.143L395.219,314.652z M198.898,312.564l-0.866-0.5l0.5-0.865l0.866,0.5
	L198.898,312.564z M408.37,312.212l-0.5-0.865l0.866-0.5l0.5,0.865L408.37,312.212z M390.967,312.204l-0.866-0.5l0.5-0.865
	l0.866,0.5L390.967,312.204z M194.665,310.12l-0.866-0.5l0.5-0.865l0.866,0.5L194.665,310.12z M412.602,309.768l-0.5-0.865
	l0.866-0.5l0.5,0.865L412.602,309.768z M386.734,309.759l-0.866-0.5l0.5-0.865l0.866,0.5L386.734,309.759z M190.432,307.677
	l-0.866-0.5l0.5-0.865l0.866,0.5L190.432,307.677z M416.836,307.324l-0.5-0.865l0.866-0.5l0.5,0.865L416.836,307.324z
	 M382.502,307.316l-0.866-0.5l0.5-0.865l0.866,0.5L382.502,307.316z M186.2,305.232l-0.866-0.5l0.5-0.865l0.866,0.5L186.2,305.232z
	 M421.068,304.881l-0.5-0.865l0.866-0.5l0.5,0.865L421.068,304.881z M378.268,304.872l-0.865-0.5l0.5-0.865l0.865,0.5
	L378.268,304.872z M181.967,302.789l-0.866-0.5l0.5-0.865l0.866,0.5L181.967,302.789z M425.301,302.436l-0.5-0.865l0.865-0.5
	l0.5,0.865L425.301,302.436z M374.036,302.428l-0.866-0.5l0.5-0.865l0.866,0.5L374.036,302.428z M177.734,300.344l-0.866-0.5
	l0.5-0.865l0.866,0.5L177.734,300.344z M429.534,299.993l-0.5-0.865l0.866-0.5l0.5,0.865L429.534,299.993z M371.665,298.727
	l-0.994-0.1c0.041-0.408,0.174-0.807,0.385-1.151l0.854,0.521C371.775,298.216,371.691,298.467,371.665,298.727z M173.501,297.901
	l-0.866-0.5l0.5-0.865l0.866,0.5L173.501,297.901z M433.767,297.548l-0.5-0.865l0.865-0.5l0.5,0.865L433.767,297.548z
	 M374.928,296.019l-0.5-0.865l0.866-0.5l0.5,0.865L374.928,296.019z M169.268,295.457l-0.866-0.5l0.5-0.865l0.866,0.5
	L169.268,295.457z M438,295.105l-0.5-0.865l0.866-0.5l0.5,0.865L438,295.105z M379.161,293.576l-0.5-0.865l0.866-0.5l0.5,0.865
	L379.161,293.576z M165.035,293.013l-0.866-0.5l0.5-0.865l0.866,0.5L165.035,293.013z M442.232,292.661l-0.5-0.865l0.866-0.5
	l0.5,0.865L442.232,292.661z M383.394,291.132l-0.5-0.865l0.865-0.5l0.5,0.865L383.394,291.132z M160.803,290.569l-0.866-0.5
	l0.5-0.865l0.866,0.5L160.803,290.569z M446.466,290.217l-0.5-0.865l0.866-0.5l0.5,0.865L446.466,290.217z M387.627,288.688
	l-0.5-0.865l0.866-0.5l0.5,0.865L387.627,288.688z M450.698,287.773l-0.5-0.865l0.866-0.5l0.5,0.865L450.698,287.773z
	 M156.733,287.451c-0.098-0.286-0.147-0.585-0.147-0.889c0-0.106,0.006-0.212,0.018-0.315l0.993,0.113
	c-0.007,0.067-0.011,0.135-0.011,0.202c0,0.193,0.031,0.384,0.093,0.564L156.733,287.451z M391.859,286.244l-0.5-0.865l0.866-0.5
	l0.5,0.865L391.859,286.244z M454.931,285.33l-0.5-0.865l0.865-0.5l0.5,0.865L454.931,285.33z M160.02,284.16l-0.5-0.865l0.866-0.5
	l0.5,0.865L160.02,284.16z M396.092,283.801l-0.5-0.865l0.866-0.5l0.5,0.865L396.092,283.801z M250.161,283.286l-0.146-0.988
	c0.311-0.047,0.62-0.11,0.925-0.19l0.254,0.967C250.853,283.164,250.508,283.235,250.161,283.286z M246.099,283.006
	c-0.336-0.099-0.668-0.216-0.994-0.352l0.385-0.924c0.292,0.122,0.589,0.228,0.891,0.316L246.099,283.006z M459.164,282.885
	l-0.5-0.865l0.866-0.5l0.5,0.865L459.164,282.885z M164.253,281.716l-0.5-0.865l0.866-0.5l0.5,0.865L164.253,281.716z
	 M254.817,281.365l-0.5-0.865l0.866-0.5l0.5,0.865L254.817,281.365z M400.325,281.356l-0.5-0.865l0.866-0.5l0.5,0.865
	L400.325,281.356z M241.647,280.746l-0.866-0.5l0.5-0.865l0.866,0.5L241.647,280.746z M463.397,280.442l-0.5-0.865l0.865-0.5
	l0.5,0.865L463.397,280.442z M168.486,279.272l-0.5-0.865l0.866-0.5l0.5,0.865L168.486,279.272z M259.05,278.922l-0.5-0.865
	l0.866-0.5l0.5,0.865L259.05,278.922z M404.559,278.913l-0.502-0.865l0.865-0.501l0.502,0.865L404.559,278.913z M237.414,278.302
	l-0.866-0.5l0.5-0.865l0.866,0.5L237.414,278.302z M467.63,277.998l-0.5-0.865l0.866-0.5l0.5,0.865L467.63,277.998z
	 M172.719,276.829l-0.5-0.865l0.866-0.5l0.5,0.865L172.719,276.829z M263.283,276.477l-0.5-0.865l0.866-0.5l0.5,0.865
	L263.283,276.477z M408.791,276.468l-0.5-0.865l0.866-0.5l0.5,0.865L408.791,276.468z M233.181,275.858l-0.866-0.5l0.5-0.865
	l0.866,0.5L233.181,275.858z M471.862,275.554l-0.5-0.865l0.866-0.5l0.5,0.865L471.862,275.554z M176.952,274.384l-0.5-0.865
	l0.866-0.5l0.5,0.865L176.952,274.384z M267.515,274.034l-0.5-0.865l0.866-0.5l0.5,0.865L267.515,274.034z M413.023,274.024
	l-0.5-0.865l0.866-0.5l0.5,0.865L413.023,274.024z M228.949,273.415l-0.866-0.5l0.5-0.865l0.866,0.5L228.949,273.415z
	 M476.095,273.11l-0.5-0.865l0.866-0.5l0.5,0.865L476.095,273.11z M181.185,271.941l-0.5-0.865l0.866-0.5l0.5,0.865L181.185,271.941
	z M271.748,271.59l-0.5-0.865l0.866-0.5l0.5,0.865L271.748,271.59z M417.257,271.581l-0.5-0.865l0.866-0.5l0.5,0.865
	L417.257,271.581z M224.716,270.97l-0.866-0.5l0.5-0.865l0.866,0.5L224.716,270.97z M480.328,270.667l-0.5-0.865l0.866-0.5
	l0.5,0.865L480.328,270.667z M185.417,269.498l-0.5-0.865l0.866-0.5l0.5,0.865L185.417,269.498z M275.981,269.146l-0.5-0.865
	l0.866-0.5l0.5,0.865L275.981,269.146z M421.489,269.136l-0.5-0.865l0.866-0.5l0.5,0.865L421.489,269.136z M220.483,268.527
	l-0.866-0.5l0.5-0.865l0.866,0.5L220.483,268.527z M484.561,268.223l-0.5-0.865l0.866-0.5l0.5,0.865L484.561,268.223z
	 M189.65,267.053l-0.5-0.865l0.866-0.5l0.5,0.865L189.65,267.053z M280.214,266.702l-0.5-0.865l0.866-0.5l0.5,0.865L280.214,266.702
	z M425.723,266.693l-0.502-0.865l0.153-0.089c0.19-0.11,0.353-0.249,0.485-0.412l0.777,0.629c-0.209,0.259-0.466,0.477-0.761,0.648
	L425.723,266.693z M216.25,266.083l-0.866-0.5l0.5-0.865l0.866,0.5L216.25,266.083z M488.794,265.779l-0.5-0.865l0.866-0.5
	l0.5,0.865L488.794,265.779z M193.883,264.61l-0.5-0.865l0.866-0.5l0.5,0.865L193.883,264.61z M284.447,264.259l-0.5-0.865
	l0.866-0.5l0.5,0.865L284.447,264.259z M212.017,263.639l-0.866-0.5l0.5-0.865l0.866,0.5L212.017,263.639z M493.027,263.336
	l-0.5-0.865l0.865-0.5l0.5,0.865L493.027,263.336z M425.334,262.727l-0.866-0.5l0.5-0.865l0.866,0.5L425.334,262.727z
	 M198.116,262.166l-0.5-0.865l0.866-0.5l0.5,0.865L198.116,262.166z M288.679,261.815l-0.5-0.865l0.866-0.5l0.5,0.865
	L288.679,261.815z M207.796,261.208c-0.279-0.15-0.565-0.283-0.855-0.399l0.371-0.928c0.325,0.13,0.644,0.278,0.956,0.445
	L207.796,261.208z M497.259,260.891l-0.5-0.865l0.866-0.5l0.5,0.865L497.259,260.891z M202.409,260.318l-0.164-0.986
	c0.349-0.058,0.699-0.096,1.051-0.113l0.05,0.998C203.032,260.232,202.719,260.266,202.409,260.318z M421.101,260.284l-0.866-0.5
	l0.5-0.865l0.866,0.5L421.101,260.284z M292.912,259.371l-0.5-0.865l0.866-0.5l0.5,0.865L292.912,259.371z M501.492,258.448
	l-0.5-0.865l0.866-0.5l0.5,0.865L501.492,258.448z M416.868,257.84l-0.865-0.5l0.5-0.865l0.865,0.5L416.868,257.84z
	 M297.145,256.927l-0.5-0.865l0.866-0.5l0.5,0.865L297.145,256.927z M505.725,256.004l-0.5-0.865l0.866-0.5l0.5,0.865
	L505.725,256.004z M412.635,255.396l-0.866-0.5l0.5-0.865l0.866,0.5L412.635,255.396z M301.378,254.483l-0.5-0.865l0.866-0.5
	l0.5,0.865L301.378,254.483z M509.958,253.56l-0.5-0.865l0.866-0.5l0.5,0.865L509.958,253.56z M408.402,252.952l-0.865-0.5
	l0.5-0.865l0.865,0.5L408.402,252.952z M305.611,252.04l-0.5-0.865l0.865-0.5l0.5,0.865L305.611,252.04z M404.17,250.508l-0.866-0.5
	l0.5-0.865l0.866,0.5L404.17,250.508z M309.844,249.595l-0.5-0.865l0.866-0.5l0.5,0.865L309.844,249.595z M399.937,248.064
	l-0.866-0.5l0.5-0.865l0.866,0.5L399.937,248.064z M314.077,247.152l-0.5-0.865l0.865-0.5l0.5,0.865L314.077,247.152z
	 M395.704,245.621l-0.866-0.5l0.5-0.865l0.866,0.5L395.704,245.621z M318.309,244.708l-0.5-0.865l0.866-0.5l0.5,0.865
	L318.309,244.708z M391.471,243.176l-0.866-0.5l0.5-0.865l0.866,0.5L391.471,243.176z M322.542,242.264l-0.5-0.865l0.866-0.5
	l0.5,0.865L322.542,242.264z M387.238,240.733l-0.866-0.5l0.5-0.865l0.866,0.5L387.238,240.733z M326.775,239.82l-0.5-0.865
	l0.866-0.5l0.5,0.865L326.775,239.82z M383.006,238.289l-0.866-0.5l0.5-0.865l0.866,0.5L383.006,238.289z M331.008,237.377
	l-0.5-0.865l0.866-0.5l0.5,0.865L331.008,237.377z M378.772,235.845l-0.865-0.5l0.5-0.865l0.865,0.5L378.772,235.845z
	 M335.241,234.932l-0.5-0.865l0.866-0.5l0.5,0.865L335.241,234.932z M374.54,233.401l-0.866-0.5l0.5-0.865l0.866,0.5L374.54,233.401
	z M339.473,232.489l-0.5-0.865l0.866-0.5l0.5,0.865L339.473,232.489z M370.307,230.958l-0.866-0.5l0.5-0.865l0.866,0.5
	L370.307,230.958z M343.707,230.045l-0.5-0.865l0.865-0.5l0.5,0.865L343.707,230.045z M366.074,228.514l-0.866-0.5l0.5-0.865
	l0.866,0.5L366.074,228.514z M347.939,227.601l-0.5-0.865l0.866-0.5l0.5,0.865L347.939,227.601z M361.841,226.07l-0.866-0.5
	l0.5-0.865l0.866,0.5L361.841,226.07z M352.162,225.167l-0.477-0.879c0.31-0.169,0.629-0.319,0.953-0.451l0.377,0.926
	C352.726,224.881,352.441,225.015,352.162,225.167z M357.545,224.243c-0.311-0.049-0.625-0.081-0.94-0.097l0.047-0.998
	c0.352,0.016,0.701,0.052,1.049,0.106L357.545,224.243z"/>
<path style="fill:#73CFFE;" d="M189.698,352.639l-0.5-0.865l0.866-0.5l0.5,0.865L189.698,352.639z M193.931,350.195l-0.5-0.865
	l0.866-0.5l0.5,0.865L193.931,350.195z M198.164,347.752l-0.5-0.865l0.866-0.5l0.5,0.865L198.164,347.752z M202.397,345.307
	l-0.5-0.865l0.866-0.5l0.5,0.865L202.397,345.307z M206.629,342.864l-0.5-0.865l0.866-0.5l0.5,0.865L206.629,342.864z
	 M210.862,340.42l-0.5-0.865l0.866-0.5l0.5,0.865L210.862,340.42z M215.095,337.976l-0.5-0.865l0.866-0.5l0.5,0.865L215.095,337.976
	z M219.328,335.532l-0.5-0.865l0.866-0.5l0.5,0.865L219.328,335.532z M223.561,333.089l-0.5-0.865l0.866-0.5l0.5,0.865
	L223.561,333.089z M227.794,330.644l-0.5-0.865l0.866-0.5l0.5,0.865L227.794,330.644z M232.026,328.201l-0.5-0.865l0.866-0.5
	l0.5,0.865L232.026,328.201z M236.083,325.064l-0.95-0.31c0.057-0.176,0.087-0.359,0.087-0.546c0-0.074-0.004-0.148-0.014-0.223
	l0.992-0.127c0.015,0.115,0.022,0.232,0.022,0.35C236.219,324.501,236.174,324.789,236.083,325.064z M232.761,321.792l-0.866-0.5
	l0.5-0.865l0.866,0.5L232.761,321.792z M228.528,319.348l-0.866-0.5l0.5-0.865l0.866,0.5L228.528,319.348z M224.296,316.904
	l-0.866-0.5l0.5-0.865l0.866,0.5L224.296,316.904z M220.063,314.461l-0.866-0.5l0.5-0.865l0.866,0.5L220.063,314.461z
	 M215.83,312.016l-0.866-0.5l0.5-0.865l0.866,0.5L215.83,312.016z M211.597,309.573l-0.866-0.5l0.5-0.865l0.866,0.5L211.597,309.573
	z M207.364,307.129l-0.866-0.5l0.5-0.865l0.866,0.5L207.364,307.129z M399.631,305.44c-0.163,0-0.327-0.005-0.492-0.015l0.059-0.998
	c0.158,0.008,0.315,0.016,0.476,0.013c0.158,0,0.313-0.005,0.467-0.013l0.055,0.998C400.007,305.436,399.816,305.437,399.631,305.44
	z M203.131,304.685l-0.866-0.5l0.5-0.865l0.866,0.5L203.131,304.685z M404.12,304.336l-0.473-0.881l0.855-0.487l0.5,0.865
	L404.12,304.336z M395.219,304.329c-0.098-0.052-0.195-0.105-0.291-0.161l-0.594-0.342l0.5-0.867l0.595,0.343
	c0.087,0.051,0.173,0.099,0.259,0.145L395.219,304.329z M198.898,302.241l-0.866-0.5l0.5-0.865l0.866,0.5L198.898,302.241z
	 M408.37,301.889l-0.5-0.865l0.865-0.5l0.5,0.865L408.37,301.889z M390.967,301.881l-0.866-0.5l0.5-0.865l0.866,0.5L390.967,301.881
	z M194.666,299.797l-0.866-0.5l0.5-0.865l0.866,0.5L194.666,299.797z M412.602,299.445l-0.5-0.865l0.866-0.5l0.5,0.865
	L412.602,299.445z M386.734,299.437l-0.866-0.5l0.5-0.865l0.866,0.5L386.734,299.437z M190.433,297.353l-0.866-0.5l0.5-0.865
	l0.866,0.5L190.433,297.353z M416.836,297.002l-0.5-0.865l0.865-0.5l0.5,0.865L416.836,297.002z M382.502,296.993l-0.866-0.5
	l0.5-0.865l0.866,0.5L382.502,296.993z M186.2,294.91l-0.866-0.5l0.5-0.865l0.866,0.5L186.2,294.91z M421.068,294.557l-0.5-0.865
	l0.866-0.5l0.5,0.865L421.068,294.557z M378.268,294.549l-0.866-0.5l0.5-0.865l0.866,0.5L378.268,294.549z M181.967,292.466
	l-0.866-0.5l0.5-0.865l0.866,0.5L181.967,292.466z M425.301,292.114l-0.5-0.865l0.866-0.5l0.5,0.865L425.301,292.114z
	 M374.036,292.106l-0.866-0.5l0.5-0.865l0.866,0.5L374.036,292.106z M177.734,290.022l-0.866-0.5l0.5-0.865l0.866,0.5
	L177.734,290.022z M429.534,289.67l-0.5-0.865l0.866-0.5l0.5,0.865L429.534,289.67z M371.664,288.406l-0.994-0.1
	c0.041-0.408,0.174-0.807,0.385-1.151l0.854,0.522C371.774,287.894,371.69,288.146,371.664,288.406z M173.501,287.578l-0.866-0.5
	l0.5-0.865l0.866,0.5L173.501,287.578z M433.766,287.226l-0.5-0.865l0.866-0.5l0.5,0.865L433.766,287.226z M374.927,285.697
	l-0.5-0.865l0.866-0.5l0.5,0.865L374.927,285.697z M169.268,285.134l-0.866-0.5l0.5-0.865l0.866,0.5L169.268,285.134z M438,284.782
	l-0.5-0.865l0.865-0.5l0.5,0.865L438,284.782z M379.161,283.253l-0.5-0.865l0.865-0.5l0.5,0.865L379.161,283.253z M165.036,282.69
	l-0.866-0.5l0.5-0.865l0.866,0.5L165.036,282.69z M442.232,282.339l-0.5-0.865l0.866-0.5l0.5,0.865L442.232,282.339z
	 M383.393,280.809l-0.5-0.865l0.866-0.5l0.5,0.865L383.393,280.809z M160.803,280.247l-0.866-0.5l0.5-0.865l0.866,0.5
	L160.803,280.247z M446.466,279.894l-0.5-0.865l0.865-0.5l0.5,0.865L446.466,279.894z M387.627,278.365l-0.5-0.865l0.865-0.5
	l0.5,0.865L387.627,278.365z M450.698,277.451l-0.5-0.865l0.866-0.5l0.5,0.865L450.698,277.451z M156.733,277.13
	c-0.097-0.285-0.147-0.584-0.147-0.889c0-0.107,0.006-0.213,0.018-0.316l0.993,0.113c-0.007,0.066-0.011,0.135-0.011,0.202
	c0.001,0.194,0.032,0.385,0.094,0.565L156.733,277.13z M391.859,275.922l-0.5-0.865l0.866-0.5l0.5,0.865L391.859,275.922z
	 M454.93,275.007l-0.5-0.865l0.866-0.5l0.5,0.865L454.93,275.007z M160.021,273.838l-0.5-0.865l0.866-0.5l0.5,0.865L160.021,273.838
	z M396.091,273.477l-0.5-0.865l0.866-0.5l0.5,0.865L396.091,273.477z M250.161,272.964l-0.146-0.988
	c0.311-0.047,0.62-0.11,0.925-0.19l0.254,0.967C250.853,272.841,250.508,272.913,250.161,272.964z M246.099,272.683
	c-0.336-0.099-0.668-0.216-0.994-0.352l0.385-0.924c0.293,0.122,0.589,0.228,0.891,0.316L246.099,272.683z M459.164,272.563
	l-0.5-0.865l0.866-0.5l0.5,0.865L459.164,272.563z M164.254,271.394l-0.5-0.865l0.866-0.5l0.5,0.865L164.254,271.394z
	 M254.817,271.043l-0.5-0.865l0.866-0.5l0.5,0.865L254.817,271.043z M400.325,271.034l-0.5-0.865l0.866-0.5l0.5,0.865
	L400.325,271.034z M241.647,270.424l-0.866-0.5l0.5-0.865l0.866,0.5L241.647,270.424z M463.396,270.119l-0.5-0.865l0.866-0.5
	l0.5,0.865L463.396,270.119z M168.487,268.95l-0.5-0.865l0.866-0.5l0.5,0.865L168.487,268.95z M259.05,268.599l-0.5-0.865l0.866-0.5
	l0.5,0.865L259.05,268.599z M404.557,268.59l-0.5-0.865l0.866-0.5l0.5,0.865L404.557,268.59z M237.415,267.98l-0.866-0.5l0.5-0.865
	l0.866,0.5L237.415,267.98z M467.63,267.676l-0.5-0.865l0.865-0.5l0.5,0.865L467.63,267.676z M172.719,266.507l-0.5-0.865l0.866-0.5
	l0.5,0.865L172.719,266.507z M263.283,266.155l-0.5-0.865l0.866-0.5l0.5,0.865L263.283,266.155z M408.791,266.146l-0.5-0.865
	l0.866-0.5l0.5,0.865L408.791,266.146z M233.182,265.537l-0.866-0.5l0.5-0.865l0.866,0.5L233.182,265.537z M471.862,265.231
	l-0.5-0.865l0.866-0.5l0.5,0.865L471.862,265.231z M176.952,264.062l-0.5-0.865l0.866-0.5l0.5,0.865L176.952,264.062z
	 M267.515,263.712l-0.5-0.865l0.866-0.5l0.5,0.865L267.515,263.712z M413.023,263.702l-0.5-0.865l0.866-0.5l0.5,0.865
	L413.023,263.702z M228.949,263.092l-0.866-0.5l0.5-0.865l0.866,0.5L228.949,263.092z M476.095,262.788l-0.5-0.865l0.865-0.5
	l0.5,0.865L476.095,262.788z M181.185,261.619l-0.5-0.865l0.866-0.5l0.5,0.865L181.185,261.619z M271.748,261.267l-0.5-0.865
	l0.866-0.5l0.5,0.865L271.748,261.267z M417.257,261.259l-0.5-0.865l0.865-0.5l0.5,0.865L417.257,261.259z M224.716,260.649
	l-0.866-0.5l0.5-0.865l0.866,0.5L224.716,260.649z M480.328,260.343l-0.5-0.865l0.866-0.5l0.5,0.865L480.328,260.343z
	 M185.418,259.174l-0.5-0.865l0.866-0.5l0.5,0.865L185.418,259.174z M275.981,258.824l-0.5-0.865l0.866-0.5l0.5,0.865
	L275.981,258.824z M421.489,258.814l-0.5-0.865l0.866-0.5l0.5,0.865L421.489,258.814z M220.483,258.205l-0.866-0.5l0.5-0.865
	l0.866,0.5L220.483,258.205z M484.56,257.9l-0.5-0.865l0.866-0.5l0.5,0.865L484.56,257.9z M189.651,256.731l-0.5-0.865l0.866-0.5
	l0.5,0.865L189.651,256.731z M280.214,256.38l-0.5-0.865l0.866-0.5l0.5,0.865L280.214,256.38z M425.723,256.371l-0.502-0.865
	l0.153-0.089c0.19-0.109,0.353-0.247,0.485-0.411l0.777,0.629c-0.21,0.26-0.467,0.477-0.762,0.648L425.723,256.371z M216.25,255.761
	l-0.866-0.5l0.5-0.865l0.866,0.5L216.25,255.761z M488.794,255.456l-0.5-0.865l0.866-0.5l0.5,0.865L488.794,255.456z
	 M193.883,254.287l-0.5-0.865l0.866-0.5l0.5,0.865L193.883,254.287z M284.447,253.936l-0.5-0.865l0.866-0.5l0.5,0.865
	L284.447,253.936z M212.018,253.317l-0.866-0.5l0.5-0.865l0.866,0.5L212.018,253.317z M493.026,253.012l-0.5-0.865l0.866-0.5
	l0.5,0.865L493.026,253.012z M425.334,252.405l-0.865-0.5l0.5-0.865l0.865,0.5L425.334,252.405z M198.116,251.843l-0.5-0.865
	l0.866-0.5l0.5,0.865L198.116,251.843z M288.68,251.492l-0.5-0.865l0.866-0.5l0.5,0.865L288.68,251.492z M207.796,250.885
	c-0.279-0.15-0.565-0.283-0.855-0.399l0.371-0.928c0.325,0.13,0.644,0.278,0.956,0.445L207.796,250.885z M497.259,250.568
	l-0.5-0.865l0.866-0.5l0.5,0.865L497.259,250.568z M202.409,249.995l-0.164-0.986c0.349-0.058,0.699-0.096,1.051-0.113l0.05,0.998
	C203.033,249.909,202.72,249.943,202.409,249.995z M421.101,249.962l-0.866-0.5l0.5-0.865l0.866,0.5L421.101,249.962z
	 M292.913,249.048l-0.5-0.865l0.865-0.5l0.5,0.865L292.913,249.048z M501.492,248.125l-0.5-0.865l0.866-0.5l0.5,0.865
	L501.492,248.125z M416.869,247.517l-0.866-0.5l0.5-0.865l0.866,0.5L416.869,247.517z M297.145,246.604l-0.5-0.865l0.866-0.5
	l0.5,0.865L297.145,246.604z M505.725,245.68l-0.5-0.865l0.865-0.5l0.5,0.865L505.725,245.68z M412.635,245.074l-0.866-0.5
	l0.5-0.865l0.866,0.5L412.635,245.074z M301.379,244.161l-0.5-0.865l0.865-0.5l0.5,0.865L301.379,244.161z M509.958,243.237
	l-0.5-0.865l0.866-0.5l0.5,0.865L509.958,243.237z M408.403,242.631l-0.866-0.5l0.5-0.865l0.866,0.5L408.403,242.631z
	 M305.611,241.717l-0.5-0.865l0.866-0.5l0.5,0.865L305.611,241.717z M404.17,240.186l-0.865-0.5l0.5-0.865l0.865,0.5L404.17,240.186
	z M309.844,239.273l-0.5-0.865l0.866-0.5l0.5,0.865L309.844,239.273z M399.937,237.743l-0.866-0.5l0.5-0.865l0.866,0.5
	L399.937,237.743z M314.077,236.829l-0.5-0.865l0.866-0.5l0.5,0.865L314.077,236.829z M395.704,235.298l-0.865-0.5l0.5-0.865
	l0.865,0.5L395.704,235.298z M318.309,234.385l-0.5-0.865l0.866-0.5l0.5,0.865L318.309,234.385z M391.471,232.855l-0.866-0.5
	l0.5-0.865l0.866,0.5L391.471,232.855z M322.543,231.941l-0.5-0.865l0.866-0.5l0.5,0.865L322.543,231.941z M387.239,230.411
	l-0.866-0.5l0.5-0.865l0.866,0.5L387.239,230.411z M326.775,229.498l-0.5-0.865l0.866-0.5l0.5,0.865L326.775,229.498z
	 M383.006,227.967l-0.866-0.5l0.5-0.865l0.866,0.5L383.006,227.967z M331.009,227.053l-0.5-0.865l0.865-0.5l0.5,0.865
	L331.009,227.053z M378.773,225.523l-0.866-0.5l0.5-0.865l0.866,0.5L378.773,225.523z M335.241,224.61l-0.5-0.865l0.866-0.5
	l0.5,0.865L335.241,224.61z M374.54,223.08l-0.866-0.5l0.5-0.865l0.866,0.5L374.54,223.08z M339.473,222.166l-0.5-0.865l0.866-0.5
	l0.5,0.865L339.473,222.166z M370.307,220.635l-0.866-0.5l0.5-0.865l0.866,0.5L370.307,220.635z M343.707,219.722l-0.5-0.865
	l0.866-0.5l0.5,0.865L343.707,219.722z M366.074,218.192l-0.865-0.5l0.5-0.865l0.865,0.5L366.074,218.192z M347.939,217.279
	l-0.5-0.865l0.866-0.5l0.5,0.865L347.939,217.279z M361.841,215.748l-0.866-0.5l0.5-0.865l0.866,0.5L361.841,215.748z
	 M352.162,214.844l-0.477-0.879c0.31-0.169,0.629-0.319,0.953-0.451l0.377,0.926C352.726,214.558,352.441,214.693,352.162,214.844z
	 M357.546,213.921c-0.31-0.049-0.625-0.081-0.939-0.097l0.047-0.998c0.352,0.016,0.701,0.052,1.049,0.106L357.546,213.921z"/>
<radialGradient id="SVGID_00000124149663124390624350000016047650488648703896_" cx="287.9137" cy="213.3143" r="140.4068" gradientUnits="userSpaceOnUse">
	<stop  offset="0" style="stop-color:#FC2FFD"/>
	<stop  offset="0.0314" style="stop-color:#E92BEC"/>
	<stop  offset="0.1121" style="stop-color:#BD21C5"/>
	<stop  offset="0.1991" style="stop-color:#9619A2"/>
	<stop  offset="0.2911" style="stop-color:#761285"/>
	<stop  offset="0.3895" style="stop-color:#5B0C6D"/>
	<stop  offset="0.497" style="stop-color:#47085B"/>
	<stop  offset="0.6178" style="stop-color:#38044E"/>
	<stop  offset="0.7633" style="stop-color:#300346"/>
	<stop  offset="1" style="stop-color:#2D0244"/>
</radialGradient>
<circle style="opacity:0.2;fill:url(#SVGID_00000124149663124390624350000016047650488648703896_);" cx="287.914" cy="213.314" r="140.407"/>
<g>
	<g style="enable-background:new    ;">
		
			<radialGradient id="SVGID_00000004534444245122098310000005692813111066755731_" cx="291.7408" cy="211.518" r="31.7741" gradientUnits="userSpaceOnUse">
			<stop  offset="0" style="stop-color:#C819D3"/>
			<stop  offset="0.1435" style="stop-color:#B121CE"/>
			<stop  offset="0.7333" style="stop-color:#5641BC"/>
			<stop  offset="1" style="stop-color:#324DB5"/>
		</radialGradient>
		<path style="fill:url(#SVGID_00000004534444245122098310000005692813111066755731_);" d="M301.731,190.361
			c0.016-0.222,0.029-0.443,0.034-0.662c0.04-1.618-0.213-2.994-0.7-4.097c-0.487-1.103-1.21-1.932-2.11-2.455l-6.339-3.683
			c1.8,1.046,2.889,3.317,2.81,6.553c-0.005,0.219-0.018,0.44-0.034,0.662c-0.005,0.067-0.011,0.134-0.017,0.201
			c-0.014,0.162-0.031,0.325-0.051,0.489c-0.009,0.072-0.017,0.144-0.027,0.216c-0.019,0.145-0.042,0.29-0.065,0.435
			c-0.011,0.066-0.02,0.132-0.032,0.199c-0.037,0.211-0.077,0.423-0.122,0.635c-0.04,0.187-0.083,0.374-0.129,0.562
			c-0.014,0.056-0.03,0.113-0.044,0.169c-0.034,0.132-0.068,0.264-0.104,0.396c-0.013,0.048-0.028,0.096-0.042,0.144
			c-0.038,0.132-0.077,0.265-0.118,0.397c-0.02,0.065-0.042,0.13-0.062,0.195c-0.032,0.098-0.064,0.197-0.097,0.295
			c-0.09,0.266-0.184,0.531-0.286,0.796c-0.018,0.046-0.037,0.093-0.055,0.139c-0.087,0.222-0.177,0.444-0.272,0.665
			c-0.024,0.056-0.047,0.112-0.072,0.168c-0.108,0.248-0.221,0.494-0.338,0.739c-0.023,0.048-0.047,0.095-0.07,0.143
			c-0.101,0.207-0.206,0.413-0.313,0.618c-0.03,0.058-0.06,0.115-0.091,0.173c-0.129,0.242-0.263,0.481-0.401,0.719
			c-0.024,0.041-0.049,0.082-0.073,0.123c-0.127,0.215-0.257,0.428-0.391,0.639c-0.032,0.05-0.063,0.101-0.095,0.151
			c-0.159,0.247-0.322,0.49-0.489,0.73c-0.032,0.046-0.065,0.091-0.097,0.137c-0.189,0.266-0.381,0.529-0.58,0.786
			c-0.061,0.078-0.123,0.155-0.184,0.232c-0.065,0.082-0.13,0.165-0.197,0.247c-0.064,0.077-0.129,0.153-0.193,0.229
			c-0.068,0.08-0.135,0.162-0.203,0.241c-0.032,0.036-0.064,0.072-0.096,0.108c-0.123,0.139-0.247,0.277-0.372,0.412
			c-0.053,0.057-0.107,0.113-0.16,0.169c-0.108,0.114-0.217,0.226-0.327,0.336c-0.067,0.068-0.135,0.135-0.203,0.201
			c-0.046,0.045-0.092,0.089-0.138,0.133c-0.092,0.088-0.186,0.175-0.28,0.261c-0.041,0.038-0.082,0.076-0.123,0.113
			c-0.134,0.12-0.269,0.238-0.405,0.353c-0.007,0.006-0.014,0.011-0.021,0.017c-0.13,0.109-0.26,0.215-0.392,0.319
			c-0.044,0.035-0.088,0.068-0.132,0.102c-0.097,0.075-0.194,0.148-0.291,0.221c-0.049,0.036-0.099,0.072-0.148,0.108
			c-0.099,0.071-0.198,0.14-0.297,0.208c-0.044,0.03-0.089,0.061-0.133,0.091c-0.143,0.095-0.286,0.188-0.431,0.277
			c-0.105,0.065-0.211,0.128-0.316,0.188c-0.149,0.086-0.297,0.166-0.445,0.244c-0.039,0.02-0.077,0.04-0.116,0.06
			c-0.133,0.068-0.265,0.133-0.397,0.194c-0.015,0.007-0.03,0.015-0.045,0.022c-0.136,0.062-0.27,0.119-0.404,0.174
			c-0.145,0.059-0.288,0.113-0.43,0.164c-0.034,0.012-0.069,0.026-0.103,0.038c-0.176,0.06-0.35,0.114-0.522,0.161
			c-0.1,0.027-0.198,0.051-0.296,0.074c-0.048,0.011-0.097,0.025-0.144,0.035c-0.147,0.032-0.292,0.059-0.436,0.081
			c-0.004,0.001-0.008,0.001-0.013,0.002c-0.133,0.02-0.264,0.036-0.394,0.048c-0.043,0.004-0.085,0.006-0.128,0.009
			c-0.093,0.007-0.186,0.012-0.278,0.015c-0.041,0.001-0.082,0.002-0.122,0.002c-0.096,0.001-0.19-0.001-0.284-0.004
			c-0.033-0.001-0.066-0.002-0.099-0.004c-0.122-0.007-0.242-0.017-0.36-0.032c-0.025-0.003-0.049-0.007-0.074-0.011
			c-0.097-0.013-0.192-0.029-0.287-0.047c-0.032-0.006-0.064-0.013-0.096-0.019c-0.108-0.023-0.215-0.049-0.319-0.079
			c-0.007-0.002-0.014-0.003-0.021-0.005c-0.111-0.032-0.219-0.069-0.326-0.108c-0.029-0.011-0.057-0.022-0.086-0.033
			c-0.086-0.034-0.171-0.07-0.255-0.109c-0.022-0.01-0.045-0.02-0.066-0.03c-0.108-0.052-0.215-0.108-0.319-0.168l6.339,3.684
			c0.017,0.01,0.034,0.02,0.052,0.03c0.087,0.049,0.177,0.095,0.267,0.138c0.022,0.01,0.044,0.02,0.066,0.03
			c0.051,0.023,0.101,0.048,0.152,0.069c0.034,0.014,0.069,0.026,0.103,0.04c0.028,0.011,0.057,0.022,0.086,0.033
			c0.105,0.039,0.212,0.075,0.321,0.107c0.002,0.001,0.004,0.001,0.005,0.001c0.007,0.002,0.014,0.004,0.021,0.006
			c0.105,0.03,0.211,0.055,0.319,0.078c0.032,0.007,0.064,0.013,0.096,0.019c0.033,0.006,0.066,0.014,0.1,0.02
			c0.062,0.011,0.125,0.019,0.187,0.027c0.025,0.003,0.049,0.008,0.074,0.011c0.106,0.013,0.213,0.024,0.322,0.03
			c0.013,0.001,0.026,0.001,0.038,0.001c0.033,0.002,0.066,0.002,0.099,0.003c0.094,0.004,0.188,0.005,0.284,0.004
			c0.041,0,0.082-0.001,0.123-0.002c0.032-0.001,0.063,0,0.095-0.002c0.061-0.003,0.122-0.009,0.183-0.013
			c0.043-0.003,0.085-0.005,0.128-0.009c0.13-0.012,0.261-0.028,0.394-0.048c0.004-0.001,0.008-0.001,0.013-0.002l0.001,0
			c0.143-0.022,0.288-0.049,0.435-0.081c0.048-0.01,0.096-0.024,0.144-0.035c0.089-0.021,0.178-0.041,0.269-0.065
			c0.009-0.003,0.019-0.006,0.028-0.009c0.172-0.047,0.346-0.101,0.522-0.161c0.034-0.012,0.069-0.026,0.103-0.038
			c0.142-0.051,0.286-0.105,0.43-0.164c0.019-0.008,0.038-0.014,0.057-0.022c0.115-0.048,0.23-0.099,0.346-0.152
			c0.015-0.007,0.03-0.015,0.045-0.022c0.131-0.061,0.264-0.126,0.397-0.194c0.039-0.02,0.077-0.04,0.116-0.06
			c0.148-0.077,0.296-0.158,0.445-0.244c0.105-0.06,0.21-0.123,0.316-0.188c0.145-0.089,0.288-0.182,0.431-0.277
			c0.045-0.03,0.089-0.061,0.134-0.091c0.1-0.068,0.199-0.137,0.297-0.208c0.049-0.036,0.099-0.072,0.148-0.108
			c0.098-0.072,0.195-0.146,0.291-0.221c0.044-0.034,0.088-0.068,0.132-0.102c0.131-0.104,0.262-0.21,0.392-0.319
			c0.007-0.006,0.014-0.011,0.021-0.017c0.136-0.115,0.271-0.233,0.405-0.353c0.041-0.037,0.082-0.075,0.123-0.113
			c0.094-0.086,0.187-0.173,0.28-0.261c0.046-0.044,0.092-0.088,0.138-0.133c0.036-0.035,0.072-0.069,0.108-0.104
			c0.032-0.032,0.063-0.066,0.095-0.098c0.11-0.11,0.219-0.222,0.327-0.336c0.054-0.056,0.107-0.112,0.16-0.169
			c0.126-0.135,0.25-0.273,0.372-0.412c0.026-0.029,0.052-0.057,0.078-0.087c0.006-0.007,0.012-0.014,0.018-0.021
			c0.069-0.079,0.136-0.16,0.204-0.241c0.065-0.076,0.13-0.152,0.193-0.229c0.066-0.081,0.131-0.164,0.197-0.247
			c0.058-0.072,0.116-0.143,0.173-0.217c0.004-0.005,0.007-0.01,0.011-0.015c0.199-0.257,0.391-0.519,0.58-0.786
			c0.019-0.027,0.039-0.051,0.058-0.078c0.014-0.019,0.026-0.04,0.039-0.059c0.167-0.24,0.33-0.483,0.489-0.73
			c0.011-0.018,0.024-0.035,0.035-0.052c0.021-0.032,0.04-0.066,0.06-0.098c0.133-0.211,0.264-0.424,0.391-0.639
			c0.017-0.029,0.036-0.057,0.053-0.086c0.007-0.012,0.013-0.024,0.02-0.036c0.138-0.237,0.271-0.477,0.4-0.719
			c0.012-0.022,0.025-0.043,0.036-0.065c0.019-0.036,0.036-0.072,0.055-0.108c0.108-0.205,0.212-0.411,0.313-0.618
			c0.017-0.034,0.035-0.067,0.051-0.101c0.007-0.014,0.013-0.028,0.019-0.042c0.117-0.245,0.23-0.492,0.338-0.739
			c0.009-0.021,0.019-0.041,0.028-0.061c0.015-0.035,0.028-0.071,0.044-0.107c0.095-0.221,0.185-0.442,0.272-0.665
			c0.013-0.033,0.028-0.066,0.04-0.099c0.005-0.013,0.009-0.027,0.014-0.04c0.101-0.265,0.196-0.53,0.286-0.796
			c0.009-0.026,0.019-0.051,0.028-0.077c0.024-0.072,0.046-0.145,0.069-0.217c0.021-0.065,0.042-0.13,0.063-0.196
			c0.041-0.132,0.08-0.265,0.118-0.397c0.014-0.048,0.029-0.096,0.042-0.144c0.003-0.009,0.006-0.019,0.008-0.028
			c0.034-0.123,0.065-0.245,0.096-0.368c0.015-0.057,0.03-0.113,0.044-0.17c0.046-0.186,0.089-0.373,0.129-0.559
			c0-0.001,0-0.002,0-0.002c0.046-0.213,0.086-0.425,0.122-0.636c0.012-0.066,0.021-0.132,0.032-0.199
			c0.023-0.145,0.046-0.29,0.065-0.435c0.004-0.031,0.01-0.062,0.014-0.092c0.005-0.042,0.008-0.083,0.013-0.124
			c0.02-0.164,0.036-0.327,0.051-0.489C301.72,190.495,301.726,190.428,301.731,190.361z"/>
		
			<radialGradient id="SVGID_00000140697116221004109430000003977382636199119256_" cx="278.9724" cy="217.4958" r="44.6485" gradientUnits="userSpaceOnUse">
			<stop  offset="0" style="stop-color:#C819D3"/>
			<stop  offset="0.3389" style="stop-color:#912CC8"/>
			<stop  offset="0.7889" style="stop-color:#4D44BA"/>
			<stop  offset="1" style="stop-color:#324DB5"/>
		</radialGradient>
		<path style="fill:url(#SVGID_00000140697116221004109430000003977382636199119256_);" d="M298.492,169.35
			c-0.033-0.019-0.065-0.038-0.098-0.056c-0.021-0.012-0.043-0.022-0.065-0.034c-0.104-0.057-0.208-0.112-0.314-0.165
			c-0.033-0.016-0.065-0.033-0.098-0.049c-0.133-0.064-0.268-0.126-0.405-0.184c-0.007-0.003-0.013-0.006-0.019-0.009
			c-0.02-0.008-0.04-0.015-0.06-0.023c-0.113-0.047-0.228-0.091-0.344-0.133c-0.04-0.014-0.079-0.029-0.119-0.042
			c-0.13-0.045-0.262-0.088-0.395-0.127c-0.01-0.003-0.019-0.007-0.029-0.009c-0.002-0.001-0.004-0.001-0.006-0.002
			c-0.146-0.042-0.293-0.08-0.442-0.115c-0.04-0.01-0.081-0.018-0.121-0.027c-0.121-0.027-0.243-0.051-0.366-0.074
			c-0.024-0.004-0.048-0.01-0.072-0.015c-0.01-0.002-0.021-0.003-0.031-0.004c-0.156-0.027-0.313-0.049-0.472-0.068
			c-0.035-0.004-0.071-0.007-0.106-0.011c-0.132-0.014-0.266-0.027-0.4-0.036c-0.025-0.002-0.05-0.005-0.075-0.007
			c-0.014-0.001-0.029-0.001-0.044-0.001c-0.17-0.01-0.341-0.016-0.513-0.018c-0.033,0-0.066,0-0.099,0
			c-0.151,0-0.304,0.003-0.458,0.008c-0.025,0.001-0.049,0-0.073,0.001c-0.012,0.001-0.025,0.002-0.038,0.003
			c-0.19,0.009-0.382,0.023-0.575,0.042c-0.039,0.004-0.078,0.008-0.118,0.012c-0.2,0.021-0.401,0.046-0.605,0.077
			c-0.001,0-0.001,0-0.002,0c-0.002,0-0.004,0.001-0.006,0.001c-0.243,0.037-0.488,0.083-0.735,0.135
			c-0.019,0.004-0.038,0.007-0.057,0.011c-0.238,0.051-0.478,0.11-0.721,0.175c-0.02,0.005-0.039,0.009-0.06,0.014
			c-0.016,0.004-0.033,0.01-0.049,0.014c-0.13,0.036-0.261,0.074-0.392,0.114c-0.03,0.009-0.06,0.017-0.09,0.027
			c-0.161,0.05-0.324,0.103-0.487,0.159c-0.045,0.016-0.09,0.032-0.136,0.048c-0.119,0.042-0.238,0.085-0.358,0.13
			c-0.06,0.022-0.119,0.046-0.179,0.069c-0.108,0.042-0.215,0.085-0.324,0.129c-0.033,0.014-0.065,0.025-0.098,0.039
			c-0.026,0.011-0.052,0.023-0.078,0.034c-0.155,0.065-0.311,0.133-0.468,0.204c-0.031,0.014-0.061,0.027-0.092,0.041
			c-0.185,0.085-0.371,0.174-0.557,0.266c-0.049,0.024-0.099,0.05-0.148,0.075c-0.144,0.073-0.289,0.147-0.434,0.225
			c-0.054,0.029-0.109,0.057-0.163,0.087c-0.19,0.103-0.38,0.208-0.571,0.318c-0.289,0.167-0.575,0.342-0.861,0.522
			c-0.093,0.059-0.184,0.12-0.276,0.18c-0.193,0.126-0.386,0.253-0.577,0.384c-0.106,0.073-0.212,0.148-0.318,0.223
			c-0.177,0.126-0.354,0.253-0.53,0.383c-0.107,0.08-0.215,0.16-0.321,0.242c-0.177,0.135-0.354,0.274-0.529,0.414
			c-0.099,0.079-0.199,0.158-0.298,0.239c-0.199,0.163-0.396,0.33-0.592,0.499c-0.072,0.062-0.145,0.122-0.217,0.185
			c-0.267,0.234-0.531,0.472-0.792,0.716c-0.055,0.052-0.11,0.106-0.165,0.158c-0.174,0.164-0.348,0.329-0.519,0.497
			c-0.038,0.038-0.075,0.076-0.113,0.114c-0.048,0.048-0.095,0.096-0.143,0.143c-0.24,0.242-0.479,0.487-0.714,0.737
			c-0.006,0.007-0.013,0.013-0.019,0.02c-0.239,0.255-0.475,0.515-0.708,0.778c-0.047,0.053-0.094,0.106-0.141,0.159
			c-0.041,0.046-0.082,0.091-0.122,0.137c-0.109,0.125-0.214,0.254-0.322,0.38c-0.114,0.134-0.228,0.267-0.341,0.403
			c-0.138,0.168-0.274,0.338-0.41,0.508c-0.108,0.135-0.217,0.269-0.324,0.406c-0.02,0.025-0.04,0.049-0.059,0.075
			c-0.206,0.266-0.409,0.534-0.609,0.806c-0.009,0.013-0.019,0.026-0.028,0.039c-0.188,0.256-0.374,0.514-0.557,0.775
			c-0.023,0.033-0.045,0.067-0.068,0.1c-0.058,0.083-0.115,0.167-0.172,0.251c-0.152,0.222-0.303,0.445-0.451,0.67
			c-0.066,0.1-0.132,0.2-0.197,0.301c-0.05,0.077-0.101,0.152-0.15,0.229c-0.107,0.168-0.212,0.338-0.317,0.507
			c-0.038,0.062-0.077,0.123-0.115,0.185c-0.168,0.274-0.333,0.549-0.495,0.826c-0.02,0.035-0.039,0.07-0.059,0.104
			c-0.043,0.074-0.085,0.149-0.128,0.224c-0.142,0.248-0.282,0.498-0.419,0.749c-0.047,0.087-0.095,0.174-0.142,0.261
			c-0.031,0.058-0.063,0.115-0.094,0.174c-0.138,0.259-0.272,0.519-0.405,0.78c-0.013,0.026-0.025,0.052-0.038,0.078
			c-0.112,0.222-0.223,0.445-0.33,0.668c-0.036,0.075-0.07,0.151-0.106,0.226c-0.043,0.092-0.086,0.183-0.129,0.275
			c-0.126,0.271-0.25,0.543-0.37,0.816c-0.026,0.059-0.053,0.119-0.079,0.178c-0.009,0.021-0.019,0.042-0.028,0.063
			c-0.133,0.306-0.26,0.613-0.385,0.921c-0.034,0.084-0.066,0.168-0.1,0.251c-0.058,0.146-0.117,0.291-0.173,0.438
			c-0.041,0.107-0.079,0.215-0.12,0.322c-0.04,0.105-0.079,0.21-0.117,0.316c-0.103,0.282-0.202,0.564-0.298,0.847
			c-0.019,0.055-0.039,0.111-0.058,0.166c-0.005,0.014-0.01,0.028-0.014,0.042c-0.11,0.329-0.214,0.659-0.313,0.989
			c-0.028,0.093-0.054,0.186-0.081,0.279c-0.055,0.187-0.112,0.374-0.164,0.561c-0.017,0.06-0.031,0.12-0.047,0.18
			c-0.042,0.154-0.081,0.309-0.121,0.463c-0.053,0.206-0.105,0.411-0.154,0.617c-0.037,0.157-0.073,0.313-0.108,0.47
			c-0.025,0.109-0.052,0.219-0.075,0.328c-0.031,0.148-0.061,0.296-0.09,0.443c-0.007,0.037-0.016,0.075-0.023,0.113
			c-0.064,0.328-0.121,0.656-0.174,0.983c-0.009,0.056-0.018,0.111-0.027,0.167c-0.041,0.261-0.079,0.523-0.113,0.783
			c-0.006,0.048-0.01,0.095-0.016,0.143c-0.014,0.111-0.025,0.221-0.038,0.331c-0.026,0.23-0.05,0.46-0.07,0.689
			c-0.01,0.119-0.02,0.238-0.029,0.356c-0.017,0.232-0.031,0.463-0.042,0.693c-0.005,0.104-0.012,0.209-0.015,0.313
			c-0.012,0.33-0.02,0.659-0.019,0.986c0.039,13.681,13.426,22.579,17.113,24.771l6.339,3.684
			c-3.687-2.192-17.074-11.09-17.113-24.771c-0.001-0.326,0.007-0.655,0.019-0.985c0.004-0.104,0.01-0.209,0.015-0.313
			c0.011-0.23,0.025-0.461,0.042-0.693c0.009-0.119,0.019-0.237,0.029-0.356c0.02-0.229,0.044-0.459,0.07-0.689
			c0.013-0.111,0.024-0.221,0.038-0.331c0.038-0.308,0.081-0.616,0.13-0.926c0.009-0.056,0.018-0.111,0.027-0.167
			c0.053-0.327,0.111-0.654,0.174-0.983c0.007-0.037,0.015-0.075,0.023-0.112c0.051-0.257,0.108-0.514,0.165-0.772
			c0.035-0.157,0.07-0.313,0.108-0.47c0.049-0.206,0.101-0.411,0.154-0.617c0.04-0.154,0.079-0.309,0.121-0.463
			c0.067-0.247,0.138-0.495,0.211-0.742c0.027-0.093,0.053-0.186,0.081-0.279c0.104-0.344,0.213-0.687,0.328-1.031
			c0.019-0.055,0.039-0.111,0.058-0.166c0.096-0.283,0.195-0.565,0.298-0.847c0.038-0.105,0.078-0.211,0.117-0.316
			c0.095-0.254,0.193-0.507,0.293-0.76c0.033-0.084,0.066-0.168,0.1-0.251c0.133-0.329,0.271-0.657,0.413-0.984
			c0.026-0.06,0.053-0.119,0.079-0.178c0.12-0.273,0.244-0.545,0.37-0.816c0.043-0.092,0.086-0.184,0.129-0.275
			c0.142-0.299,0.287-0.597,0.436-0.894c0.013-0.026,0.025-0.052,0.038-0.078c0.162-0.32,0.329-0.637,0.499-0.954
			c0.047-0.087,0.095-0.174,0.142-0.261c0.137-0.251,0.277-0.501,0.419-0.749c0.043-0.075,0.085-0.15,0.128-0.224
			c0.181-0.312,0.366-0.622,0.554-0.93c0.038-0.062,0.077-0.123,0.115-0.185c0.153-0.247,0.309-0.493,0.467-0.736
			c0.065-0.1,0.131-0.201,0.197-0.301c0.148-0.225,0.299-0.448,0.451-0.67c0.057-0.084,0.114-0.168,0.172-0.251
			c0.205-0.295,0.414-0.587,0.626-0.875c0.009-0.013,0.018-0.026,0.028-0.039c0.219-0.297,0.442-0.59,0.668-0.88
			c0.107-0.137,0.216-0.271,0.324-0.407c0.136-0.17,0.272-0.341,0.41-0.508c0.112-0.136,0.227-0.269,0.341-0.403
			c0.147-0.173,0.294-0.348,0.443-0.518c0.047-0.053,0.094-0.106,0.141-0.159c0.234-0.263,0.469-0.523,0.708-0.778
			c0.006-0.007,0.012-0.013,0.019-0.02c0.235-0.25,0.474-0.495,0.714-0.737c0.048-0.048,0.095-0.096,0.143-0.143
			c0.209-0.208,0.42-0.411,0.632-0.611c0.055-0.052,0.109-0.106,0.165-0.158c0.262-0.244,0.526-0.483,0.792-0.716
			c0.072-0.063,0.145-0.123,0.217-0.185c0.196-0.169,0.393-0.336,0.592-0.499c0.099-0.081,0.199-0.16,0.298-0.239
			c0.176-0.14,0.352-0.279,0.529-0.414c0.107-0.081,0.214-0.162,0.321-0.242c0.176-0.13,0.352-0.258,0.53-0.383
			c0.106-0.075,0.211-0.15,0.318-0.223c0.191-0.131,0.384-0.258,0.577-0.384c0.092-0.06,0.184-0.122,0.276-0.18
			c0.285-0.18,0.572-0.355,0.861-0.522c0.191-0.11,0.381-0.215,0.571-0.318c0.055-0.029,0.109-0.058,0.163-0.087
			c0.145-0.077,0.29-0.152,0.434-0.225c0.049-0.025,0.099-0.05,0.148-0.075c0.187-0.092,0.372-0.181,0.557-0.266
			c0.031-0.014,0.061-0.027,0.092-0.041c0.156-0.071,0.312-0.139,0.467-0.204c0.059-0.025,0.118-0.049,0.177-0.074
			c0.108-0.044,0.215-0.087,0.322-0.128c0.06-0.023,0.12-0.047,0.18-0.07c0.119-0.045,0.238-0.087,0.356-0.129
			c0.045-0.016,0.091-0.033,0.137-0.049c0.163-0.056,0.325-0.109,0.487-0.159c0.03-0.009,0.06-0.018,0.09-0.027
			c0.131-0.04,0.262-0.078,0.392-0.114c0.036-0.01,0.072-0.019,0.109-0.029c0.242-0.065,0.482-0.124,0.72-0.175
			c0.019-0.004,0.038-0.008,0.058-0.012c0.247-0.052,0.492-0.098,0.734-0.135c0.003-0.001,0.006-0.001,0.009-0.002
			c0.203-0.031,0.405-0.056,0.605-0.077c0.039-0.004,0.079-0.008,0.118-0.012c0.193-0.019,0.385-0.033,0.575-0.042
			c0.037-0.002,0.074-0.003,0.111-0.004c0.154-0.006,0.306-0.009,0.458-0.008c0.033,0,0.066-0.001,0.099,0
			c0.173,0.002,0.344,0.008,0.513,0.018c0.04,0.002,0.079,0.005,0.119,0.008c0.134,0.01,0.267,0.021,0.399,0.036
			c0.036,0.004,0.072,0.007,0.107,0.012c0.159,0.019,0.316,0.042,0.471,0.068c0.035,0.006,0.069,0.013,0.103,0.019
			c0.123,0.022,0.244,0.047,0.365,0.074c0.041,0.009,0.081,0.018,0.122,0.027c0.149,0.035,0.296,0.073,0.442,0.115
			c0.012,0.003,0.024,0.008,0.036,0.011c0.133,0.039,0.265,0.082,0.395,0.127c0.04,0.014,0.08,0.028,0.12,0.042
			c0.116,0.042,0.23,0.086,0.343,0.132c0.026,0.011,0.053,0.021,0.08,0.032c0.137,0.058,0.272,0.119,0.405,0.183
			c0.033,0.016,0.065,0.033,0.098,0.049c0.106,0.053,0.211,0.108,0.314,0.165c0.054,0.03,0.109,0.059,0.163,0.09L298.492,169.35z"/>
		<g>
			
				<radialGradient id="SVGID_00000158710520042899449490000013380878156957415567_" cx="292.575" cy="233.0581" r="72.2615" gradientUnits="userSpaceOnUse">
				<stop  offset="0" style="stop-color:#EC35FB"/>
				<stop  offset="0.4089" style="stop-color:#A155F2"/>
				<stop  offset="0.8124" style="stop-color:#5C73E9"/>
				<stop  offset="1" style="stop-color:#417EE6"/>
			</radialGradient>
			<path style="fill:url(#SVGID_00000158710520042899449490000013380878156957415567_);" d="M292.065,174.284
				c9.909-5.721,17.968-1.127,18.001,10.26c0.039,13.603-13.26,37.972-16.92,44.418c-0.254,0.447-0.59,0.791-0.926,0.986
				c-0.336,0.194-0.672,0.238-0.927,0.086c-3.687-2.192-17.074-11.09-17.113-24.771
				C274.147,193.876,282.154,180.005,292.065,174.284z M301.765,189.699c0.157-6.388-4.241-9.017-9.673-5.881
				c-0.105,0.061-0.21,0.123-0.316,0.188c-5.051,3.101-9.15,10.201-9.296,16.1c-0.157,6.388,4.241,9.017,9.675,5.88
				c0.105-0.06,0.21-0.123,0.316-0.188C297.52,202.697,301.619,195.596,301.765,189.699L301.765,189.699z"/>
		</g>
	</g>
</g>
<g>
	<g>
		<g>
			<g>
				
					<radialGradient id="SVGID_00000112626297257410342070000007146784289486679198_" cx="291.9057" cy="125.0318" r="133.1062" gradientUnits="userSpaceOnUse">
					<stop  offset="0" style="stop-color:#9CF5FE"/>
					<stop  offset="0.2511" style="stop-color:#99F2FE"/>
					<stop  offset="0.4394" style="stop-color:#8FE9FD"/>
					<stop  offset="0.6073" style="stop-color:#7FD9FD"/>
					<stop  offset="0.7631" style="stop-color:#69C3FC"/>
					<stop  offset="0.9095" style="stop-color:#4BA6FA"/>
					<stop  offset="0.9411" style="stop-color:#449FFA"/>
				</radialGradient>
				<path style="fill:url(#SVGID_00000112626297257410342070000007146784289486679198_);" d="M295.148,110.376
					c1.064-0.421,6.314-3.526,4.763-8.996c-1.551-5.47-7.941-3.222-9.777-2.343c-1.836,0.879-1.233,1.133-5.251,2.173
					c-4.017,1.04-5.183,0.378-10.757,1.499c-5.574,1.121-8.975,0.903-8.975,0.903c4.913-3.531,7.891-10.081,6.821-13.124
					c-1.07-3.043-6.533-2.489-8.634-0.507c-2.101,1.982-7.148,6.369-9.569,6.91c-2.421,0.541-7.65,2.66-7.65,2.66
					s-0.406-2.981-3.392-3.516c-2.986-0.535-5.511,1.566-6.528,3.182c-1.017,1.617-4.959,3.003-4.959,3.003
					c-1.915,1.885-2.693,3.26-6.033,4.523c-1.674,0.633-4.242,0.629-7.417,1.871c-9.51,3.718-7.269,6.909-10.248,8.693
					c-2.979,1.784-7.643,4.937-7.643,4.937c-10.965,15.352-27.967,30.913-41.283,41.979c14.75,10.081,27.353,32.173,29.368,52.786
					c0.124,1.271,0.193,2.5,0.233,3.706c11.892-4.318,22.816-3.521,30.808-5.714c11.34-3.112,27.057-18.352,27.057-18.352
					c7.122-1.759,7.947-2.329,11.683-4.342c3.735-2.014,20.181-6.352,24.628-6.751c4.447-0.398,9.314-1.318,10.895-4.118
					c2.409-4.266-0.475-9.293-0.475-9.293s1.395,0.255,3.821-1.997c2.425-2.252,0.437-7.242-4.235-14.691
					c-4.672-7.449-6.611-21.27-10.307-23.824c-3.696-2.555-14.643-9.46-14.643-9.46c6.255-1.174,16.582-6.019,19.638-7.141
					C290.142,113.909,294.084,110.798,295.148,110.376z M269.659,148.253c0.922,5.271,5.613,10.833,6.653,12.022
					c1.04,1.189,2.653,4.538,2.653,4.538c-0.874-0.143-4.365,0.494-4.365,0.494c-8.408,2.212-12.021,1.617-15.707,0.815
					c-3.686-0.802-10.711-7.517-8.055-10.969c2.656-3.452,3.272-11.643,3.272-11.643c0.89,0.806,5.649,0.018,5.649,0.018
					C261.071,146.331,269.659,148.253,269.659,148.253z"/>
				<g>
					<g>
						<g>
							<path style="fill:#4B95FA;" d="M218.622,211.068c6.842-2.416,21.64-13.353,27.46-14.42c0,0-15.716,15.24-27.056,18.352
								c-6.057,1.662-13.798,1.604-22.367,3.357l3.5-5.484C200.158,212.873,211.78,213.484,218.622,211.068z"/>
						</g>
					</g>
				</g>
				<g>
					<g>
						<g>
							<path style="fill:#67E2E8;" d="M261.135,144.986c-0.64-0.451-1.134-0.939-1.376-1.457c0,0-0.282,0.046-0.717,0.105
								c4.42-1.329,6.87-6.606,6.87-6.606C266.201,141.025,261.146,144.977,261.135,144.986z"/>
						</g>
					</g>
				</g>
				<g>
					<g>
						<g>
							<path style="fill:#67E2E8;" d="M254.11,143.51c0,0-0.086,1.134-0.329,2.735l0,0c-1.198-4.374,0.372-10.303,0.372-10.303
								c-0.317,2.673,1.267,7.903,1.27,7.914C254.827,143.818,254.34,143.717,254.11,143.51z"/>
						</g>
					</g>
				</g>
				<g>
					<g>
						<g>
							<path style="fill:#67E2E8;" d="M270.063,149.882c-0.167-0.543-0.309-1.088-0.404-1.63c0,0-0.745-0.169-1.818-0.472
								c0.028,0,7.193-0.103,12.273-4.318C280.114,143.464,277.126,147.722,270.063,149.882z"/>
						</g>
					</g>
				</g>
				<g>
					<g style="opacity:0.52;">
						<g>
							<g>
								<path style="fill:#E28C61;" d="M277.691,164.851c-0.805,0.171-1.416,0.247-1.87,0.25
									C276.398,165.011,277.086,164.913,277.691,164.851z"/>
							</g>
						</g>
					</g>
					<g>
						<g>
							<g>
								<path style="fill:#67E2E8;" d="M277.205,161.551c0,0,13.733,4.584,15.608,10.593l0,0c-3.229-4.238-8.025-6.942-13.334-7.388
									l-0.564-0.047C278.721,164.314,277.965,162.79,277.205,161.551L277.205,161.551z"/>
							</g>
						</g>
					</g>
				</g>
				<g>
					<g>
						<g>
							<path style="fill:#67E2E8;" d="M271.327,121.171c0,0-21.458-8.235-23.928-8.982l20.05,9.983L271.327,121.171z"/>
						</g>
					</g>
				</g>
				<g>
					<g>
						<g>
							<path style="fill:#67E2E8;" d="M269.39,99.234c-1.138,1.636-2.574,3.182-4.239,4.378c0,0,1.527,0.088,4.168-0.176l0,0.006
								l-8.246,1.045C266.049,103.29,268.694,100.165,269.39,99.234z"/>
						</g>
					</g>
				</g>
				<g>
					<g>
						<g>
							<path style="fill:#67E2E8;" d="M244.961,100.331c1.238-0.601,0.614-2.168,0.459-2.513c0.567,0.877,0.699,1.732,0.699,1.732
								s1.111-0.45,2.542-0.986C247.54,98.98,244.961,100.331,244.961,100.331z"/>
						</g>
					</g>
				</g>
				<g>
					<g>
						<g>
							<path style="fill:#67E2E8;" d="M292.813,172.143c0,0-7.019-8.977-18.758-6.696c0,0,4.989-1.347,6.827-1.309
								c0.982,0.02,3.966,1.414,6.314,2.835c2.046,1.238,3.553,2.53,3.553,2.53L292.813,172.143z"/>
						</g>
					</g>
				</g>
			</g>
			<g>
				<g>
					<g>
						<path style="fill:#4B95FA;" d="M192.706,171.97c0,0,18.739,20.948,12.241,41.558l-8.186-0.074L192.706,171.97z"/>
					</g>
				</g>
			</g>
			<path style="fill:#FFFFFF;" d="M172.7,152.377c-6.349-2.883-11.896-2.569-16.044,0.281l-0.006-0.01l-9.143,6.551
				c1.77,0.37,3.61,0.965,5.521,1.832c17.04,7.736,32.691,32.798,34.956,55.976c0.583,5.969,0.213,11.221-0.937,15.611l9.282-6.65
				l-0.003-0.004c5.463-4.012,8.367-12.579,7.234-24.17C201.561,181.332,187.744,159.207,172.7,152.377z"/>
		</g>
	</g>
	<g>
		<g>
			<g>
				<g>
					
						<linearGradient id="SVGID_00000154402765020965565770000003376042844464124056_" gradientUnits="userSpaceOnUse" x1="198.7131" y1="166.0783" x2="274.3384" y2="224.3847" gradientTransform="matrix(-1 0 0 1 402.3122 0)">
						<stop  offset="0" style="stop-color:#3874DA"/>
						<stop  offset="1" style="stop-color:#2A023F"/>
					</linearGradient>
					<path style="fill:url(#SVGID_00000154402765020965565770000003376042844464124056_);" d="M75.255,205.077l-0.002-0.003
						l0.037-0.027c0.037-0.028,0.075-0.053,0.112-0.08l59.446-43.628l0.006,0.012c4.698-3.229,10.982-3.584,18.173-0.319
						c17.04,7.736,32.691,32.798,34.956,55.976c1.283,13.129-2.006,22.832-8.194,27.377l0.003,0.005l-58.861,43.2
						c-0.048,0.036-0.098,0.069-0.146,0.105l-0.522,0.374l-0.006-0.011c-4.685,3.15-10.921,3.469-18.049,0.233
						c-17.041-7.736-32.691-32.797-34.957-55.976C65.983,219.321,69.19,209.68,75.255,205.077z"/>
				</g>
			</g>
		</g>
	</g>
</g>
<g>
	<g style="opacity:0.4;">
		<polygon style="fill:#4B95FA;" points="183.411,84.647 183.411,94.809 174.843,89.728 		"/>
		<polygon style="fill:#4B95FA;" points="199.108,94.809 199.108,84.647 207.676,89.728 		"/>
	</g>
	<g>
		<polygon style="fill:#81DAFE;" points="186.178,97.577 196.34,97.577 191.259,106.145 		"/>
		<polygon style="opacity:0.4;fill:#4B95FA;" points="196.34,81.879 186.178,81.879 191.259,73.311 		"/>
	</g>
</g>
<path style="opacity:0.5;fill:#1C012D;" d="M295.968,239.621c3.493,8.365,18.13,39.887,46.395,56.206
	c23.658,13.659,54.864,17.788,69.701,9.221c14.837-8.566,7.686-26.583-15.972-40.242c-28.424-16.411-82.889-24.793-97.354-26.79
	C296.734,237.74,295.485,238.464,295.968,239.621z M384.416,272.418c11.816,7.101,15.478,16.327,8.301,20.915
	c-7.925,5.066-25.63,2.724-38.678-5.117c-11.816-7.101-15.478-16.327-8.301-20.915C353.663,262.235,371.368,264.578,384.416,272.418
	z"/>
<g>
	<g>
		<path style="fill:#81DAFE;" d="M295.535,234.666c0.333,0.582,0.132,1.324-0.45,1.658c-0.582,0.333-1.324,0.132-1.657-0.45
			s-0.132-1.324,0.45-1.657C294.46,233.883,295.202,234.085,295.535,234.666z"/>
		<path style="opacity:0.8;fill:#81DAFE;" d="M298.933,232.72c0.333,0.582,0.132,1.324-0.45,1.657
			c-0.582,0.333-1.324,0.132-1.657-0.45c-0.333-0.582-0.132-1.324,0.45-1.657C297.857,231.936,298.599,232.138,298.933,232.72z"/>
		<path style="opacity:0.6;fill:#81DAFE;" d="M302.33,230.773c0.333,0.582,0.132,1.324-0.45,1.657
			c-0.582,0.333-1.324,0.132-1.657-0.45c-0.333-0.582-0.132-1.324,0.45-1.657C301.255,229.99,301.997,230.191,302.33,230.773z"/>
		<path style="opacity:0.4;fill:#81DAFE;" d="M305.728,228.826c0.333,0.582,0.132,1.324-0.45,1.657
			c-0.582,0.333-1.324,0.132-1.657-0.45c-0.334-0.582-0.132-1.324,0.45-1.657C304.652,228.043,305.394,228.244,305.728,228.826z"/>
		<path style="opacity:0.2;fill:#81DAFE;" d="M309.125,226.88c0.333,0.582,0.132,1.324-0.45,1.657
			c-0.582,0.333-1.324,0.132-1.657-0.45c-0.333-0.582-0.132-1.324,0.45-1.657C308.05,226.096,308.792,226.298,309.125,226.88z"/>
	</g>
	<g>
		<path style="fill:#81DAFE;" d="M293.428,235.874c0.333,0.582,1.076,0.783,1.657,0.45c0.582-0.333,0.783-1.076,0.45-1.658
			c-0.333-0.582-1.076-0.783-1.657-0.45C293.296,234.55,293.094,235.292,293.428,235.874z"/>
		<path style="opacity:0.8;fill:#81DAFE;" d="M290.03,237.821c0.334,0.582,1.076,0.783,1.657,0.45
			c0.582-0.333,0.783-1.076,0.45-1.657c-0.333-0.582-1.076-0.783-1.657-0.45C289.898,236.497,289.697,237.239,290.03,237.821z"/>
		<path style="opacity:0.6;fill:#81DAFE;" d="M286.633,239.767c0.333,0.582,1.076,0.783,1.657,0.45
			c0.582-0.333,0.783-1.076,0.45-1.657c-0.333-0.582-1.076-0.783-1.657-0.45C286.501,238.443,286.299,239.185,286.633,239.767z"/>
		<path style="opacity:0.4;fill:#81DAFE;" d="M283.235,241.714c0.333,0.582,1.075,0.783,1.657,0.45
			c0.582-0.333,0.783-1.076,0.45-1.657c-0.333-0.582-1.075-0.783-1.657-0.45C283.103,240.39,282.901,241.132,283.235,241.714z"/>
		<path style="opacity:0.2;fill:#81DAFE;" d="M279.837,243.661c0.333,0.582,1.076,0.783,1.657,0.45
			c0.582-0.333,0.783-1.076,0.45-1.657c-0.333-0.582-1.075-0.783-1.657-0.45C279.705,242.337,279.504,243.079,279.837,243.661z"/>
	</g>
</g>
<g>
	<g>
		<path style="fill:#81DAFE;" d="M296.483,310.365c-0.603,0.348-1.579,0.348-2.182,0c-0.602-0.348-0.602-0.912,0-1.26
			c0.602-0.348,1.579-0.348,2.182,0C297.085,309.453,297.085,310.017,296.483,310.365z"/>
		<path style="opacity:0.8;fill:#81DAFE;" d="M300,312.396c-0.602,0.348-1.579,0.348-2.182,0c-0.603-0.348-0.603-0.912,0-1.26
			c0.603-0.348,1.579-0.348,2.182,0C300.603,311.484,300.603,312.048,300,312.396z"/>
		<path style="opacity:0.6;fill:#81DAFE;" d="M303.518,314.427c-0.602,0.348-1.579,0.348-2.182,0c-0.602-0.348-0.603-0.912,0-1.26
			c0.602-0.348,1.579-0.348,2.182,0C304.12,313.515,304.12,314.079,303.518,314.427z"/>
		<path style="opacity:0.4;fill:#81DAFE;" d="M307.035,316.458c-0.603,0.348-1.579,0.348-2.182,0c-0.603-0.348-0.603-0.912,0-1.26
			c0.603-0.348,1.579-0.348,2.182,0C307.638,315.546,307.638,316.11,307.035,316.458z"/>
		<path style="opacity:0.2;fill:#81DAFE;" d="M310.553,318.489c-0.603,0.348-1.579,0.348-2.182,0c-0.602-0.348-0.602-0.912,0-1.26
			c0.603-0.348,1.579-0.348,2.182,0C311.155,317.577,311.155,318.141,310.553,318.489z"/>
	</g>
	<g>
		<path style="fill:#81DAFE;" d="M305.343,305.25c-0.603,0.348-1.579,0.348-2.182,0c-0.602-0.348-0.602-0.912,0-1.26
			c0.602-0.348,1.579-0.348,2.182,0C305.945,304.338,305.946,304.902,305.343,305.25z"/>
		<path style="opacity:0.8;fill:#81DAFE;" d="M308.861,307.28c-0.602,0.348-1.579,0.348-2.182,0c-0.603-0.348-0.603-0.912,0-1.26
			c0.603-0.348,1.579-0.348,2.182,0C309.463,306.369,309.463,306.933,308.861,307.28z"/>
		<path style="opacity:0.6;fill:#81DAFE;" d="M312.378,309.311c-0.602,0.348-1.579,0.348-2.182,0c-0.603-0.348-0.603-0.912,0-1.26
			c0.603-0.348,1.579-0.348,2.182,0C312.981,308.4,312.981,308.964,312.378,309.311z"/>
		<path style="opacity:0.4;fill:#81DAFE;" d="M315.896,311.342c-0.603,0.348-1.579,0.348-2.182,0c-0.603-0.348-0.603-0.912,0-1.26
			c0.602-0.348,1.579-0.348,2.182,0C316.498,310.43,316.499,310.994,315.896,311.342z"/>
		<path style="opacity:0.2;fill:#81DAFE;" d="M319.414,313.373c-0.603,0.348-1.579,0.348-2.182,0c-0.603-0.348-0.603-0.912,0-1.26
			c0.602-0.348,1.579-0.348,2.182,0C320.016,312.461,320.016,313.025,319.414,313.373z"/>
	</g>
</g>
<g>
	<g>
		<path style="fill:#81DAFE;" d="M323.753,174.777c-0.603,0.348-1.579,0.348-2.182,0c-0.603-0.348-0.603-0.912,0-1.26
			c0.602-0.348,1.579-0.348,2.182,0C324.355,173.865,324.355,174.429,323.753,174.777z"/>
		<path style="opacity:0.8;fill:#81DAFE;" d="M327.27,176.808c-0.602,0.348-1.579,0.348-2.182,0c-0.602-0.348-0.602-0.912,0-1.26
			c0.603-0.348,1.579-0.348,2.182,0C327.873,175.896,327.873,176.46,327.27,176.808z"/>
		<path style="opacity:0.6;fill:#81DAFE;" d="M330.788,178.839c-0.602,0.348-1.579,0.348-2.182,0c-0.603-0.348-0.603-0.912,0-1.26
			c0.603-0.348,1.579-0.348,2.182,0C331.391,177.927,331.391,178.491,330.788,178.839z"/>
		<path style="opacity:0.4;fill:#81DAFE;" d="M334.306,180.87c-0.603,0.348-1.579,0.348-2.182,0c-0.603-0.348-0.603-0.912,0-1.26
			c0.602-0.348,1.579-0.348,2.182,0C334.908,179.958,334.908,180.522,334.306,180.87z"/>
		<path style="opacity:0.2;fill:#81DAFE;" d="M337.823,182.9c-0.603,0.348-1.579,0.348-2.182,0c-0.603-0.348-0.603-0.912,0-1.26
			c0.602-0.348,1.579-0.348,2.182,0C338.426,181.989,338.426,182.553,337.823,182.9z"/>
	</g>
	<g>
		<path style="fill:#81DAFE;" d="M332.613,169.661c-0.603,0.348-1.579,0.348-2.182,0c-0.603-0.348-0.603-0.912,0-1.26
			c0.602-0.348,1.579-0.348,2.182,0C333.216,168.749,333.216,169.313,332.613,169.661z"/>
		<path style="opacity:0.8;fill:#81DAFE;" d="M336.131,171.692c-0.602,0.348-1.579,0.348-2.182,0c-0.602-0.348-0.602-0.912,0-1.26
			c0.603-0.348,1.579-0.348,2.182,0C336.733,170.78,336.733,171.344,336.131,171.692z"/>
		<path style="opacity:0.6;fill:#81DAFE;" d="M339.649,173.723c-0.603,0.348-1.579,0.348-2.182,0c-0.602-0.348-0.602-0.912,0-1.26
			c0.603-0.348,1.579-0.348,2.182,0C340.251,172.811,340.251,173.375,339.649,173.723z"/>
		<path style="opacity:0.4;fill:#81DAFE;" d="M343.166,175.754c-0.602,0.348-1.579,0.348-2.182,0c-0.603-0.348-0.603-0.912,0-1.26
			c0.603-0.348,1.579-0.348,2.182,0C343.769,174.842,343.769,175.406,343.166,175.754z"/>
		<path style="opacity:0.2;fill:#81DAFE;" d="M346.684,177.785c-0.602,0.348-1.579,0.348-2.182,0c-0.603-0.348-0.603-0.912,0-1.26
			c0.603-0.348,1.579-0.348,2.182,0C347.286,176.873,347.286,177.437,346.684,177.785z"/>
	</g>
</g>
<g>
	<g>
		<path style="fill:#81DAFE;" d="M415.62,179.038c0,1.818-1.474,3.292-3.292,3.292c-1.818,0-3.292-1.474-3.292-3.292
			c0-1.818,1.474-3.292,3.292-3.292C414.147,175.746,415.62,177.22,415.62,179.038z"/>
		<path style="fill:#81DAFE;" d="M430.558,179.038c0,1.818-1.474,3.292-3.292,3.292c-1.818,0-3.292-1.474-3.292-3.292
			c0-1.818,1.474-3.292,3.292-3.292C429.084,175.746,430.558,177.22,430.558,179.038z"/>
	</g>
	<circle style="fill:#4B95FA;" cx="419.798" cy="167.475" r="3.292"/>
</g>
</svg>
