<?xml version="1.0" encoding="utf-8"?>
<!-- Generator: Adobe Illustrator 27.5.0, SVG Export Plug-In . SVG Version: 6.00 Build 0)  -->
<svg version="1.1" id="Capa_1" xmlns="http://www.w3.org/2000/svg" xmlns:xlink="http://www.w3.org/1999/xlink" x="0px" y="0px"
	 viewBox="0 0 2496 1804" style="enable-background:new 0 0 2496 1804;" xml:space="preserve">
<rect x="1.135" style="fill:#61CAE5;" width="2494.001" height="1803.364"/>
<g style="opacity:0.5;">
	<path style="fill:#FFFFFF;" d="M273.03,456.913c-8.905,0.301-17.626,2.57-27.637,7.126c0,0-33.802,19.741-34.363,20.076
		c-6.636,3.862-13.225,7.876-19.815,11.824c9.237,2.667,18.417,5.111,27.218,9.077c-6.12,1.255-12.01,3.805-16.457,7.954
		c12.859,8.962,29.797,14.113,11.048,30.052c-11.643,9.913-15.873,3.32-22.399,18.792c-6.114,14.549-3.386,23.906,8.83,32.865
		l5.238,3.578l-0.814,10.174l-4.687,6.051c0,0,22.818-9.08,23.654-10.177c0.825-1.091,8.75-8.762,10.698-10.44
		c7.827-6.716,16.05-14.01,22.571-21.964c3.576,4.429,8.114,8.704,13.478,11.2c3.747-14.612,18.267-4.008,22.588-14.514
		c21.098,8.102,39.056,2.123,54.883,22.264c11.357,14.46,13.672,34.054,23.069,49.741c22.554,37.573,47.864,33.893,36.971,84.726
		c-0.814,3.857-1.089,6.604-1.089,9.905c0,3.301,4.859,29.977,4.859,29.977l8.881,6.601c0,0,3.301,11.555,3.301,14.575
		c0,3.028-0.538,9.354,4.963,11.555c5.501,2.2,11.54,4.951,12.652,5.77c1.1,0.828,5.22,6.876,5.501,9.908
		c0.275,3.028,2.2,12.652,2.2,12.652l13.202,13.746l3.014,6.326l4.137,4.129c0,0,2.2,6.598,2.481,7.42
		c0.258,0.831,4.12,9.629,4.939,9.905c0.819,0.281,9.615,10.727,9.615,10.727l6.893,1.103l-11.014-14.849l-1.1-7.154l-3.839-5.776
		l-5.495-8.529l-3.323-8.799l-5.221-5.498l-1.919-11.283l2.75-12.649l3.032-3.301c0,0,1.638,24.754,17.316,42.626
		c15.672,17.884,23.654,26.413,23.654,26.413l7.432,15.125c0,0-0.556,12.377,0,13.486c0.544,1.097,1.106,9.896,2.481,11.552
		c1.364,1.639,7.954,4.945,7.954,4.945l4.687-1.106l6.59,4.682c0,0,5.781,1.381,7.713,1.1c1.925-0.281,3.025-1.307,4.711,0.075
		c13.947,11.065,33.275,19.545,51.101,14.778c-1.077,4,0.997,8.882,0.023,12.922c8.114,4.211,15.769,9.007,25.133,6.251
		c5.592,11.031,22.725,24.697,25.751,35.275l1.375,4.813c0,0,2.063,1.937,2.476,2.2c0.401,0.275,6.32,0,6.32,0l8.401-0.544
		c0,0,4.532-1.513,4.658-1.931c0.137-0.401,3.438-4.808,3.438-4.808l3.301-2.194l3.438,2.063l1.381,3.856l4.676,6.177
		c0,0,1.794,6.04,1.794,6.458s-0.412,14.039,0,14.44c0.401,0.418-0.412,6.876-1.112,7.839c-0.682,0.974-4.939,4.687-6.177,6.051
		c-1.243,1.381-8.538,4.126-9.088,5.501c-0.527,1.381-3.994,4.957-4.114,5.914c-0.138,0.963-1.651,5.501-2.338,7.564
		c-0.699,2.057-0.974,8.395-0.974,8.395l1.662,5.22c0,0,3.988,0,3.432,11.277c-0.556,11.277-0.556,17.609-0.556,17.609l7.437,9.34
		l0.814,8.537c0,0,2.762,5.776,4.126,8.24c1.375,2.476,9.077,11.008,9.077,11.008l5.513,7.14c0,0,5.764,14.314,6.314,15.139
		c0.55,0.819,2.212,3.576,10.458,9.351c8.245,5.782,23.654,19.242,21.459,43.733c-2.2,24.468-2.762,29.705-2.762,29.705
		l-0.539,17.316v13.477l-1.387,8.813c0,0-1.651,8.24-1.651,8.257c7.071,32.129-17.247,61.479-4.71,91.929
		c1.134-1.037-6.682,2.074-6.808,2.155c12.217,18.806-2.934,30.461-4.022,48.792c-1.977,33.361,25.098,50.975,49.101,68.338
		l8.521,2.745l-4.114-9.083l8.234-0.264l3.043-4.395c0,0-0.843-3.857-1.662-4.418c-0.825-0.539-12.377-9.076-12.377-9.076
		l-4.951-5.765c0,0-1.364-7.696-1.364-9.397c-0.252-22.29,12.916-83.322,31.172-98.977c0.321-2.601,0.378-9.019,1.983-11.265
		c22.881,0.883,38.851-13.042,33.442-35.705c4.721,19.803,41.142-40.443,41.922-42.139c10.096-22.37,15.747-48.397,46.185-48.397
		c0.401,0,5.776-1.65,7.14-10.87c1.387-9.203,9.22-10.314,9.22-10.314l2.619-14.561c0,0,2.876-4.538,2.876-5.512
		c0-0.963,0-7.02,0-7.02s-1.1-16.354,11.277-35.745c12.377-19.379,19.253-32.312,14.176-43.732
		c-4.756-10.641-16.423-7.301-17.982-6.802c6.693-2.149-19.414-16.262-18.531-15.729c-11.667-6.893-43.893-17.385-58-17.185
		c0.641-25.402-13.936-35.08-30.892-45.365c-12.245-7.421-27.339-10.55-39.83-18.279c-10.761-6.659-2.304-27.213-23.041-13.26
		h-12.646l-9.071-1.513l-6.338-7.965l-11.535,2.195l-1.937,3.581l-4.401-11.552l-2.739-0.562l-2.762,6.876l-9.902,0.281l-9.071,7.42
		l-8.933,9.913l-5.237-0.963l-5.627-2.475l-11.552,2.321l-11.276-2.063l-8.538-7.552c0,0-0.132-18.297,0-26.399
		c0.143-8.114-1.914-11.008-8.103-13.483c-6.2-2.47-26.691,0.831-26.691,0.831l4.407-10.033l3.856-5.639l2.481-7.845v-3.438
		l0.676-4.134l4.544-3.16l1.094-4.676c0,0-4.532-5.911-11.695-5.22c-7.14,0.682-14.016,1.919-14.715,8.38
		c-0.677,6.472-1.777,11.291-1.777,11.291l-3.845,4.401l-5.907,3.977l-10.188,0.825l-5.226-3.025c0,0-14.165-12.097-15.546-17.469
		c-1.375-5.361-2.475-16.225-2.475-16.778c0-0.541,0.693-9.486,0.831-9.896c0.137-0.41,4.126-7.836,4.126-7.836l1.645-17.334
		c0,0,14.17-7.561,14.308-13.747l15.116-0.14l2.074,3.85l10.721,0.41l5.632-0.819l2.762-7.839l4.802-3.579h9.913l5.363,3.438
		c0,0,7.839,4.539,8.263,4.679c0.39,0.131,6.029,2.47,6.029,2.47s3.444,26.41,12.801,28.611c0.035,0.005,0.074,0.014,0.12,0.031
		c19.752,4.584-0.281-33.767,2.206-42.039c5.215-17.443,28.135-23.545,37.481-38.152c5.764-9.013,3.232-20.889,10.75-30.708
		c7.295-9.529,18.016-7.017,26.703-18.247c8.509-11.002,9.621-32.823,28.794-15.108l5.272-5.06l8.658-4.848l11.649-5.361
		l7.942-2.166l3.61-6.908l-8.561,0.716l-5.57,0.522l-3.289-3.097l-12.996-1.031l-3.719-5.779l-0.407-2.679l5.054-3.607
		c0,0,1.639-11.139-4.762-10.827c-6.378,0.309-14.131,4.948-14.131,4.948l-7.89,3.888l-9.776,0.413c0,0-5.902-2.622-4.263-5.919
		c1.651-3.3,16.377-1.648,16.377-1.648s11.409-12.239,17.174-12.518c5.782-0.269,37,1.659,37,1.659l7.844-2.068l16.211-8.661
		l0.424-18.571l-2.063-2.611l0.263-9.208l-15.254-2.344l-12.377-13.477l-0.424-14.027l-12.091-13.334l-0.137-10.727
		c0,0-5.913-4.129-8.12,2.928c-5.713,18.417,1.874,18.672-21.448,19.803c-1.135-9.148,1.593-27.619-10.074-28.37
		c2.756,0.177-3.599-9.767-4.286-10.372c-3.977-3.398-10.102,0.241-13.947-1.713c-8.721-4.43-9.724-0.307-8.962-13.216l-8.526,0.277
		l-2.876,3.57l1.501,5.367c0,0,0,6.738-0.825,7.558c-0.814,0.831-5.632,6.606-5.632,6.606s-1.381,4.401-1.519,5.22
		c-0.126,0.831-6.177,20.494-4.12,27.092s5.919,7.979,6.051,9.899c0.131,1.925,0.544,10.595,0.544,10.595l-5.638,3.57l-7.014,3.166
		l-0.55,2.47l-3.151,26.269l-6.057,7.701l-4.819-2.888l-7.977-9.209c0,0-1.776-25.851-3.839-27.373
		c-2.063-1.51-29.292-1.369-29.292-1.369s-0.699-11.827-2.762-13.065c-2.063-1.24-25.144-0.831-25.144-0.831l-2.217-2.61
		c0,0,1.37-5.913,1.513-6.326c0.143-0.41,1.782-5.501,1.782-5.501l-8.234-0.138c0,0-5.782-8.248-3.719-9.348
		c2.057-1.097,9.214-4.816,9.214-11.693c0-6.87,4.114-11.69,4.114-11.69l7.563-4.807l7.57-4.816c0,0,1.644-4.813-5.094-6.326
		c-6.738-1.513-3.289-4.953-3.289-4.953s23.643,4.819,29.705-1.507c6.057-6.329,14.852-14.856,14.852-14.856l3.014-9.626
		l0.831,6.189l-8.532,12.515l-1.238,5.369l2.768,6.048l3.02,3.848l2.733,1.237l6.618-6.876l3.702-0.272
		c0,0-9.34,10.037-7.558,12.787c1.782,2.751,7.014,0.82,7.014,0.82l3.582-3.707h7.552l2.624-0.688l-7.014-4.123l17.053-2.338
		l1.639-3.988l-7.003-2.197l-6.75-0.421c0,0,3.174-6.186,0-10.308c-3.163-4.129-5.215-7.155-5.215-7.155l-3.306-1.513l0.275-3.157
		l8.12-2.209l5.639-2.879l-0.287-11.146l5.089-13.615l-3.019-1.65l-11.42-5.08l-5.077-0.141l-1.651,13.337l-7.283,3.438
		c0,0-4.407,2.341-4.544,2.751c-0.138,0.415-2.756,4.816-2.756,4.816l-2.757-2.206c0,0-1.146-7.163-1.22-7.667
		c-0.361-2.224-0.905-4.45-1.553-6.584c-9.495-3.702-13.632-11.819-25.247-8.403c-9.913,2.91-18.462,16.634-20.651,26.029
		c-11.443-13.855,13.134-29.714,26.399-27.158c1.713,0.332-10.434-33.559,5.496-33.559c0.842,0,6.876,0,6.876,0l2.625,2.197
		l2.2-2.197l3.289-7.017l0.55-4.81l-7.558-0.822l-4.819-1.238l-1.226-4.948c0,0,7.278-7.427,6.045-9.908
		c-1.243-2.473-20.21-1.51-20.21-1.51s-1.782,10.317-0.55,15.815c1.243,5.498-2.613,12.924-2.613,12.924l-4.401,5.358
		c0,0,6.04,5.369,7.014,7.292c0.963,1.928-4.137,8.523-7.151,9.214c-3.026,0.691,2.338-7.836,2.338-7.836l-5.237-6.739
		c0,0-1.501-6.048,5.913-12.515c0,0-5.214-11.277-18.147-6.189c-12.922,5.089-12.784,12.796-12.784,12.796l-3.152,6.458l7.002,8.245
		c0,0,2.332,4.269,2.751,4.542c0.413,0.278,6.04,1.097,6.04,1.097l4.137,2.621l0.138,6.048l-4.401,3.848l-4.951,0.69l-5.919,4.401
		c0,0-2.2,4.398-2.2,4.945c0,0.553,0,6.47,0,6.47l-4.681,3.71l-9.753,2.478c0,0-6.2-0.275-6.601-0.55
		c-0.412-0.281-3.129-1.928-3.341-2.2c-0.235-0.281-14.331-6.948-14.331-6.948l-5.776-4.329c0,0,5.57,0.409,8.458,1.238
		c2.888,0.822,10.497,3.091,11.649,3.091c1.146,0,7.943-3.507,7.943-3.507l3.094-3.711l-0.395-4.538l9.477,0.41l5.776-7.836
		l-14.234-3.301l-7.638,1.647c0,0,1.461-3.917,2.275-7.836c0.825-3.92-2.476-8.249-2.476-8.249l-0.201-7.225l3.914-3.92
		c0,0-3.094-8.036-12.377-5.358c-9.283,2.679-8.864,10.724-8.864,10.724l-1.45,11.546c0,0-5.569-2.679-8.033-6.804
		c-2.487-4.123-8.48-14.028-32.392-12.374l0.825-4.742l1.232-3.719l-6.59-2.267h-9.902l-5.994-3.091l-25.373,0.822l-2.062,3.095
		l0.63,7.217l-3.725,4.332l-8.859,4.126l-6.819,5.369l2.487,6.189l8.251-0.209l3.301,3.1l0.613,8.455l4.12-0.21l6.2-8.245
		l6.177-0.212l5.581-8.458l5.501,13.959l2.739,12.102v5.229l21.729,7.699l26.955,2.47l-6.327,6.879
		c1.662,1.654,3.008,2.756,3.851,4.948c-10.395-3.183-24.6-13.747-33.35-1.415c-3.025-1.668-4.171-2.441-5.764-5.105
		c2.189-0.496,4.55-1.324,6.876-1.819c3.828-0.808-18.612-9.581-18.91-9.69c-6.395-2.275-17.935-10.054-24.353-9.472
		c-4.538,0.41-11.002,3.85-11.002,3.85l-3.289-4.532c0,0-8.79,2.392-9.088,2.47c-4.996,1.364-2.155-20.05-15.528-3.183
		c-0.917-2.344-3.037-4.338-3.851-6.699c-6.659,2.633-6.555,8.335-12.423,10.75c-4.905,2.008-22.542,4.638-27.677,4.865
		c-3.152,0.14-2.796,3.71-8.205,2.762c-2.498-0.432-2.819-6.217-3.92-6.541c-16.016-4.693-25.791-8.799-43.698-5.963
		c-15.07,2.375-15.781-1.186-29.487-5.386C290.576,458.206,281.717,456.621,273.03,456.913z"/>
	<path style="fill:#FFFFFF;" d="M736.061,513.542c0,0-16.102-2.06-18.359,4.332c-2.275,6.395,7.621,13.821,7.621,13.821
		l10.739-2.057l17.116,11.956c0,0,9.495,9.286,10.102,9.907c0.63,0.619,14.446,3.298,14.446,3.298l9.472,3.091h3.725
		c0,0-10.721-12.377-9.89-14.846c0.813-2.479,7.214-2.679,7.214-2.679l4.532,7.836l2.481,0.615l-1.232-7.842l2.476-2.679l-2.9-2.733
		l-2.882-1.805c0,0,0.82-6.188,1.243-6.81c0.401-0.616,1.639-4.326,1.639-4.326l-7.638-2.679l-5.14-4.337l4.538-7.217l4.939,2.685
		l4.338,5.149l5.77,7.426l6.406,1.862v-8.667l8.033-6.389l1.862-7.02c0,0-4.956-8.045-12.177-8.458
		c-7.22-0.407-16.709-3.507-16.709-3.507s-1.862-16.494-8.652-19.594c-6.808-3.089-19.609-21.861-19.609-21.861l-17.729-7.22
		c0,0-11.558,3.089-14.589,5.57c-3.025,2.467-9.902,6.189-9.902,6.189l-4.401-1.928l14.716-15.815l10.601-0.55l6.172-0.69
		l4.544-5.63c0,0-22.692-5.647-31.631-3.719c-8.933,1.928-22.691,7.149-24.891,11.967c-2.2,4.808-3.163,4.668-3.839,12.094
		c-0.699,7.432-5.639,7.707-5.639,7.707s1.92-3.985,2.195-10.177c0.269-6.186-2.195-9.905-2.195-9.905l3.301-4.807l4.939-1.648
		l2.481-6.332c0,0-16.635-0.688-19.523,4.679c-2.888,5.36-7.713,10.036-7.713,10.036s-3.565,10.446-3.3,13.337
		c0.275,2.887,2.762,10.454,3.042,10.867c0.258,0.41,7.971,4.401,7.971,4.401l6.601,0.135l18.153-4.126l14.434,7.698l12.658-5.77
		l6.177,2.888c0,0,4.538,8.939,10.177,11.549c5.638,2.619,10.859,9.486,6.194,15.406c-4.67,5.913-5.908,14.984-5.908,14.984
		L736.061,513.542z"/>
	<polygon style="fill:#FFFFFF;" points="729.184,487.003 739.929,487.003 741.275,491.492 738.261,498.689 730.56,498.689 
		723.265,490.028 	"/>
	<path style="fill:#FFFFFF;" d="M555.561,401.328l-7.014-6.186h-11.77l-12.148,11.755l11.541,6.189l10.314-1.032l-8.24,5.37
		l11.334,4.117l10.32-7.426l15.769,0.831l10.836-1.031l9.696-0.621l-7.014-3.917l4.344-4.747l-1.043-2.269l-9.695-0.41
		l-1.238-13.406h-12.584c0,0,2.487,15.262-1.031,16.5C564.437,406.276,561.761,411.436,555.561,401.328z"/>
	<path style="fill:#FFFFFF;" d="M603.734,388.026l2.264,8.146l9.604,4.229l2.774,3.716l-4.229,10.927l3.197,2.478l3.306-10.727
		l7.014,1.442c0,0,6.286-2.057,6.183-7.524c-0.115-5.469,6.498-3.71,6.498-3.71s3.816-4.641,0.619-5.06
		c-3.209-0.413-11.656-0.719-12.79,3.51c-1.135,4.229-3.209,4.845-3.209,4.845s0.619-3.607-2.991-4.747
		c-3.598-1.128-9.695-1.029-9.695-1.029s0-10.417-4.011-10.727C604.245,383.485,603.734,388.026,603.734,388.026z"/>
	<path style="fill:#FFFFFF;" d="M822.889,663.912v9.497l-14.852,10.515l20.21,2.482l14.245-1.651l-8.045,5.77
		c0,0-4.344,3.917-4.344,4.539c0,0.618,2.487,3.719,2.487,3.719l8.056-1.453c0,0,8.234,2.068,10.509-2.057
		c2.27-4.128,4.321-13.924,4.321-13.924l-3.301-2.172l-3.295-5.357l-10.715-6.596l-1.862-11.348L822.889,663.912z"/>
	<path style="fill:#FFFFFF;" d="M508.333,391.702c0.258,1.1-13.489,5.501-13.489,5.501l1.375,5.226l16.509,2.616l7.14-2.888
		l-2.195-7.154l9.077-3.301l7.157-3.157l6.057-9.489l-7.719-1.928L508.333,391.702z"/>
	<path style="fill:#FFFFFF;" d="M562.231,370.119c0,0-2.332,7.557,0,10.724c2.338,3.163,10.039,6.982,10.589,2.937
		c0.55-4.046,5.913-6.653,5.913-6.653s4.252-2.891,4.252-3.988c0-1.1,0-5.638,0-5.638L562.231,370.119z"/>
	<path style="fill:#FFFFFF;" d="M610.777,362.003l0.688,7.008c0,0,8.194,0.418,11.523,4.128c3.329,3.71,5.81,6.736,10.606,3.988
		c4.819-2.751,9.357-4.679,9.357-4.679l-4.538-3.02l-1.782-1.928h-8.114l-4.825-8.529L610.777,362.003z"/>
	<path style="fill:#FFFFFF;" d="M647.152,387.513l-2.487,7.836l4.137,3.922c0,0,8.246-2.684,8.859-2.684
		c0.63,0,7.437,4.06,7.437,4.06v14.919l4.126,2.891h17.947l29.693,3.085c0,0,6.601-4.117,7.22-5.154
		c0.619-1.031,11.552-17.529,11.552-17.529l-9.695-4.338l-11.552,4.951c0,0-17.74,5.572-18.359,5.054
		c-0.618-0.519-16.698-1.547-16.698-1.547s-2.475-3.708-2.475-4.329c0-0.622,3.919-7.217,3.919-7.217l36.507-0.418l10.515-2.47
		l7.839,5.157l8.882-5.157l-10.113-7.839l8.452-2.51h14.657l12.572-13.173l-17.952-6.051l15.695-5.705
		c0,0,27.213,2.269,30.106,1.238c2.888-1.032,6.808-7.627,7.226-8.248c0.418-0.619,8.87-5.779,8.87-5.779l11.959-6.805h8.251
		c0,0,0-9.28-9.071-7.429l3.077-5.157l15.277,1.859l20.416-1.859l-21.448-8.458l-10.927-2.47h-30.324l-8.463-5.157l-24.548,4.126
		l-17.317,7.839l-5.157-3.1l-10.933-0.2l-7.438,6.389l-17.534,1.032l-2.464,3.51l-5.157,0.828l-2.894-3.51l-7.627,0.619l2.681,6.601
		l2.682,5.776l22.473-0.207l4.75,5.985h11.965l6.194,5.157l1.02,7.836l-4.739-4.335l-19.592,1.029l-11.758,2.891l-15.471-12.578
		l-11.977-6.398h-7.22l-1.433,4.538l-6.189,1.238l-2.074,7.426l3.518,6.601l4.94,3.301l1.238,6.805l-1.02,3.091l6.395,3.51
		c0,0,13.397,6.186,15.678,2.068c2.257-4.131,0.618-9.598,0.618-9.598l9.696-3.198l9.477-5.36l5.982,1.029v7.529l-8.458,5.314
		l4.539,7.163c0,0,0.618,2.687,0.618,3.306c0,0.619-9.277,2.882-10.52,2.882c-1.232,0-5.558,3.716-5.558,3.716l-21.671,1.241
		l-13.398,1.029l-5.575-4.143l-0.814-3.693l6.171-1.891l4.762,1.479l-8.258-8.664l-6.813-7.738c0,0-7.844,2.679-7.844,5.314
		C646.728,371.216,650.447,385.653,647.152,387.513z"/>
	<path style="fill:#FFFFFF;" d="M648.183,889.586c0,0,2.264,5.986,7.622-1.653l7.437,1.94l13.397,5.277l13.214,3.306l1.02,4.126
		c0,0,5.776,2.063,6.406,2.063c0.613,0,7.426,0.823,8.034,1.238c0.618,0.421,5.988,1.04,5.988,1.04l1.644-2.481
		c0,0-8.858-8.673-9.271-9.291c-0.424-0.61-6.395-5.361-6.395-5.361l-12.801-8.246L671.9,879.89l-11.334,2.063
		C660.566,881.953,649.009,883.392,648.183,889.586z"/>
	<path style="fill:#FFFFFF;" d="M720.784,908.08c0,0-4.114,3.163-4.539,3.719c-0.401,0.544-5.077,4.401-5.357,5.083
		c-0.281,0.693,7.557,3.157,7.557,3.157s13.615,1.243,14.44,1.937c0.831,0.682,7.157-3.301,7.569-3.301
		c0.401,0,14.159,0.682,14.159,0.682s7.977,1.105,8.252-1.656c0.286-2.739-5.776-1.226-13.753-6.458
		C741.137,906.023,720.784,908.08,720.784,908.08z"/>
	<polygon style="fill:#FFFFFF;" points="689.853,919.076 692.729,922.055 700.786,924.457 702.631,920.52 	"/>
	<path style="fill:#FFFFFF;" d="M843.73,345.224c0,0-9.902,8.939-11.139,13.747c-1.238,4.818-11.959,15.236-20.216,9.615
		c-8.258-5.624-10.715-5.314-10.715-5.314l-3.301,10.007l-7.025,4.917l8.664,5.584l1.662,7.234h13.19l-4.951,6.189
		c0,0,9.489,2.478,17.752,0c8.24-2.473,13.191,2.361,14.429,3.444c1.237,1.094,17.316,5.174,17.316,5.174s6.619,6.312,6.619,19.268
		c0,12.959-4.957,20.385-2.075,23.686c2.894,3.3,1.232,8.249,2.075,9.896c0.819,1.659-2.894,9.079-2.075,10.317
		c0.843,1.24,3.719,10.314,6.195,10.727c2.476,0.41-0.413,6.738,0,7.289c0.401,0.547-8.257,13.752,3.719,42.214
		c11.947,28.471,9.477,35.481,9.477,35.481h12.796h12.377l4.126,5.779c0,0,14.852-9.902,15.666-27.233l9.913-3.301
		c0,0,11.139-16.912,16.079-20.622c4.962-3.716,7.438,1.24,7.438,1.24l5.358-2.888l-2.573-12.795l14.956-6.189l15.254-7.197
		c0,0,7.438-1.424,14.853,0c7.415,1.427,30.106-10.95,32.593-15.485c2.475-4.542-8.263-6.189-8.263-6.189s-8.24-11.148,0.836-11.968
		c9.077-0.828,14.022,6.189,14.022,6.189s12.383,0.82,7.833-9.486c-4.539-10.317-14.429-16.096,5.776-21.044
		c20.216-4.948,12.24-20.904,12.24-20.904l-6.601-6.785h16.514l-11.013-8.618l8.263-3.851c0,0,7.22,4.266,5.97-4.807
		c-1.237-9.08-10.932-7.839-12.984-11.558c-2.075-3.708,2.47-14.844,2.47-14.844l-4.951-3.923c0,0-16.302,2.269-19.603-7.845
		c-3.295-10.105,11.357-8.658,11.139-14.646c-0.195-5.979-21.453,0-21.453,0s0.836-11.337,7.839-11.546
		c7.02-0.206,21.247,3.301,22.078-1.859c0.831-5.157-13.196-1.438-21.459-16.29l-27.832,2.476l-12.996-4.957l-37.55,1.45
		l-11.954,6.805l-8.675-4.329l-5.363,10.308l-9.891,8.048c0,0,0.613-8.867-11.764-7.627c-12.371,1.229-8.876,9.896-24.548,9.068
		c-15.672-0.819-24.13-4.329-44.769,4.538c-20.606,8.876-29.682,14.643-29.487,17.122
		C826.185,351.416,843.73,345.224,843.73,345.224z"/>
	<path style="fill:#FFFFFF;" d="M2307.76,513.854c-1.02-4.023-9.798-7.53-13.706-6.189l-5.713-7.596H2273.5l-18.434-9.902
		l-14.302-3.301l-8.527-6.885l-9.908,1.928c0,0-5.231-8.249-11.546-11.274c-6.326-3.028-48.684,0-48.684,0l-10.44,2.751
		l-41.807-4.089c0,0-8.136-10.879-8.263-11.031c-1.204-1.627-30.92-2.063-34.456-2.836c-11.34-2.49-22.869-5.34-34.1-8.117
		c-6.544-1.616-19.402-7.991-25.774-6.93c-8.251,1.372-27.505,1.1-27.505,1.1l-1.925,7.148c0,0-12.572,5.467-12.652,5.498
		c-9.232,4.02-30.301,0.628-40.443,0.828c-5.741-24.826-22.588-26.794-44.191-25.003c-4.956,0.401-5.891,3.785-13.816,3.212
		c-9.724-0.697-17.889-10.131-27.722-10.85c-10.641-0.791-16.675,6.142-27.281-0.086c-4.32,5.421-26.966,15.491-18.405,2.541
		c4.9-7.412,32.685-12.454,23.069-27.57c-3.862-6.051-18.439-3.301-18.439-3.301l-21.706-3.02l-7.713-5.779l-2.487-9.905
		l-14.841,2.478l-9.914,7.149l-2.739,7.704c-3.002,0-5.145-0.378-7.816,1.195c0.183,1.642,0.573,3.22,1.186,4.748
		c-1.874,1.733-3.919,2.143-6.567,2.26c-2.527-7.093-52.047-3.306-58.843,5.02c0.991,1.922,1.146,4.367,2.166,6.272
		c-3.083-1.123-7.277,0.441-10.44-0.493c-0.367,1.974-1.209,3.996-1.364,6.008c2.762,0.573,5.512,1.805,8.228,2.533
		c-0.08,0.814-0.435,4.003,0,4.59c-1.455,0.607-33.04,15.4-19.792,18.193l10.451,2.209l2.2,7.421l-10.176-4.401l-12.641-5.498
		l-11.833-1.378l-6.057,3.028l-6.865-9.077l-4.951,10.174c0,0,3.575,15.127,3.575,20.626c0,5.506,5.22,15.405,6.04,15.952
		c0.837,0.55,3.301,14.027-3.839,18.703c-7.163,4.679-7.163,3.301-4.675-7.426c2.475-10.727,1.1-13.747,1.1-13.747l-3.862-3.3
		c0,0,0.556-11.002-0.82-18.428c-1.381-7.432,0-12.38-4.676-17.328c-4.681-4.948-11.282-4.948-11.282-4.948l0.286-7.707
		l-5.226-0.819l-5.501,9.899l-4.412,11.002l0.837,4.398l-6.589,5.232c0,0,0.813,6.598,1.358,7.418
		c0.556,0.831,1.094,6.057,1.656,6.876c0.55,0.831,11.541,4.407,11.541,4.407l-0.264,3.573c0,0-29.224-4.948-37.888-11.549
		c-8.675-6.607-17.328-7.426-17.328-7.426s-3.507,11.546-3.106,12.784c0.418,1.243,14.852,6.192,6.148,7.639
		c-14.663,2.409-32.496-7.2-48.013-2.22c-10.704,3.429-17.259,13.606-27.666,19.322c-2.636-6.816-3.873-16.102-11.815-18.084
		c-20.308-5.074-5.811,10.733-5.983,11.844c-2.384,15.225,1.983,4.544-10.222,14.248c-12.984,10.322-16.09,17.021-32.605,15.319
		l-5.558-10.727v-5.779l5.775,2.063l5.358,3.097l10.32-2.06l10.314-3.922l0.195-20.007l-53.015-21.666l-11.541-8.658l-13.615,2.679
		l-19.391,0.831c0,0-14.039,1.65-23.735,12.996c-9.689,11.337-45.371,46.821-45.371,46.821l-10.532,16.09
		c0,0-18.136,7.017-18.967,7.627c-0.825,0.619-3.501,8.664-3.501,8.664s1.438,5.57,1.438,6.189c0,0.621,1.433,3.721-0.424,5.779
		c-1.845,2.06-2.67,10.939-2.67,10.939s1.656,7.415,2.074,8.036c0.396,0.616,3.914,6.808,3.914,6.808l19.798-1.859l6.395-5.151
		l4.321,5.773l0.837,5.779l5.363,4.948c0,0-1.444,6.186-1.444,6.804c0,0.622,2.057,13.208,13.397,4.748
		c11.358-8.458,11.976-6.189,12.595-17.743c0.619-11.546,9.283-10.515,9.283-10.515l3.495-16.087c0,0-8.24-4.956-6.383-13.824
		c1.845-8.87,10.715-15.056,10.715-15.056l12.182-8.048l2.476-12.374l11.334,0.615l-1.031,11.758l-5.764,5.57
		c0,0-7.633,5.779-7.839,6.401c-0.218,0.616-0.619,9.074-0.619,9.689v10.733c0,0.611,3.307,6.805,3.307,6.805
		s3.696,2.06,4.314,2.264c0.619,0.206,8.464,1.237,8.464,1.237l4.751,1.032l3.083,3.306c0,0-6.177,3.498-6.796,4.948
		c-0.625,1.441,0.825,6.598,0.825,6.598l-2.269,5.776l-7.22-1.029l-8.263,0.412c0,0-7.827,10.314-6.808,14.853
		c1.043,4.538,0.619,12.996,0.619,12.996s-21.453-2.068-34.656,0.619c-13.191,2.682-22.68,0.613-22.68,0.613l-2.888-13.609
		c0,0,0.625-10.724-2.893-11.346c-3.501-0.618-9.69,13.406-9.69,13.406s0.831,9.28,1.444,10.727c0.63,1.441,1.243,8.667,0.63,8.871
		c-0.63,0.209-12.996,1.647-13.626,1.857c-0.613,0.2-13.615,11.549-13.615,11.549l-18.016,18.431l-6.326,3.57
		c0,0-8.24-0.55-8.802,0.281c-0.539,0.819-8.515,7.426-8.515,7.426h-12.102l-4.137,2.473l10.176,15.13l6.601,4.393
		c0,0,0,4.125,0,4.956c0,0.819,5.776,3.847,5.776,3.847l3.576,5.499l-2.475,7.426c0,0-1.375,6.601-8.79,3.031
		c-7.427-3.579-22.554-2.481-22.554-2.481l-12.664-0.825l-4.676,4.687l0.281,9.337l1.094,8.804l-0.814,6.876l-3.301,12.658
		l3.576,6.598l3.301,5.499l9.077,0.281l8.515,8.796l8.263-4.678c0,0,20.067-1.097,21.453-6.876c1.358-5.779,5.776-4.667,5.776-4.667
		s1.364-6.329,1.364-11.839c0-5.498,6.876-17.042,11.277-17.322c4.395-0.272,6.051-4.948,6.876-13.466
		c0.813-8.538,13.477-5.232,17.053-3.581c3.582,1.65,7.977-2.197,16.515-2.479c8.515-0.28,15.935,5.779,18.697,15.133
		c2.745,9.34,10.446,5.77,18.434,12.374c7.971,6.601,9.615,22.276,9.615,22.276l5.237-1.097l2.453-16.23l6.338,1.922l-0.275-7.977
		l-7.157-3.019c0,0-3.02-4.407-3.576-5.229c-0.545-0.828-4.664-4.948-5.781-5.229c-1.1-0.269-7.701-2.476-10.716-5.779
		c-3.025-3.295-10.183-8.246-6.464-11.543c3.702-3.309,11.965-3.85,14.99-0.831c3.025,3.028,8.252,15.133,8.252,15.133
		s7.713,5.77,12.927,7.152c5.226,1.378,8.24,12.924,8.24,12.924l0.562,10.449l6.315,3.844l-1.1,4.959l6.337,3.57l-0.275,6.607
		l9.076,5.226c0,0,2.2-6.603,10.991-8.804c8.802-2.198-5.49-11.277-10.171-14.297c-4.682-3.028-3.582-9.354-3.582-9.354
		l18.159,1.097l6.057-2.75l5.776-10.721l1.1-9.08l6.04-7.151l11.833-23.657l10.457,0.277l7.701,9.908l0.269,10.996l5.781-5.229
		l5.776-1.1l15.735,8.529l2.682,4.335l12.182,0.822l7.839,8.249l-0.229,6.394l-13.603,1.654c0,0-24.755-3.51-26.199-3.711
		c-1.432-0.212-18.554,0.619-19.797,1.029c-1.243,0.413-10.733,6.186-10.733,6.186l-17.729,3.923l-3.507,5.567v9.286l-2.075,6.808
		l7.22,6.389l7.85,1.24c0,0,17.935,7.426,18.761,7.638c0.831,0.201,22.29-4.956,22.072-8.048c-0.201-3.1,4.527,20.213-8.246,30.527
		c-11.626,9.372-11.317,10.054-11.162,10.102l-8.028-1.441l-7.214,5.988c0,0-12.996-3.1-13.615-3.304
		c-0.624-0.207-14.641,0.819-16.715,0.204c-2.057-0.622-11.134-8.048-11.965-8.249c-0.814-0.209-17.947,1.031-20.004,3.301
		c-2.063,2.269-8.464,11.134-8.464,11.134l-17.11-3.507l-9.271-5.148c0,0-21.46-5.988-21.259-17.744
		c0.201-11.758,5.57-17.947-10.12-18.772c-15.678-0.822-30.513,2.479-30.513,2.479s-15.076-6.192-25.791-3.923
		c-10.727,2.269-13.534,11.549-13.534,11.549s-17.191,0-19.529-1.648c-2.344-1.653-9.076-2.61-9.076-2.61s-4.63,10.609-5.22,13.024
		c-0.47,1.905-13.964,4.584-16.468,7.231c-6.699,7.12-7.111,23.213-1.037,30.307c-22.714,13.663-39.824,32.877-46.701,57.605
		c-3.14,11.294,6.429,19.56,4.767,30.533c-3.048,20.135-18.806,32.633,1.8,50.666c0,0,11.156,9.351,12.251,14.852
		c1.1,5.501,4.401,11.816,4.802,11.959c0.418,0.137,14.6,3.713,14.6,3.713s7.552,8.12,8.372,9.357
		c0.819,1.22,9.357,10.177,9.632,11.414c0.263,1.226,12.515-1.111,13.603-1.237c1.1-0.155,2.9-1.656,16.492,2.321
		c19.837,5.81,33.212-12.062,51.434-14.136c5.306-0.607,14.738,23.711,29.705,19.093c-1.628,10.968-6.372,28.164-0.544,38.512
		c5.495,9.759,15.552,23.648,19.259,30.112c3.714,6.458,4.665,14.853,4.665,14.853v7.558c0,0,4.687,9.495,4.824,10.039
		c0.143,0.556-0.412,5.37-4.401,9.632c-3.999,4.258-2.2,25.293-2.2,25.293s-10.87,13.489-5.363,28.347
		c4.853,13.105,14.359,22.984,16.8,37.04c1.433,8.424-0.126,11.85,3.416,18.274c7.753,14.016,11.901,15.334,14.423,32.65
		c3.501,23.964,5.266,27.43,28.072,29.74c0,0,17.878-1.92,18.691-3.839c0.837-1.937,9.352,6.865,24.755-8.257
		c15.414-15.133,17.614-31.631,17.614-31.631s10.721-7.713,11.816-15.677c1.1-7.908,1.639-17.437,1.65-17.598
		c-0.04,0.66,9.615-2.979,10.589-3.931c5.913-5.833,1.765-14.589,2.487-21.757c1.764-17.414,8.985-22.818,22.846-33.292
		c15.122-11.397,15.076-18.279,12.796-37.355c-2.155-18.176-16.297-33.287-10.899-51.566c3.072-10.446,13.661-24.737,20.692-32.828
		c10.985-12.618,24.227-23.322,34.203-36.845c4.584-6.223,16.726-36.203,24.732-35.458c0,0,10.176-16.789-8.79-16.789
		c-18.978,0-16.514,7.438-34.392,9.902c-17.878,2.475-8.257-19.242-8.257-19.242l-15.936-3.037
		c-16.514-36.845-33.12-73.667-49.509-110.569c1.817-1.381,6.028-3.595,8.229-4.1c-5.128,15.784,16.308,25.45,23.51,37.263
		c9.919,16.271,17.735,35.18,25.47,52.657c0,0,4.401,11.833,4.939,12.652c0.55,0.819,7.69,7.971,7.69,7.971
		s7.712,4.687,18.434-3.295c10.744-7.97,21.746-5.495,23.11-4.675c1.364,0.819,6.865-3.026,6.865-3.026l4.699-7.151l17.316-6.039
		c0,0,8.521-6.338,8.521-7.713c0-1.364,3.031-7.982,3.031-7.982l3.02-3.295c0,0,2.475-4.679,3.306-5.221
		c0.814-0.559,3.576-2.481,4.137-4.956c0.533-2.47,1.088-16.497,1.088-16.497l-10.176-2.2l-10.189-11.827l-10.715-0.278
		c0,0-7.976,10.174-22.004,6.048l2.75-9.896l-13.752-17.883l-6.04-7.971l-0.562-11.833l8.251,11.005c0,0,16.503,2.75,22.279,9.076
		c5.776,6.329,9.351,13.199,13.466,13.199c4.137,0,8.802-1.372,8.802-1.372s6.876,8.529,11.833,10.727
		c4.968,2.197,15.403,0.269,18.697,2.478c3.301,2.192,21.454-1.106,21.454-1.106l11.277,2.478c0,0,1.914-3.301,8.813,8.255
		c6.876,11.546,12.377,20.904,23.373,22.273c10.996,1.378,10.996,29.017,10.996,29.017l9.077,22.422
		c4.412,9.758,9.512,33.257,18.554,38.214c14.016-12.63,10.274-34.387,16.847-50.374c6.985-16.961,26.548-14.451,32.685-30.886
		c7.828-21.05,10.291-20.222,10.291-20.222l18.577,0.41l7.415-2.467l2.9,11.546c0,0,12.778,8.255,11.953,18.153
		c-0.814,9.896,2.063,16.915,2.063,16.915l11.976,1.237l8.653-0.418c0,0,3.301,23.11,4.544,29.31c1.243,6.183,0,28.868,0,28.868
		l9.896,9.495c0,0,4.137,12.778,9.495,19.797c5.357,7.014,14.01,17.734,14.01,17.734l7.025,4.539c0,0,3.301-19.38,0-27.637
		c-3.301-8.257-12.377-14.434-12.377-14.434s-6.177-5.37-8.251-9.077c-2.063-3.713-9.06-9.495-9.06-11.971
		c0-2.481,4.12-28.736,4.12-28.736s18.153,19.253,20.628,27.092c2.464,7.839,4.939,8.658,15.254,3.301
		c10.314-5.358,19.403-13.615,19.403-13.615V940.53c0,0-10.291-12.326-14.83-16.062c-16.87-13.861-1.215-27.367,12.343-35.498
		l5.788,4.117l-5.788,7.019l-2.876,14.036l8.664,4.533l6.589-7.432c0,0,0.418-9.899,0-16.494c-0.412-6.61,9.489-7.438,9.489-7.438
		l15.684-1.1l14.858-9.068l8.228-0.55c0,0,6.452-8.521,6.865-9.054c6.797-8.968,18.039-38.174,6.648-44.028
		c2.601-0.08,5.203-1.722,7.827-1.922c-4.126-8.404-9.294-15.265-7.3-25.03c-3.404,0.82-7.621-1.169-10.99-0.303
		c-0.631-4.066-1.353-7.69-1.903-10.647c-0.859-4.725,20.537-6.842,15.964-16.909c-4.71-10.386-28.605,4.269-25.081-14.228
		c2.195-11.552,11.833-4.948,11.833-4.948l9.077-16.5c0,0-4.95,17.042-3.031,20.079c1.931,3.023,11.443-2.206,11.443-2.206
		l6.166,1.097l2.475,9.355c0,0,7.563,7.306,7.701,7.42c0.447,0.444,6.165,18.202,6.314,19.482c-2.957,1.029-6.022,4.252-9.306,4.962
		c10.623,4.206,24.72,6.63,29.43-4.61c7.059-16.844-16.6-25.301-14.543-39.458c0.619-4.235,16.606-18.936,21.654-21.609
		c17.936-9.495,21.253-14.185,33.006-31.367l8.802-20.362v-19.245l4.396-14.58c0,0-6.59-10.996-10.997-13.747
		c-4.395-2.753-12.079,1.639-12.096,1.648c-8.841,5.042-9.73-17.875-9.042-20.322c2.773-9.767,19.035-29.244,28.725-33.063
		c11.352-4.466,41.595-3.825,47.979,4.151l26.674,0.547c0,0-8.246-8.523-6.332-13.472c1.925-4.951,9.626-9.349,9.626-9.349
		l3.037-7.426c0,0,7.696-3.301,11.541,4.398c3.85,7.698,3.295,15.403,4.137,15.953c0.82,0.55,5.496,0.55,5.496,0.55
		s3.295-11.827,6.871-13.205c3.587-1.37,9.363,0,3.025,6.607c-6.315,6.598-8.802,12.649-8.802,12.649s-3.862,3.295-4.664,4.398
		c-0.837,1.1-2.212,8.526-2.212,8.526l-8.515,1.928l-3.037,20.895c0,0,3.856,2.759,3.856,4.678c0,1.926,0,11.555,0,11.555
		l4.406,14.305l6.303,12.374c0,0,5.501-10.176,10.188-13.752c4.676-3.57,10.177-4.679,9.638-12.38
		c-0.562-7.701,3.564-11.552,3.564-11.552s7.988-2.47,7.426-10.449c-0.556-7.977-3.289-15.675-3.289-15.675l-4.137-2.478
		c0,0-3.025-5.779-0.825-9.349c2.2-3.576,7.758-11.833,8.269-11.833c0.544,0,13.999-1.919,13.999-1.919l10.188,2.198l2.476,3.031
		l7.432-0.831l9.896-10.177l10.996-2.751l9.071-4.948l4.143-5.226c0,0,7.971,6.598,9.902,5.498c1.92-1.092,9.896-5.77,2.481-18.975
		c-7.438-13.196-5.1-16.915-5.1-16.915l-1.971-5.157c0,0,4.137-3.092,4.332-2.78c0.206,0.31,3.816,6.498,3.816,6.498l8.768,3.711
		l7.323,4.126l2.991,3.71l16.09,3.507l7.225,4.229c0,0,3.101-7.217,2.676-11.752C2301.36,519.63,2308.792,517.874,2307.76,513.854z"
		/>
	<path style="fill:#FFFFFF;" d="M1154.923,621.357c0,0,0.275,7.146,0.275,8.527c0,1.378-3.289,11.549-3.289,11.549l2.476,8.535
		l-6.613,5.767l-0.825,7.979c0,0,7.712,1.37,8.538,1.37c0.813,0,14.852-7.426,14.852-7.426s15.935-8.862,18.153-11.509
		c1.1-1.323,2.275-2.555,3.392-3.833c-0.046-0.103-0.126-0.154-0.172-0.263c-4.332-8.458-8.876-13.196-10.096-14.847
		c-1.238-1.65-10.738-12.377-10.738-12.377l-3.92-13.824l-4.601-10.996l-13.208-1.65l-12.377,13.196l6.876,9.627L1154.923,621.357z"
		/>
	<path style="fill:#FFFFFF;" d="M2051.531,624.377l2.2,22.554l-1.083,7.157c0,0,3.845,6.867,4.12,8.254
		c0.264,1.372,1.381,10.449,1.381,10.449l1.358,15.394c0,0-1.358,6.601-2.2,7.157c-0.813,0.55-1.914,4.129-1.788,7.429
		c0.149,3.298,3.169,9.896,1.788,12.094c-1.364,2.203-10.996,9.36-10.996,9.36s4.406,7.146,9.357,6.048
		c4.939-1.1,11.277,0,15.116,1.378c3.862,1.372,15.701-11.836,15.701-11.836l7.14-11.271c0,0-20.915,3.851-23.654,0
		c-2.762-3.856-6.337-26.408-4.681-34.656c1.656-8.246-0.269-17.603-0.269-17.603l1.364-15.953l-7.14-17.328
		C2059.244,623.005,2052.906,617.779,2051.531,624.377z"/>
	<path style="fill:#FFFFFF;" d="M2061.57,732.812l-7.621,10.317v23.313l-9.294,5.154l-6.601-3.306l-7.014,8.667l-16.503,1.859
		c0,0-8.252,8.249-8.447,8.867c-0.206,0.619-5.163,10.108-5.575,10.724c-0.407,0.621-2.687,11.349-2.687,11.349l5.994,3.919
		l1.444,5.779c0,0,5.776-7.639,8.458-13.205c2.67-5.57,14.234-8.458,14.234-8.458h9.277l4.539-6.192l10.938-1.856
		c0,0,8.658-1.232,8.859-15.056c0.218-13.815,8.4-21.242,8.4-21.242S2072.709,732.608,2061.57,732.812z"/>
	<path style="fill:#FFFFFF;" d="M2000.109,1176.932c0,0,4.538-11.133,5.352-12.377c0.825-1.237,6.601-7.833,10.326-8.652
		c3.718-0.842,28.049-2.074,29.292,0c1.232,2.051,7.014,6.177,7.014,7.415c0,1.237-13.214,4.956-13.214,4.956
		s-7.002,8.24-7.002,8.658c0,0.401,2.063,5.782,3.301,5.782c1.238,0,16.916,0,16.916,0l3.301,10.314c0,0,17.316,4.939,15.677-15.271
		c-1.662-20.216,7.415-27.636,7.415-27.636l4.131,15.678v9.472l13.197,4.137l2.476,18.979l18.978,25.992l3.301,6.183l11.959,6.189
		c0,0-1.645,9.483,0,11.139c1.662,1.645,8.257,14.44,8.257,14.44s4.538,16.509,0,33.825c-4.538,17.34-1.645,28.055-1.645,28.055
		h-8.257l-7.014,12.377l-4.962,7.833l0.424,8.675l-6.188,5.781l-13.202,2.057l-7.427,6.183l-14.852-4.945h-9.501l-14.829-6.613
		l-8.252-7.845l-2.063-6.997l-7.839-1.656l-2.063-5.358l-6.613-2.481l-6.601-1.237l-2.057-13.196l-9.896-2.894l-7.839-4.939
		l-18.153,5.77l-9.076,4.544l-11.552,7.003c0,0-0.831,11.552-7.844,7.014c-7.014-4.538-20.21-2.063-20.21-2.063l-9.902,2.481
		l-7.014,5.358c0,0-16.915,7.432-17.339-19.391c0,0,10.325-17.735,6.2-26.393c-4.114-8.681-16.497-38.787-3.713-53.222
		c12.79-14.44,32.587-21.453,32.587-21.453l7.432-4.956l10.727-3.708c0,0,2.051-12.79,4.527-15.265
		c2.487-2.481,11.563-6.189,11.563-6.189l4.539-16.91l9.076-0.836l5.364,6.595L2000.109,1176.932z"/>
	<path style="fill:#FFFFFF;" d="M1794.9,1011.366c0.097,0.218-0.023,0.482-0.241,0.561c-3.071-1.1-5.736-3.146-7.965-5.501
		c-0.424-0.464-0.957-0.974-1.57-0.871c-0.504,0.092-0.837,0.607-1.066,1.089c-0.756,1.547-1.215,3.267-1.29,5.003
		c-0.011,0.464,0.018,1.003,0.361,1.318c0.447,0.384,1.157,0.212,1.73,0.401c1.169,0.373,1.272,1.92,1.461,3.129
		c0.699,4.613,5.174,7.478,8.83,10.378c13.088,10.395,19.322,27.465,31.951,38.415c1.954,1.69,4.264,3.656,4.103,6.229
		c-0.029,0.722-0.286,1.438-0.344,2.183c-0.264,2.831,2.189,5.105,4.504,6.784c2.304,1.673,4.917,3.564,5.295,6.383
		c0.126,1.015,0.023,2.275,0.894,2.848c0.401,0.28,0.911,0.303,1.409,0.326c5.054,0.138,10.624-0.435,14.142-4.063
		c0.545-0.556,1.043-1.221,1.043-2c0-0.676-0.412-1.295-0.711-1.902c-1.289-2.493-1.318-5.604-0.103-8.142
		c0.361-0.716,0.814-1.45,0.745-2.246c-0.091-1.169-1.215-1.943-2.212-2.544c-8.755-5.312-16.549-12.234-22.875-20.29
		c-7.667-9.776-13.311-21.471-23.207-28.966L1794.9,1011.366z"/>
	<path style="fill:#FFFFFF;" d="M1886.789,1036.968c-2.963,0.097-5.913,0.189-8.859,0.298c-0.424,0.011-0.854,0.034-1.181,0.275
		c-0.28,0.218-0.418,0.561-0.527,0.905c-1.868,5.404,0.304,11.288,2.464,16.6c1.123,2.767,2.258,5.575,3.392,8.348
		c0.928,2.31,1.994,4.768,4.137,6.023c1.949,1.152,4.355,1.06,6.578,1.444c6.836,1.18,11.959,6.904,18.417,9.449
		c4.55,1.765,9.512,1.885,14.377,1.983c-0.854-2.453-2.183-4.71-3.862-6.676c-0.47-0.573-1.003-1.134-1.289-1.816
		c-0.269-0.722-0.252-1.513-0.229-2.287c0.08-2.928,0.16-5.845,0.229-8.773c0.023-0.63,0.046-1.284,0.32-1.856
		c0.413-0.883,1.324-1.392,2.177-1.891c2.43-1.392,4.79-3.06,6.389-5.369c1.604-2.292,2.355-5.347,1.392-7.982
		c-0.642-1.753-1.925-3.157-2.876-4.756c-1.851-3.049-2.424-6.831-1.582-10.297c0.837-3.473,2.98-6.446,4.516-9.655
		c1.535-3.22,2.429-7.117,0.728-10.251c-1.22-2.258-3.593-3.719-4.83-5.965c-0.344-0.636-0.608-1.329-1.146-1.811
		c-1.381-1.209-3.656-0.218-4.675,1.284c-1.043,1.536-1.375,3.427-2.344,4.991c-2.413,3.867-7.994,4.613-10.825,8.199
		c-1.524,1.914-2.12,4.504-3.931,6.126c-1.26,1.134-2.951,1.644-4.464,2.406c-2.836,1.415-5.37,3.748-6.721,6.624L1886.789,1036.968
		z"/>
	<path style="fill:#FFFFFF;" d="M1873.209,1097.352c-1.249-2.601-4.664-3.1-7.541-3.26c-3.541-0.184-7.117-0.367-10.589,0.378
		c-3.45,0.745-6.831,2.538-8.721,5.541c5.157,0.562,10.165,2.292,14.566,5.037c1.501,0.946,2.968,2.017,4.658,2.527
		c3.845,1.186,7.902-0.653,11.913-0.945c4.888-0.356,9.638,1.621,14.497,2.429c3.507,0.573,7.071,0.51,10.641,0.499
		c13.849-0.115,27.694,0.327,41.526,1.284c3.782,0.264,7.747,0.527,11.186-1.066c0.212-1.181-0.642-2.355-1.707-2.905
		c-1.077-0.539-2.315-0.584-3.519-0.613c-4.24-0.08-8.469,0.258-12.721,0.258L1873.209,1097.352z"/>
	<path style="fill:#FFFFFF;" d="M2021.58,1051.11c-1.462-0.167-2.991-0.167-4.309,0.481c-1.335,0.636-2.355,2.063-2.161,3.512
		c0.275,2.063,2.59,3.123,3.833,4.785c2.436,3.243,0.339,7.982,1.547,11.856c1.404,4.544,6.859,6.486,11.638,6.55
		c4.751,0.046,9.604-1.129,14.234-0.041c7.478,1.759,12.744,10.097,11.099,17.609c-0.63,2.882-2.126,5.593-2.149,8.555
		c-0.029,2.94,2.338,6.269,5.215,5.65c0.871-0.183,1.627-0.699,2.498-0.917c2.59-0.665,4.974,1.415,7.014,3.146
		c2.682,2.229,5.799,4.148,9.26,4.601c3.478,0.452,7.312-0.825,9.191-3.782c0.928-1.461,1.352-3.254,2.59-4.475
		c2.057-2.063,5.449-1.639,8.32-1.1c3.157,0.618,6.601,1.409,8.538,3.965c1.272,1.673,1.662,3.845,2.436,5.793
		c0.773,1.954,2.229,3.92,4.326,4.131c2.94,0.281,5.776-3.031,8.423-1.747c1.674,0.819,2.063,2.974,2.923,4.647
		c1.834,3.724,7.025,5.283,10.618,3.226c0.384-0.218,0.785-0.516,0.9-0.945c0.2-0.826-0.665-1.444-1.318-1.96
		c-1.742-1.387-2.619-3.76-2.218-5.942c0.12-0.682,0.355-1.358,0.224-2.04c-0.344-1.598-2.395-1.989-3.971-2.389
		c-3.5-0.894-6.285-3.438-8.933-5.902c-3.427-3.174-6.934-6.458-8.996-10.646c-1.077-2.132-1.776-4.504-3.278-6.361
		c-2.521-3.112-6.796-4.148-9.936-6.647c-3.06-2.43-4.824-6.068-6.933-9.34c-2.086-3.301-4.917-6.516-8.756-7.249
		c-3.117-0.584-6.487,0.602-9.5-0.435c-5.364-1.84-7.168-9.787-12.779-10.641c-2.945-0.464-5.73,1.33-8.177,3.037
		c-2.08,1.456-4.154,2.9-6.252,4.343c-1.306,0.929-2.704,1.868-4.298,2.04c-1.598,0.172-3.438-0.734-3.724-2.321
		c-0.339-1.954,1.673-3.501,2.068-5.455c0.373-1.862-0.888-3.73-2.532-4.693c-1.622-0.98-3.559-1.226-5.45-1.444
		c-2.406-0.292-4.698-1.048-7.128-1.048L2021.58,1051.11z"/>
	<path style="fill:#FFFFFF;" d="M2147.878,1070.025c-1.33-1.674-3.782-3.484-5.306-1.966c-0.413,0.418-0.607,1.003-0.733,1.593
		c-0.642,3.174,0.779,6.659-0.51,9.65c-1.198,2.744-4.201,4.074-6.573,5.885c-2.338,1.828-4.194,5.381-2.257,7.65
		c1.639,1.942,4.934,1.318,6.83-0.384c1.868-1.719,2.854-4.195,4.292-6.304c1.427-2.103,3.748-4.028,6.251-3.627
		c2.682,0.418,4.218,3.146,5.764,5.358c2.052,2.905,4.722,5.346,7.805,7.117c1.616,0.911,3.381,1.685,4.464,3.174
		c0.636,0.865,0.991,1.913,1.501,2.865c1.209,2.212,3.352,3.89,5.782,4.521c1.513,0.384,3.822-0.51,3.232-1.949
		c-0.241-0.596-0.883-0.888-1.444-1.146c-5.042-2.464-8.79-7.391-9.81-12.91c-0.636-3.341-0.837-7.627-4.034-8.824
		c-1.089-0.401-2.281-0.315-3.427-0.435c-3.438-0.367-6.807-2.894-7.787-6.223L2147.878,1070.025z"/>
	<path style="fill:#FFFFFF;" d="M1942.521,1045.426c-4.481,11.569-6.355,24.135-5.455,36.513c0.149,2.211,0.424,4.527,1.593,6.429
		c1.146,1.902,3.427,3.312,5.592,2.785c-1.547-2.384-2.487-5.14-2.727-7.959c-0.137-1.627-0.035-3.352,0.796-4.756
		c0.803-1.415,2.459-2.43,4.052-2.109c2.034,0.424,3.071,2.636,4.183,4.39c2.682,4.177,7.586,6.836,12.549,6.824
		c1.605-0.017,3.438-0.429,4.218-1.822c0.848-1.524,0.011-3.524-1.284-4.682c-1.306-1.146-3.014-1.77-4.48-2.698
		c-2.78-1.748-4.79-4.641-5.455-7.85c-0.373-1.765-0.298-3.719,0.745-5.186c1.473-2.109,4.338-2.538,6.773-3.363
		c2.43-0.837,5.031-3.02,4.275-5.484c-0.51-1.707-2.498-2.584-4.275-2.521c-1.788,0.074-3.427,0.865-5.1,1.501
		c-3.61,1.392-7.467,2.12-11.335,2.12c-1.57,0-3.438-0.338-4.034-1.782c-0.63-1.536,0.688-3.174,2.12-3.977
		c3.937-2.172,8.802-0.929,13.259-1.502c7.461-0.951,13.249-6.785,18.371-12.303c0.905-0.963,1.857-2.401,1.083-3.49
		c-0.43-0.602-1.266-0.791-2.023-0.739c-2.853,0.137-4.973,2.573-7.495,3.914c-1.742,0.928-3.707,1.364-5.627,1.782
		c-5.501,1.198-10.75,4.074-16.371,4.074L1942.521,1045.426z"/>
	<path style="fill:#FFFFFF;" d="M1953.316,988.818c-1.616,1.667-3.226,3.415-4.046,5.587c-0.854,2.149-0.739,4.836,0.82,6.538
		c2.108,2.275,6.469,1.592,7.776-1.209c0.836-1.799,0.596-4.148,2.028-5.501c1.857-1.696,4.956-0.367,6.572,1.587
		c1.61,1.943,2.619,4.458,4.722,5.868c1.1,0.722,2.418,1.077,3.73,1.295c4.183,0.716,9.352-0.384,10.956-4.314
		c1.656-4.137-1.192-10.802-2.888-14.623c-1.467-3.381-3.415-4.355-7.048-3.564c-1.913,0.418-3.633,1.564-5.541,1.908
		c-2.321,0.413-4.635-0.407-6.939-0.097C1959.276,982.864,1956.147,985.964,1953.316,988.818z"/>
	<path style="fill:#FFFFFF;" d="M1946.394,916.136c-2.751-1.146-5.931,1.427-6.372,4.355c-0.447,2.928,1.089,5.805,2.946,8.114
		c0.676,0.854,1.444,1.708,1.627,2.774c0.275,1.484-0.63,2.899-1.306,4.258c-0.665,1.352-1.089,3.146-0.023,4.246
		c0.516,0.562,1.329,0.791,1.868,1.352c1.582,1.61-0.063,4.16-0.739,6.32c-0.762,2.321-0.201,5.014,1.426,6.859
		c1.605,1.828,4.229,2.71,6.607,2.257c-1.392-2.429-2.395-5.1-2.968-7.833c-0.269-1.272,0.057-3.146,1.364-3.054
		c0.974,0.075,1.358,1.272,1.685,2.2c1.22,3.467,4.647,5.576,7.718,7.615c3.06,2.051,6.251,4.756,6.521,8.446
		c0.12,1.73-0.401,3.73,0.733,5.048c1.582,1.845,4.573,0.602,6.59-0.745c1.902-1.266,3.828-2.55,5.736-3.822
		c0.596-0.39,1.243-0.854,1.45-1.547c0.309-1.026-0.51-2.074-1.49-2.544c-0.951-0.458-2.04-0.527-3.072-0.871
		c-4.905-1.61-6.578-8.578-11.575-9.873c-1.318-0.333-2.716-0.218-4.011-0.636c-1.169-0.378-2.155-1.146-3.129-1.925
		c-1.834-1.467-3.679-2.929-5.513-4.396c-0.997-0.79-2.005-1.598-2.647-2.698c-1.169-2.029-0.803-4.63,0.16-6.767
		c0.963-2.138,2.43-3.983,3.553-6.045c1.111-2.057,1.857-4.504,1.146-6.733c-0.711-2.234-3.404-3.467-5.73-3.467L1946.394,916.136z"
		/>
	<path style="fill:#FFFFFF;" d="M1948.652,867.204c-2.831,1.653-4.87,4.472-6.154,7.498c-1.283,3.028-1.902,6.292-2.51,9.526
		c-0.184,1.009-0.379,2.026-0.286,3.037c0.2,2.029,1.604,3.882,3.507,4.601c0.355,0.132,0.768,0.232,1.123,0.092
		c0.596-0.232,0.791-1.014,0.779-1.67c-0.04-1.482-0.562-2.917-0.779-4.387c-0.235-1.47-0.08-3.143,0.997-4.168
		c0.459-0.439,1.026-0.719,1.57-1.026c1.949-1.103,3.645-2.665,4.9-4.532c0.957-1.447,1.673-3.166,1.473-4.905
		c-0.19-1.733-1.473-3.759-3.221-3.759L1948.652,867.204z"/>
	<path style="fill:#FFFFFF;" d="M1998.172,1032.808c-0.091-1.77-2.166-2.98-3.908-2.59c-1.73,0.384-3.003,1.966-3.524,3.667
		c-0.533,1.708-0.452,3.524-0.373,5.295c0.115,2.67,0.241,5.334,0.373,7.982c0.029,0.716,0.075,1.461,0.43,2.063
		c0.682,1.18,2.401,1.449,3.576,0.79c1.158-0.682,1.8-2.074,1.845-3.409c0.08-2.338-1.358-4.636-0.882-6.928L1998.172,1032.808z"/>
	<path style="fill:#FFFFFF;" d="M2004.234,1063.888c-1.524,0.332-3.134,0.711-4.217,1.817c-0.608,0.636-0.992,1.444-1.381,2.229
		c-1.014,2.143-2.028,4.28-3.048,6.412c-0.418,0.871-0.843,1.811-0.699,2.757c1.438,0.137,2.848-0.413,4.177-0.975
		c2.023-0.825,4.023-1.656,6.028-2.475c1.175-0.499,2.418-1.026,3.232-2.028c0.813-1.009,0.997-2.648,0.057-3.524
		c-0.985-0.894-2.498-0.722-3.598-1.467L2004.234,1063.888z"/>
	<path style="fill:#FFFFFF;" d="M2092.823,1380.542c-2.103,1.181-4.688-0.137-6.762-1.392c-2.063-1.255-4.745-2.481-6.773-1.163
		c-1.89,1.226-2.051,3.908-1.856,6.148c0.355,4.372,1.135,8.722,1.925,13.042c0.258,1.507,0.556,3.071,1.421,4.355
		c0.94,1.41,2.458,2.303,3.959,3.111c1.96,1.037,3.982,2.011,6.172,2.264c2.177,0.247,4.584-0.361,6.022-2.011
		c1.06-1.243,1.472-2.917,1.77-4.527c0.493-2.693,0.711-5.438,0.665-8.177c-0.023-1.02-0.069-2.109,0.413-3.003
		c0.705-1.278,2.418-2.218,2.143-3.644c-0.137-0.722-0.779-1.221-1.381-1.673c-1.908-1.381-4.028-2.584-6.389-2.584
		L2092.823,1380.542z"/>
	<path style="fill:#FFFFFF;" d="M2256.281,1376.439c-3.072-0.699-5.467,2.831-5.925,5.931c-0.47,3.112-0.126,6.59-2.063,9.065
		c-1.931,2.504-5.432,3.031-8.378,4.194c-6.005,2.338-10.269,7.684-13.924,12.99c-1.026,1.513-2.057,3.042-3.484,4.171
		c-1.066,0.843-2.327,1.415-3.346,2.292c-2.269,1.954-3.1,5.066-3.427,8.045c-0.481,4.361,0.499,9.724,4.596,11.317
		c3.416,1.353,7.14-0.676,10.257-2.63c4.011-2.527,8.205-5.209,10.52-9.357c1.972-3.501,2.384-7.765,4.527-11.168
		c3.02-4.785,8.722-6.991,13.237-10.361c1.697-1.254,3.312-2.865,3.679-4.945c0.608-3.61-2.578-6.813-5.57-8.939L2256.281,1376.439z
		"/>
	<path style="fill:#FFFFFF;" d="M2269.116,1363.237c-2.791,1.719-3.587,5.965-1.599,8.59c0.625,0.819,1.473,1.467,1.972,2.377
		c2,3.616-2.482,8.057-1.187,11.959c0.86,2.538,4.452,3.69,6.624,2.08c2.086-1.53,2.332-4.509,3.186-6.985
		c1.902-5.536,7.335-9.019,12.641-11.495c2.429-1.146,5.249-2.619,5.592-5.283c0.104-0.865-0.08-1.753-0.389-2.573
		c-1.307-3.529-4.825-6.114-8.595-6.286c-1.845-0.097-3.793,0.327-5.49-0.435c-3.106-1.392-3.306-5.604-3.954-8.95
		c-0.917-4.893-3.679-9.237-6.361-13.42c-1.14-1.759-2.366-3.616-4.286-4.458c-0.544-0.229-1.192-0.356-1.702-0.075
		c-0.418,0.247-0.648,0.711-0.831,1.163c-1.295,3.53-0.584,7.495,0.791,10.996c1.387,3.501,3.38,6.733,4.698,10.251
		c0.917,2.401,1.364,5.547-0.584,7.208L2269.116,1363.237z"/>
	<path style="fill:#FFFFFF;" d="M1130.811,615.074c-1.742,2.361-3.587,4.825-6.28,5.974c-3.931,1.682-9.214,0.341-12.108,3.507
		c-2.481,2.704-1.552,7.034,0,10.363c1.53,3.329,3.593,6.816,2.876,10.409c-0.229,1.226-0.79,2.501-0.315,3.656
		c0.527,1.364,2.223,1.828,3.679,2.037c4.309,0.604,8.721,0.481,12.979-0.361c2.309-0.458,4.728-1.209,6.24-3.008
		c0.951-1.117,1.444-2.516,1.948-3.888c1.026-2.911,2.074-5.833,3.083-8.736c0.607-1.69,1.215-3.484,0.894-5.249
		c-0.264-1.381-1.077-2.581-1.879-3.728c-2.212-3.111-4.55-6.151-7.14-8.95L1130.811,615.074z"/>
	<path style="fill:#FFFFFF;" d="M1063.31,514.341c-4.344-0.358-8.635-1.45-12.618-3.215c-2.246-1-4.447-2.232-6.887-2.473
		c-2.43-0.246-5.226,0.82-6.063,3.132c-1.043,3.028,1.662,5.994,4.292,7.822c3.982,2.748,8.464,4.948,11.621,8.61
		c1.874,2.172,3.203,4.779,5.283,6.756c2.848,2.701,6.996,3.942,10.859,3.252c3.277-0.587,6.245-2.479,9.535-3.051
		c1.708-0.293,3.449-0.238,5.134-0.596c3.22-0.691,5.914-2.811,8.469-4.88c2.011-1.618,4.229-3.687,3.954-6.251
		c-0.344-3.112-4.246-5.022-4.331-8.16c-0.057-1.35,0.659-2.622,0.659-3.965c0-2.954-3.438-4.897-6.366-4.547
		c-2.922,0.35-5.409,2.214-7.85,3.856c-2.453,1.636-5.283,2.911-8.223,2.911L1063.31,514.341z"/>
	<path style="fill:#FFFFFF;" d="M1531.503,399.363c-6.951,1.198-14.068,1.533-21.093,1.006c-2.338-0.186-4.756-0.455-7.036,0.141
		c-6.005,1.539-9.025,8.286-10.108,14.388c-0.424,2.278-0.7,4.638-1.845,6.644c-1.341,2.355-3.678,3.928-5.564,5.865
		c-2.287,2.361-3.994,5.467-4.028,8.767c-0.057,4.796,3.301,8.916,6.807,12.199c3.478,3.281,7.426,6.412,9.237,10.859
		c0.607,1.501,0.969,3.126,1.926,4.43c1.472,1.997,4.148,2.808,6.624,2.656c2.487-0.158,4.842-1.132,7.099-2.123
		c1.048-0.459,2.194-1.037,2.538-2.132c0.356-1.169-0.43-2.433-1.478-3.066c-1.043-0.641-2.292-0.836-3.461-1.154
		c-5.438-1.447-10.062-6.126-10.692-11.704c-0.298-2.902,0.424-5.839,1.616-8.501c1.741-3.911,4.447-7.32,7.128-10.664
		c2.808-3.515,5.662-7.085,9.386-9.612c6.555-4.452,15.036-5.252,21.66-9.578c2.733-1.776,5.123-4.137,8.137-5.341
		c2.625-1.043,5.536-1.128,8.263-1.816c2.734-0.697,5.57-2.287,6.406-4.98c0.952-3.068-1.249-6.515-4.275-7.632
		c-3.02-1.115-6.475-0.287-9.202,1.404c-2.739,1.69-5.283,3.979-7.369,6.412L1531.503,399.363z"/>
	<path style="fill:#FFFFFF;" d="M1501.769,1137.417c-2.235,0-4.2,1.536-5.421,3.393c-1.244,1.845-1.903,4.011-2.751,6.063
		c-3.633,8.761-11.288,15.781-20.33,18.646c-1.49,0.476-3.049,0.866-4.263,1.845c-1.283,1.037-1.994,2.63-2.682,4.149
		c-0.849,1.954-1.73,3.976-1.811,6.12c-0.138,4.286,2.957,8.303,2.418,12.56c-0.207,1.564-0.883,3.1-0.711,4.664
		c0.275,2.366,2.361,4.028,3.982,5.793c0.613,0.682,1.198,1.49,1.198,2.418c0.023,1.266-1.111,2.304-2.315,2.739
		c-1.192,0.447-2.51,0.482-3.748,0.837c-4.114,1.112-6.71,5.513-6.756,9.776c-0.028,4.246,2.046,8.269,4.693,11.604
		c3.186,3.976,8.194,7.432,13.122,6.102c2.487-0.682,4.527-2.481,6.406-4.246c3.003-2.791,6.148-6.074,6.326-10.166
		c0.137-3.077-1.479-6.005-1.616-9.105c-0.241-5.542,4.171-10.274,4.859-15.769c0.596-4.767-1.616-9.856,0.298-14.251
		c0.928-2.121,2.728-3.731,4.125-5.593c4.006-5.363,4.596-12.469,5.032-19.156c0.263-4.137,0.469-8.337,0.745-12.469
		L1501.769,1137.417z"/>
	<path style="fill:#FFFFFF;" d="M1694.439,978.234c-0.957-0.618-2.303-0.292-3.163,0.464c-0.848,0.762-1.347,1.828-1.788,2.883
		c-0.705,1.547-1.404,3.129-1.685,4.818c-0.39,2.304-0.012,4.676,0.097,7.014c0.143,2.555-0.057,5.128-0.573,7.638
		c-0.201,0.957-0.418,2.028,0.109,2.882c0.527,0.831,1.616,1.112,2.601,1.272c1.902,0.304,3.828,0.464,5.747,0.476
		c1.22,0.011,2.481-0.035,3.627-0.464c2.876-1.071,4.458-4.332,4.504-7.421c0.046-3.065-1.135-6.028-2.292-8.87
		c-1.318-3.255-2.567-6.807-5.157-9.191L1694.439,978.234z"/>
	<path style="fill:#FFFFFF;" d="M824.208,1452.209c-2.355-0.539-4.711-1.083-7.065-1.61c-2.395-0.55-5.111-1.066-7.214,0.218
		c-2,1.226-2.836,3.736-2.819,6.091c0.011,1.026,0.178,2.108,0.785,2.939c0.842,1.147,2.326,1.588,3.736,1.817
		c1.461,0.258,2.946,0.384,4.412,0.367c0.452,0,0.917-0.011,1.318-0.195c0.854-0.378,1.249-1.352,1.948-1.96
		c0.871-0.756,2.097-0.928,3.22-1.186c4.115-0.98,7.919-4.183,8.464-8.372c0.029-0.292,0.063-0.595-0.097-0.831
		c-0.149-0.281-0.458-0.418-0.768-0.51c-1.536-0.452-3.266-0.109-4.549,0.848L824.208,1452.209z"/>
</g>
<line style="fill:none;stroke:#4E2D17;stroke-width:17.603;stroke-linecap:round;stroke-linejoin:round;stroke-miterlimit:10;" x1="462.033" y1="1561.832" x2="2033.309" y2="1561.832"/>
<g>
	<g>
		<g>
			<path style="fill:#FFFFFF;" d="M876.014,1444.261c-119.25,0-216.273-97.028-216.273-216.285
				c0-119.256,97.023-216.278,216.273-216.278c119.267,0,216.296,97.022,216.296,216.278
				C1092.31,1347.233,995.281,1444.261,876.014,1444.261z"/>
			<path style="fill:#4E2D17;" d="M876.014,1017.262c116.391,0,210.732,94.336,210.732,210.715
				c0,116.379-94.341,210.721-210.732,210.721c-116.368,0-210.709-94.342-210.709-210.721
				C665.305,1111.598,759.646,1017.262,876.014,1017.262 M876.014,1006.14c-122.316,0-221.837,99.516-221.837,221.837
				c0,122.327,99.522,221.843,221.837,221.843c122.333,0,221.86-99.516,221.86-221.843
				C1097.874,1105.655,998.347,1006.14,876.014,1006.14L876.014,1006.14z"/>
		</g>
		<g>
			<g>
				<path style="fill:#FFD600;" d="M876.014,1444.261c-51.268,0-101.074-18.399-140.24-51.8c-1.61-1.381-2.304-3.553-1.782-5.604
					c25.361-99.693,89.413-202.83,90.055-203.862c1.015-1.621,2.802-2.613,4.716-2.613c1.92,0,3.702,0.992,4.716,2.613
					c3.473,5.558,85.173,137.289,98.622,248.683c0.332,2.79-1.467,5.392-4.195,6.068
					C910.338,1442.067,892.878,1444.261,876.014,1444.261z"/>
				<path style="fill:#4E2D17;" d="M828.763,1185.946c0,0,84.36,134.957,97.814,246.396c-16.228,3.994-33.097,6.355-50.562,6.355
					c-52.168,0-99.82-19.076-136.63-50.471C764.826,1288.223,828.763,1185.946,828.763,1185.946 M828.763,1174.824
					c-3.839,0-7.403,1.972-9.432,5.226c-2.647,4.235-65.152,104.907-90.731,205.431c-1.043,4.109,0.344,8.458,3.564,11.208
					c40.174,34.26,91.259,53.13,143.85,53.13c17.316,0,35.217-2.247,53.222-6.676c5.455-1.341,9.059-6.55,8.389-12.137
					c-5.73-47.417-24.216-104.094-54.964-168.449c-22.783-47.687-43.584-81.11-44.466-82.508
					C836.166,1176.795,832.602,1174.824,828.763,1174.824L828.763,1174.824z"/>
			</g>
			<g>
				<path style="fill:#FFD600;" d="M1078.328,1289.731c-112.122-11.971-246.832-95.516-252.516-99.069
					c-1.622-1.015-2.613-2.797-2.613-4.716c0-1.92,0.991-3.702,2.613-4.716c1.088-0.682,109.83-68.212,212.027-92.06
					c0.418-0.097,0.848-0.149,1.266-0.149c1.645,0,3.232,0.734,4.303,2.04c31.533,38.495,48.901,87.121,48.901,136.916
					c0,19.059-2.705,38.478-8.034,57.708c-0.67,2.43-2.882,4.08-5.352,4.08C1078.723,1289.765,1078.529,1289.754,1078.328,1289.731z
					"/>
				<path style="fill:#4E2D17;" d="M1039.105,1094.584c29.762,36.335,47.64,82.778,47.64,133.392
					c0,19.494-2.865,38.312-7.828,56.225c-112.139-11.971-250.155-98.255-250.155-98.255S936.616,1118.502,1039.105,1094.584
					 M1039.105,1083.462c-0.837,0-1.685,0.092-2.527,0.287c-103.103,24.066-209.248,89.969-213.717,92.765
					c-3.244,2.034-5.226,5.598-5.226,9.432c0,3.833,1.983,7.397,5.232,9.432c1.427,0.894,35.602,22.176,84.148,45.251
					c65.53,31.155,122.969,49.537,170.724,54.631c0.401,0.046,0.796,0.063,1.192,0.063c4.939,0,9.363-3.295,10.71-8.154
					c5.461-19.711,8.234-39.63,8.234-59.192c0-51.078-17.821-100.953-50.162-140.44
					C1045.569,1084.924,1042.394,1083.462,1039.105,1083.462L1039.105,1083.462z"/>
			</g>
			<g>
				<path style="fill:#FFD600;" d="M828.763,1191.51c-1.913,0-3.701-0.991-4.716-2.613c-0.384-0.619-38.713-62.241-67.65-135.644
					c-0.968-2.458-0.074-5.266,2.144-6.704c35.12-22.8,75.741-34.85,117.474-34.85c9.947,0,20.187,0.842,32.226,2.647
					c1.628,0.246,3.06,1.198,3.92,2.602c0.86,1.398,1.054,3.112,0.527,4.67c-29.121,86.674-78.71,166.484-79.208,167.274
					C832.465,1190.519,830.683,1191.51,828.763,1191.51z"/>
				<path style="fill:#4E2D17;" d="M876.014,1017.262c10.704,0,21.121,1.043,31.401,2.584c-29.247,87.053-78.652,166.1-78.652,166.1
					s-38.105-60.958-67.191-134.734C794.554,1029.799,833.794,1017.262,876.014,1017.262 M876.014,1006.14
					c-42.816,0-84.486,12.36-120.5,35.745c-4.441,2.876-6.229,8.486-4.292,13.409c29.126,73.879,66.527,134.028,68.108,136.549
					c2.029,3.255,5.593,5.226,9.432,5.226l0,0c3.839,0,7.403-1.971,9.432-5.226c2.04-3.272,50.437-81.162,79.764-168.454
					c1.049-3.117,0.665-6.538-1.054-9.346c-1.719-2.808-4.584-4.711-7.839-5.198C896.746,1006.999,886.248,1006.14,876.014,1006.14
					L876.014,1006.14z"/>
			</g>
			<g>
				<path style="fill:#FFD600;" d="M668.399,1268.225c-0.991,0-1.971-0.264-2.842-0.779c-1.41-0.843-2.378-2.258-2.648-3.874
					c-2.132-12.83-3.169-24.474-3.169-35.596c0-39.137,10.784-77.678,31.183-111.463c1.032-1.708,2.865-2.688,4.762-2.688
					c0.688,0,1.381,0.126,2.051,0.396c72.676,28.845,133.369,66.63,133.977,67.008c1.621,1.021,2.613,2.802,2.613,4.716
					c0,1.919-0.992,3.701-2.613,4.716c-0.762,0.475-77.122,47.961-161.493,77.254
					C669.631,1268.122,669.007,1268.225,668.399,1268.225z"/>
				<path style="fill:#4E2D17;" d="M695.686,1119.391c73.048,28.995,133.077,66.556,133.077,66.556s-75.615,47.291-160.364,76.715
					c-1.879-11.306-3.094-22.835-3.094-34.685C665.305,1188.204,676.524,1151.124,695.686,1119.391 M695.686,1108.263
					c-3.793,0-7.46,1.96-9.523,5.375c-20.926,34.656-31.986,74.188-31.986,114.339c0,11.432,1.066,23.373,3.249,36.507
					c0.533,3.238,2.47,6.068,5.289,7.742c1.742,1.031,3.707,1.558,5.684,1.558c1.226,0,2.464-0.201,3.644-0.613
					c84.956-29.499,159.487-75.833,162.622-77.792c3.243-2.034,5.22-5.598,5.226-9.432c0-3.834-1.977-7.398-5.226-9.432
					c-2.487-1.552-61.725-38.432-134.876-67.461C698.448,1108.52,697.061,1108.263,695.686,1108.263L695.686,1108.263z"/>
			</g>
		</g>
		<g>
			<g>
				<path style="fill:#808285;" d="M826.299,1209.749c-1.759,0-3.49-0.281-5.145-0.831c-4.263-1.409-7.822-4.59-10.011-8.951
					c-2.917-5.816-3.255-13.168-0.922-20.17c3.427-10.383,12.073-17.643,21.018-17.643c1.753,0,3.49,0.281,5.146,0.831
					c4.24,1.392,7.799,4.561,9.987,8.91c2.928,5.805,3.278,13.162,0.957,20.193C843.891,1202.483,835.244,1209.749,826.299,1209.749
					z"/>
				<path style="fill:#4E2D17;" d="M831.238,1167.718c1.146,0,2.281,0.178,3.392,0.545c7.324,2.406,10.647,12.297,7.415,22.078
					c-2.739,8.297-9.328,13.844-15.747,13.844c-1.146,0-2.281-0.178-3.392-0.545c-7.335-2.424-10.658-12.331-7.415-22.09
					C818.231,1173.259,824.821,1167.718,831.238,1167.718 M831.238,1156.596L831.238,1156.596c-11.483,0-22.061,8.624-26.313,21.459
					c-2.773,8.383-2.326,17.282,1.249,24.405c2.853,5.696,7.564,9.867,13.237,11.741c2.212,0.734,4.532,1.106,6.888,1.106
					c11.495,0,22.061-8.63,26.313-21.477c2.773-8.418,2.315-17.328-1.272-24.445c-2.865-5.673-7.564-9.827-13.237-11.69
					C835.914,1156.969,833.588,1156.596,831.238,1156.596L831.238,1156.596z"/>
			</g>
		</g>
		<g>
			<path style="fill:#BCBEC0;" d="M1028.298,1082.586c7.151,21.173,11.185,43.761,11.185,67.347
				c0,116.385-94.341,210.732-210.721,210.732c-59.926,0-113.892-25.155-152.261-65.318
				c28.112,83.299,106.718,143.351,199.513,143.351c116.391,0,210.732-94.342,210.732-210.721
				C1086.746,1171.547,1064.433,1120.41,1028.298,1082.586z"/>
		</g>
	</g>
	<g>
		<g>
			<g>
				<g>
					<g>
						<path style="fill:#F8F2E4;" d="M1495.271,1245.723c-0.229,0-0.453-0.018-0.677-0.057l-188.843-29.871
							c-2.326-0.367-3.919-2.55-3.552-4.877l63.089-398.847c0.338-2.1,2.149-3.599,4.206-3.599c0.229,0,0.453,0.017,0.677,0.052
							l188.854,29.868c1.117,0.178,2.12,0.791,2.785,1.708c0.665,0.914,0.94,2.057,0.762,3.175l-63.106,398.844
							C1499.139,1244.222,1497.328,1245.723,1495.271,1245.723z"/>
						<path style="fill:#4E2D17;" d="M1369.506,812.739l188.854,29.868l-63.1,398.847l-188.843-29.871L1369.506,812.739
							 M1369.494,804.206c-4.125,0-7.747,2.997-8.412,7.2l-63.089,398.841c-0.739,4.658,2.435,9.025,7.094,9.764l188.843,29.871
							c0.446,0.069,0.894,0.103,1.341,0.103c4.126,0,7.747-2.997,8.412-7.197l63.1-398.85c0.355-2.234-0.195-4.518-1.524-6.349
							c-1.33-1.831-3.335-3.057-5.57-3.41l-188.854-29.868C1370.388,804.241,1369.941,804.206,1369.494,804.206L1369.494,804.206z"
							/>
					</g>
				</g>
				<g>
					<g>
						<path style="fill:#399FD9;" d="M1494.595,1245.666l-188.843-29.871c-1.117-0.178-2.12-0.791-2.785-1.702
							c-0.664-0.917-0.939-2.057-0.767-3.174l9.111-57.536c0.338-2.103,2.149-3.604,4.206-3.604c0.229,0,0.453,0.017,0.676,0.057
							l188.832,29.877c2.326,0.367,3.919,2.55,3.547,4.876l-9.105,57.531c-0.172,1.117-0.785,2.12-1.696,2.785
							c-0.733,0.533-1.616,0.814-2.51,0.814C1495.036,1245.717,1494.812,1245.7,1494.595,1245.666z"/>
						<path style="fill:#4E2D17;" d="M1315.528,1154.046l188.831,29.877l-9.1,57.531l-188.843-29.871L1315.528,1154.046
							 M1315.516,1145.514c-4.126,0-7.747,2.997-8.412,7.197l-9.111,57.537c-0.356,2.234,0.195,4.521,1.524,6.349
							c1.33,1.834,3.335,3.06,5.57,3.415l188.843,29.871c0.441,0.069,0.882,0.103,1.329,0.103c1.788,0,3.553-0.567,5.02-1.633
							c1.828-1.33,3.06-3.329,3.404-5.564l9.099-57.531c0.739-4.659-2.435-9.025-7.093-9.764l-188.832-29.877
							C1316.41,1145.549,1315.963,1145.514,1315.516,1145.514L1315.516,1145.514z"/>
					</g>
				</g>
				<g>
					<g>
						<path style="fill:#399FD9;" d="M1508.061,1164.807c-0.218,0-0.441-0.017-0.665-0.057l-188.843-29.866
							c-2.326-0.367-3.92-2.544-3.553-4.871l0.854-5.415c0.166-1.118,0.785-2.126,1.702-2.791c0.733-0.533,1.616-0.814,2.51-0.814
							c0.224,0,0.447,0.017,0.665,0.052l188.866,29.871c1.123,0.178,2.126,0.791,2.796,1.708c0.654,0.917,0.928,2.063,0.751,3.18
							l-0.877,5.409C1511.934,1163.312,1510.124,1164.807,1508.061,1164.807z"/>
						<path style="fill:#4E2D17;" d="M1320.066,1125.258l188.866,29.871l-0.871,5.409l-188.843-29.866L1320.066,1125.258
							 M1320.066,1116.726c-1.799,0-3.553,0.568-5.02,1.633c-1.834,1.335-3.06,3.34-3.409,5.581l-0.849,5.415
							c-0.728,4.647,2.447,9.008,7.1,9.747l188.843,29.865c0.447,0.069,0.894,0.103,1.341,0.103c4.115,0,7.736-2.985,8.412-7.174
							l0.871-5.409c0.361-2.24-0.183-4.526-1.513-6.366c-1.329-1.834-3.335-3.066-5.581-3.421l-188.866-29.871
							C1320.954,1116.76,1320.513,1116.726,1320.066,1116.726L1320.066,1116.726z"/>
					</g>
				</g>
				<g>
					<polygon style="fill:#4E2D17;" points="1347.788,1026.55 1346.757,1033.048 1377.311,1037.885 1378.33,1031.387 					"/>
					<polygon style="fill:#4E2D17;" points="1346.367,1035.513 1344.374,1048.153 1374.927,1052.972 1376.909,1040.337 					"/>
					<polygon style="fill:#4E2D17;" points="1350.493,1009.526 1348.98,1019.01 1379.545,1023.84 1381.024,1014.357 					"/>
					<polygon style="fill:#4E2D17;" points="1348.602,1021.462 1348.178,1024.098 1378.72,1028.935 1379.144,1026.293 					"/>
					<polygon style="fill:#4E2D17;" points="1341.589,1065.71 1340.878,1070.272 1371.419,1075.102 1372.142,1070.535 					"/>
					<polygon style="fill:#4E2D17;" points="1343.984,1050.611 1343.571,1053.241 1374.113,1058.066 1374.525,1055.436 					"/>
					<polygon style="fill:#4E2D17;" points="1343.181,1055.7 1341.99,1063.246 1372.543,1068.082 1373.723,1060.53 					"/>
					
						<rect x="1353.089" y="1061.969" transform="matrix(0.1563 -0.9877 0.9877 0.1563 79.3765 2247.7813)" style="fill:#4E2D17;" width="4.618" height="30.92"/>
					<polygon style="fill:#4E2D17;" points="1339.377,1079.755 1337.509,1091.507 1368.062,1096.338 1369.918,1084.585 					"/>
					
						<rect x="1362.021" y="989.188" transform="matrix(0.1559 -0.9878 0.9878 0.1559 161.4757 2198.2625)" style="fill:#4E2D17;" width="9.778" height="30.933"/>
					<polygon style="fill:#4E2D17;" points="1356.407,972.131 1356.028,974.412 1386.581,979.242 1386.948,976.962 					"/>
					<polygon style="fill:#4E2D17;" points="1356.785,969.673 1387.327,974.51 1389.538,960.631 1358.974,955.8 					"/>
					<polygon style="fill:#4E2D17;" points="1355.65,976.876 1355.318,978.979 1385.86,983.815 1386.203,981.706 					"/>
					<polygon style="fill:#4E2D17;" points="1353.209,992.318 1352.785,994.943 1383.338,999.785 1383.751,997.149 					"/>
					<polygon style="fill:#4E2D17;" points="1354.928,981.432 1353.576,989.861 1384.141,994.697 1385.47,986.268 					"/>
				</g>
				<g>
					<g>
						<polygon style="fill:#D6D2C7;" points="1367.214,827.147 1542.373,854.846 1481.564,1239.282 1495.26,1241.454 
							1558.36,842.607 1369.506,812.739 						"/>
					</g>
				</g>
				<path style="fill:#4E2D17;" d="M1518.501,910.091l0.458-2.991l-11.174-19.637c0.47-3.633,0.699-6.784,0.539-9.036
					c-0.161-2.149-1.49-6.67-2.842-6.876c-1.341-0.224-3.999,3.659-4.813,5.67c-0.848,2.086-1.593,5.154-2.269,8.753l-16.687,15.24
					l-0.481,2.994l15.391-6.042c-1.077,9.28-1.765,18.919-2.074,24.144l-5.868,5.352l-0.195,1.249l6.464-2.538l0.091,0.011
					l0.413,3.627l1.547,0.241l1.49-3.323l0.103,0.023l5.363,4.413l0.207-1.249l-3.92-6.905c1.295-5.071,3.633-14.44,5.467-23.602
					L1518.501,910.091z"/>
				
					<line style="fill:#F8F2E4;stroke:#4E2D17;stroke-width:4.2659;stroke-linecap:square;stroke-miterlimit:10;" x1="1401.148" y1="1101.575" x2="1439.723" y2="857.689"/>
				
					<line style="fill:#F8F2E4;stroke:#4E2D17;stroke-width:4.2659;stroke-linecap:square;stroke-miterlimit:10;" x1="1420.137" y1="1104.578" x2="1458.713" y2="860.697"/>
				
					<line style="fill:#F8F2E4;stroke:#4E2D17;stroke-width:4.2659;stroke-linecap:square;stroke-miterlimit:10;" x1="1439.116" y1="1107.587" x2="1477.691" y2="863.697"/>
				
					<line style="fill:#F8F2E4;stroke:#4E2D17;stroke-width:4.2659;stroke-linecap:square;stroke-miterlimit:10;" x1="1458.22" y1="1109.901" x2="1483.066" y2="952.723"/>
				
					<line style="fill:#F8F2E4;stroke:#4E2D17;stroke-width:4.2659;stroke-linecap:square;stroke-miterlimit:10;" x1="1477.198" y1="1112.893" x2="1502.055" y2="955.726"/>
				<g>
					<g>
						<path style="fill:#F8F2E4;" d="M1346.253,1207.503c-0.997,0-2.006-0.08-3.02-0.241c-5.042-0.797-9.478-3.518-12.474-7.656
							c-3.003-4.126-4.206-9.174-3.404-14.211c1.473-9.334,9.397-16.119,18.852-16.119c0.985,0,1.994,0.08,3.008,0.241
							c10.412,1.65,17.546,11.454,15.89,21.86C1363.626,1200.724,1355.702,1207.503,1346.253,1207.503z"/>
						<path style="fill:#4E2D17;" d="M1346.207,1173.546c0.767,0,1.552,0.057,2.338,0.183c8.103,1.284,13.638,8.876,12.354,16.985
							c-1.158,7.306-7.472,12.526-14.646,12.526c-0.774,0-1.558-0.063-2.349-0.189c-8.091-1.284-13.626-8.882-12.331-16.984
							C1332.718,1178.76,1339.033,1173.546,1346.207,1173.546 M1346.207,1165.014L1346.207,1165.014
							c-11.563,0-21.265,8.297-23.064,19.729c-0.98,6.143,0.499,12.314,4.166,17.368c3.667,5.06,9.088,8.389,15.254,9.369
							c1.22,0.189,2.464,0.292,3.69,0.292c11.558,0,21.259-8.297,23.069-19.723c2.017-12.732-6.704-24.726-19.442-26.748
							C1348.671,1165.111,1347.433,1165.014,1346.207,1165.014L1346.207,1165.014z"/>
					</g>
				</g>
			</g>
			<g>
				<g>
					<g>
						<path style="fill:#F8F2E4;" d="M1557.512,1367.872c-0.705,0-1.409-0.172-2.045-0.516l-167.848-91.573
							c-2.068-1.129-2.825-3.725-1.702-5.793l193.392-354.484c0.545-0.991,1.462-1.73,2.544-2.045
							c0.396-0.115,0.802-0.172,1.203-0.172c0.705,0,1.409,0.172,2.046,0.516l167.836,91.573c2.057,1.129,2.825,3.725,1.702,5.793
							l-193.381,354.484c-0.545,0.992-1.462,1.73-2.544,2.046C1558.32,1367.815,1557.913,1367.872,1557.512,1367.872z"/>
						<path style="fill:#4E2D17;" d="M1583.057,917.551l167.836,91.574l-193.381,354.484l-167.848-91.574L1583.057,917.551
							 M1583.057,909.019c-0.808,0-1.616,0.115-2.406,0.35c-2.177,0.636-4,2.109-5.089,4.097l-193.387,354.484
							c-2.258,4.137-0.739,9.317,3.403,11.575l167.848,91.573c1.266,0.688,2.665,1.043,4.086,1.043c0.808,0,1.616-0.115,2.406-0.35
							c2.172-0.636,4-2.109,5.077-4.097l193.387-354.484c2.258-4.137,0.733-9.317-3.404-11.575l-167.836-91.573
							C1585.876,909.375,1584.466,909.019,1583.057,909.019L1583.057,909.019z"/>
					</g>
				</g>
				<g>
					<g>
						<path style="fill:#399FD9;" d="M1557.512,1367.872c-0.705,0-1.409-0.172-2.045-0.516l-167.848-91.567
							c-0.992-0.544-1.73-1.461-2.046-2.544c-0.321-1.083-0.195-2.252,0.349-3.249l27.906-51.13
							c0.773-1.415,2.229-2.223,3.748-2.223c0.687,0,1.387,0.172,2.04,0.522l167.836,91.562c2.063,1.128,2.825,3.724,1.702,5.793
							l-27.894,51.136c-0.545,0.992-1.462,1.73-2.544,2.046C1558.32,1367.815,1557.913,1367.872,1557.512,1367.872z"/>
						<path style="fill:#4E2D17;" d="M1417.57,1220.911l167.836,91.562l-27.894,51.136l-167.848-91.568L1417.57,1220.911
							 M1417.582,1212.379c-3.025,0-5.948,1.605-7.507,4.447l-27.9,51.13c-1.083,1.983-1.336,4.32-0.694,6.493
							c0.63,2.172,2.109,3.999,4.097,5.083l167.848,91.567c1.266,0.693,2.665,1.043,4.086,1.043c0.808,0,1.616-0.115,2.406-0.35
							c2.172-0.636,4-2.109,5.077-4.097l27.9-51.136c2.257-4.137,0.734-9.317-3.404-11.575l-167.836-91.562
							C1420.355,1212.712,1418.957,1212.379,1417.582,1212.379L1417.582,1212.379z"/>
					</g>
				</g>
				<g>
					<g>
						<path style="fill:#399FD9;" d="M1596.752,1295.97c-0.705,0-1.409-0.172-2.045-0.516l-167.837-91.573
							c-2.057-1.129-2.825-3.707-1.713-5.776l2.607-4.819c0.539-0.997,1.455-1.736,2.538-2.063c0.401-0.115,0.802-0.172,1.215-0.172
							c0.705,0,1.41,0.172,2.046,0.516l167.859,91.573c2.063,1.129,2.825,3.719,1.702,5.787l-2.624,4.819
							c-0.545,0.997-1.456,1.73-2.544,2.051C1597.554,1295.913,1597.159,1295.97,1596.752,1295.97z"/>
						<path style="fill:#4E2D17;" d="M1431.517,1195.315l167.859,91.574l-2.625,4.819l-167.836-91.574L1431.517,1195.315
							 M1431.517,1186.782c-0.813,0-1.627,0.115-2.424,0.35c-2.177,0.648-4.005,2.132-5.083,4.131l-2.601,4.819
							c-2.235,4.131-0.699,9.289,3.421,11.541l167.836,91.573c1.266,0.688,2.67,1.043,4.086,1.043c0.802,0,1.616-0.115,2.406-0.35
							c2.177-0.636,4-2.115,5.088-4.103l2.625-4.819c2.246-4.137,0.722-9.311-3.41-11.569l-167.859-91.573
							C1434.337,1187.132,1432.932,1186.782,1431.517,1186.782L1431.517,1186.782z"/>
					</g>
				</g>
				<g>
					<polygon style="fill:#4E2D17;" points="1490.778,1111.66 1487.639,1117.431 1514.777,1132.243 1517.94,1126.462 					"/>
					<polygon style="fill:#4E2D17;" points="1486.447,1119.619 1480.304,1130.851 1507.465,1145.663 1513.596,1134.426 					"/>
					<polygon style="fill:#4E2D17;" points="1499.03,1096.527 1494.446,1104.945 1521.595,1119.763 1526.191,1111.339 					"/>
					
						<rect x="1504.85" y="1100.246" transform="matrix(0.4793 -0.8776 0.8776 0.4793 -194.958 1902.8019)" style="fill:#4E2D17;" width="2.675" height="30.929"/>
					
						<rect x="1481.96" y="1140.42" transform="matrix(0.4787 -0.878 0.878 0.4787 -241.13 1905.6316)" style="fill:#4E2D17;" width="4.618" height="30.929"/>
					<polygon style="fill:#4E2D17;" points="1479.112,1133.04 1477.84,1135.378 1505.001,1150.184 1506.261,1147.846 					"/>
					
						<rect x="1484.576" y="1132.858" transform="matrix(0.4796 -0.8775 0.8775 0.4796 -233.0766 1903.6301)" style="fill:#4E2D17;" width="7.649" height="30.926"/>
					<polygon style="fill:#4E2D17;" points="1493.323,1171.569 1495.546,1167.512 1468.385,1152.694 1466.173,1156.756 					"/>
					<polygon style="fill:#4E2D17;" points="1464.993,1158.934 1459.297,1169.386 1486.447,1184.198 1492.131,1173.752 					"/>
					
						<rect x="1511.258" y="1081.983" transform="matrix(0.4795 -0.8775 0.8775 0.4795 -173.9088 1901.7017)" style="fill:#4E2D17;" width="9.775" height="30.94"/>
					<polygon style="fill:#4E2D17;" points="1517.183,1063.287 1516.072,1065.315 1543.221,1080.128 1544.333,1078.099 					"/>
					<polygon style="fill:#4E2D17;" points="1518.375,1061.098 1545.501,1075.916 1552.24,1063.584 1525.091,1048.772 					"/>
					<polygon style="fill:#4E2D17;" points="1514.868,1067.498 1513.848,1069.372 1541.009,1084.185 1542.018,1082.31 					"/>
					<polygon style="fill:#4E2D17;" points="1507.385,1081.228 1506.101,1083.565 1533.262,1098.384 1534.534,1096.04 					"/>
					<polygon style="fill:#4E2D17;" points="1512.668,1071.567 1508.576,1079.044 1535.726,1093.857 1539.795,1086.362 					"/>
				</g>
				<g>
					<g>
						<polygon style="fill:#D6D2C7;" points="1576.054,930.364 1731.743,1015.296 1545.341,1356.968 1557.512,1363.609 
							1750.893,1009.125 1583.057,917.551 						"/>
					</g>
				</g>
				<path style="fill:#4E2D17;" d="M1690.681,1059.304l1.456-2.665l-3.931-22.261c1.662-3.255,2.946-6.143,3.541-8.32
					c0.573-2.085,0.826-6.784-0.355-7.437c-1.203-0.654-5.008,2.114-6.452,3.736c-1.502,1.668-3.243,4.315-5.077,7.478
					l-20.847,8.738l-1.444,2.659l16.515-0.505c-4.126,8.378-7.999,17.225-10.051,22.05l-7.323,3.06l-0.607,1.112l6.934-0.229
					l0.092,0.052l-0.837,3.541l1.375,0.756l2.521-2.63l0.092,0.052l3.576,5.953l0.607-1.106l-1.375-7.81
					c2.934-4.343,8.275-12.388,13.076-20.405L1690.681,1059.304z"/>
				
					<line style="fill:#F8F2E4;stroke:#4E2D17;stroke-width:4.2659;stroke-linecap:square;stroke-miterlimit:10;" x1="1515.842" y1="1200.237" x2="1634.09" y2="983.488"/>
				
					<line style="fill:#F8F2E4;stroke:#4E2D17;stroke-width:4.2659;stroke-linecap:square;stroke-miterlimit:10;" x1="1532.712" y1="1209.457" x2="1650.97" y2="992.685"/>
				
					<line style="fill:#F8F2E4;stroke:#4E2D17;stroke-width:4.2659;stroke-linecap:square;stroke-miterlimit:10;" x1="1549.604" y1="1218.654" x2="1667.852" y2="1001.899"/>
				
					<line style="fill:#F8F2E4;stroke:#4E2D17;stroke-width:4.2659;stroke-linecap:square;stroke-miterlimit:10;" x1="1566.806" y1="1227.255" x2="1643.006" y2="1087.571"/>
				
					<line style="fill:#F8F2E4;stroke:#4E2D17;stroke-width:4.2659;stroke-linecap:square;stroke-miterlimit:10;" x1="1583.664" y1="1236.452" x2="1659.875" y2="1096.768"/>
				<g>
					<g>
						<path style="fill:#F8F2E4;" d="M1434.933,1282.688c-3.174,0-6.326-0.803-9.122-2.326c-9.26-5.06-12.67-16.692-7.633-25.935
							c3.346-6.149,9.776-9.965,16.778-9.965c3.18,0,6.338,0.808,9.145,2.344c4.475,2.436,7.741,6.481,9.185,11.38
							c1.444,4.894,0.888,10.062-1.558,14.543C1448.387,1278.872,1441.946,1282.688,1434.933,1282.688z"/>
						<path style="fill:#4E2D17;" d="M1434.956,1248.726c2.401,0,4.836,0.584,7.094,1.822c7.208,3.92,9.867,12.939,5.936,20.136
							c-2.693,4.939-7.793,7.741-13.053,7.741c-2.395,0-4.831-0.584-7.083-1.811c-7.208-3.943-9.844-12.962-5.925-20.147
							C1424.619,1251.527,1429.707,1248.726,1434.956,1248.726 M1434.956,1240.193L1434.956,1240.193
							c-8.567,0-16.434,4.675-20.526,12.194c-6.166,11.3-1.983,25.528,9.329,31.711c3.427,1.874,7.289,2.854,11.174,2.854
							c8.578,0,16.451-4.67,20.548-12.188c2.991-5.472,3.667-11.793,1.902-17.787c-1.764-5.994-5.764-10.938-11.254-13.924
							C1442.72,1241.185,1438.852,1240.193,1434.956,1240.193L1434.956,1240.193z"/>
					</g>
				</g>
			</g>
		</g>
		<g>
			<g>
				<g>
					<path style="fill:#808285;" d="M1090.046,1557.684c-12.881,0-23.356-9.719-23.356-21.66v-29.121
						c0-11.948,10.474-21.672,23.356-21.672c12.887,0,23.373,9.724,23.373,21.672v29.121
						C1113.42,1547.965,1102.933,1557.684,1090.046,1557.684z"/>
					<path style="fill:#4E2D17;" d="M1090.046,1489.81c10.383,0,18.795,7.65,18.795,17.093v29.121
						c0,9.438-8.411,17.081-18.795,17.081c-10.372,0-18.783-7.644-18.783-17.081v-29.121
						C1071.263,1497.46,1079.675,1489.81,1090.046,1489.81 M1090.046,1480.653c-15.403,0-27.94,11.776-27.94,26.25v29.121
						c0,14.469,12.537,26.238,27.94,26.238c15.414,0,27.952-11.769,27.952-26.238v-29.121
						C1117.998,1492.429,1105.461,1480.653,1090.046,1480.653L1090.046,1480.653z"/>
				</g>
				<g>
					<path style="fill:#B9BBBB;" d="M1090.046,1489.81c-0.103,0-0.229,0.011-0.332,0.011v63.261c0.103,0,0.229,0.023,0.332,0.023
						c10.383,0,18.795-7.644,18.795-17.081v-29.121C1108.841,1497.46,1100.43,1489.81,1090.046,1489.81z"/>
				</g>
			</g>
			<g>
				<g>
					<path style="fill:#808285;" d="M1305.041,1557.684c-12.892,0-23.379-9.719-23.379-21.66v-29.121
						c0-11.948,10.486-21.672,23.379-21.672c12.887,0,23.373,9.724,23.373,21.672v29.121
						C1328.415,1547.965,1317.928,1557.684,1305.041,1557.684z"/>
					<path style="fill:#4E2D17;" d="M1305.041,1489.81c10.372,0,18.795,7.65,18.795,17.093v29.121
						c0,9.438-8.424,17.081-18.795,17.081c-10.371,0-18.795-7.644-18.795-17.081v-29.121
						C1286.247,1497.46,1294.67,1489.81,1305.041,1489.81 M1305.041,1480.653c-15.414,0-27.951,11.776-27.951,26.25v29.121
						c0,14.469,12.537,26.238,27.951,26.238c15.414,0,27.952-11.769,27.952-26.238v-29.121
						C1332.993,1492.429,1320.456,1480.653,1305.041,1480.653L1305.041,1480.653z"/>
				</g>
				<g>
					<path style="fill:#B9BBBB;" d="M1305.041,1489.81c-0.114,0-0.229,0.011-0.332,0.011v63.261c0.103,0,0.218,0.023,0.332,0.023
						c10.372,0,18.795-7.644,18.795-17.081v-29.121C1323.837,1497.46,1315.413,1489.81,1305.041,1489.81z"/>
				</g>
			</g>
			<g>
				<g>
					<rect x="1111.804" y="685.206" style="fill:#BCBEC0;" width="21.11" height="302.77"/>
					<path style="fill:#4E2D17;" d="M1128.954,689.162v294.854h-13.191V689.162H1128.954 M1136.861,681.249h-7.907h-13.191h-7.913
						v7.913v294.854v7.913h7.913h13.191h7.907v-7.913V689.162V681.249L1136.861,681.249z"/>
				</g>
				<g>
					<rect x="1122.364" y="689.162" style="fill:#939598;" width="6.59" height="294.854"/>
				</g>
				<g>
					<rect x="1258.209" y="685.206" style="fill:#BCBEC0;" width="21.11" height="302.77"/>
					<path style="fill:#4E2D17;" d="M1275.36,689.162v294.854h-13.191V689.162H1275.36 M1283.273,681.249h-7.913h-13.191h-7.913
						v7.913v294.854v7.913h7.913h13.191h7.913v-7.913V689.162V681.249L1283.273,681.249z"/>
				</g>
				<g>
					<rect x="1268.77" y="689.162" style="fill:#939598;" width="6.59" height="294.854"/>
				</g>
			</g>
			<g>
				<path style="fill:#BE3C56;" d="M1069.957,1514.856c-30.02,0-54.442-24.416-54.442-54.43V1024.19
					c0-28.445,22.989-83.093,54.442-83.093h251.221c31.441,0,54.431,54.648,54.431,83.093v436.236
					c0,30.014-24.416,54.43-54.431,54.43H1069.957z"/>
				<path style="fill:#4E2D17;" d="M1321.177,945.056c27.757,0,50.471,51.377,50.471,79.134v436.236
					c0,27.762-22.714,50.471-50.471,50.471h-251.221c-27.757,0-50.483-22.708-50.483-50.471V1024.19
					c0-27.757,22.725-79.134,50.483-79.134H1321.177 M1321.177,937.143h-251.221c-34.312,0-58.396,56.47-58.396,87.047v436.236
					c0,32.192,26.193,58.384,58.396,58.384h251.221c32.192,0,58.385-26.193,58.385-58.384V1024.19
					C1379.562,993.613,1355.49,937.143,1321.177,937.143L1321.177,937.143z"/>
			</g>
			<g>
				<path style="fill:#F04E6C;" d="M1069.957,1514.856c-30.02,0-54.442-24.416-54.442-54.43V1025.92
					c0-30.014,24.422-54.436,54.442-54.436h251.221c30.015,0,54.431,24.422,54.431,54.436v434.506
					c0,30.014-24.416,54.43-54.431,54.43H1069.957z"/>
				<path style="fill:#4E2D17;" d="M1321.177,975.444c27.757,0,50.471,22.72,50.471,50.477v434.506
					c0,27.762-22.714,50.471-50.471,50.471h-251.221c-27.757,0-50.483-22.708-50.483-50.471V1025.92
					c0-27.757,22.725-50.477,50.483-50.477H1321.177 M1321.177,967.53h-251.221c-32.203,0-58.396,26.193-58.396,58.39v434.506
					c0,32.192,26.193,58.384,58.396,58.384h251.221c32.192,0,58.385-26.193,58.385-58.384V1025.92
					C1379.562,993.723,1353.37,967.53,1321.177,967.53L1321.177,967.53z"/>
			</g>
			<g>
				<path style="fill:#D2435F;" d="M1342.035,980.005c2.086,5.518,3.232,11.466,3.232,17.695v434.495
					c0,27.762-22.714,50.471-50.483,50.471h-251.21c-7.438,0-14.509-1.633-20.869-4.561c7.209,19.11,25.705,32.793,47.251,32.793
					h251.221c27.757,0,50.471-22.708,50.471-50.471V1025.92C1371.649,1005.59,1359.466,987.987,1342.035,980.005z"/>
			</g>
			<g>
				<path style="fill:#F04E6C;" d="M1091.364,713.57c-2.183,0-3.96-1.771-3.96-3.957v-36.931c0-2.186,1.777-3.957,3.96-3.957
					h208.406c2.183,0,3.959,1.771,3.959,3.957v36.931c0,2.186-1.776,3.957-3.959,3.957H1091.364z"/>
				<path style="fill:#4E2D17;" d="M1299.77,672.682v36.931h-208.406v-36.931H1299.77 M1299.77,664.769h-208.406
					c-4.372,0-7.913,3.544-7.913,7.913v36.931c0,4.369,3.541,7.913,7.913,7.913h208.406c4.372,0,7.908-3.544,7.908-7.913v-36.931
					C1307.678,668.313,1304.142,664.769,1299.77,664.769L1299.77,664.769z"/>
			</g>
			<g>
				<rect x="1091.364" y="691.148" style="fill:#D2435F;" width="208.406" height="18.466"/>
			</g>
			<g>
				<g>
					<path style="fill:#F04E6C;" d="M1076.202,1175.878c-10.916,0-19.798-8.876-19.798-19.786v-93.642
						c0-10.91,8.882-19.792,19.798-19.792h235.44c10.904,0,19.775,8.882,19.775,19.792v93.642c0,10.91-8.871,19.786-19.775,19.786
						H1076.202z"/>
					<path style="fill:#4E2D17;" d="M1311.642,1046.617c8.722,0,15.816,7.083,15.816,15.833v93.642
						c0,8.744-7.094,15.826-15.816,15.826h-235.44c-8.755,0-15.838-7.082-15.838-15.826v-93.642c0-8.75,7.083-15.833,15.838-15.833
						H1311.642 M1311.642,1038.704h-235.44c-13.099,0-23.751,10.652-23.751,23.746v93.642c0,13.093,10.652,23.74,23.751,23.74
						h235.44c13.088,0,23.735-10.647,23.735-23.74v-93.642C1335.377,1049.356,1324.73,1038.704,1311.642,1038.704L1311.642,1038.704
						z"/>
				</g>
				<g>
					<path style="fill:#D2435F;" d="M1314.256,1046.853c0,0.149,0.011,0.286,0.011,0.424v93.642c0,8.75-7.082,15.838-15.827,15.838
						H1063c-0.882,0-1.753-0.092-2.613-0.235c0.229,8.544,7.209,15.397,15.815,15.397h235.44c8.722,0,15.816-7.082,15.816-15.826
						v-93.642C1327.458,1054.605,1321.74,1048.102,1314.256,1046.853z"/>
				</g>
			</g>
			<g>
				<g>
					<path style="fill:#F04E6C;" d="M1076.202,1432.423c-10.916,0-19.798-8.876-19.798-19.786v-151.791
						c0-10.91,8.882-19.786,19.798-19.786h235.44c10.904,0,19.775,8.876,19.775,19.786v151.791c0,10.91-8.871,19.786-19.775,19.786
						H1076.202z"/>
					<path style="fill:#4E2D17;" d="M1311.642,1245.018c8.722,0,15.816,7.083,15.816,15.827v151.791
						c0,8.745-7.094,15.827-15.816,15.827h-235.44c-8.755,0-15.838-7.082-15.838-15.827v-151.791
						c0-8.744,7.083-15.827,15.838-15.827H1311.642 M1311.642,1237.105h-235.44c-13.099,0-23.751,10.652-23.751,23.74v151.791
						c0,13.088,10.652,23.74,23.751,23.74h235.44c13.088,0,23.735-10.652,23.735-23.74v-151.791
						C1335.377,1247.757,1324.73,1237.105,1311.642,1237.105L1311.642,1237.105z"/>
				</g>
				<g>
					<path style="fill:#D2435F;" d="M1314.256,1245.253c0,0.137,0.011,0.275,0.011,0.418v151.791
						c0,8.744-7.082,15.827-15.827,15.827H1063c-0.882,0-1.753-0.08-2.613-0.235c0.229,8.55,7.209,15.409,15.815,15.409h235.44
						c8.722,0,15.816-7.082,15.816-15.827v-151.791C1327.458,1252.995,1321.74,1246.497,1314.256,1245.253z"/>
				</g>
			</g>
			<g>
				<g>
					<path style="fill:#B9BBBB;" d="M1088.064,1280.734c-2.183,0-3.959-1.777-3.959-3.96v-11.202c0-2.183,1.777-3.959,3.959-3.959
						h211.041c2.183,0,3.959,1.776,3.959,3.959v11.202c0,2.183-1.776,3.96-3.959,3.96H1088.064z"/>
					<path style="fill:#4E2D17;" d="M1299.105,1265.572v11.202h-211.041v-11.202H1299.105 M1299.105,1257.659h-211.041
						c-4.372,0-7.913,3.542-7.913,7.914v11.202c0,4.373,3.541,7.914,7.913,7.914h211.041c4.367,0,7.919-3.541,7.919-7.914v-11.202
						C1307.024,1261.2,1303.472,1257.659,1299.105,1257.659L1299.105,1257.659z"/>
				</g>
				<g>
					<rect x="1088.064" y="1271.171" style="fill:#B9BBBB;" width="211.041" height="5.604"/>
				</g>
				<g>
					<path style="fill:#B9BBBB;" d="M1288.55,1305.139c-1.135,0-2.212-0.487-2.968-1.335c-0.745-0.848-1.094-1.977-0.962-3.1
						l3.621-30.009c0.241-1.989,1.931-3.484,3.931-3.484h3.301c2,0,3.69,1.495,3.931,3.484l3.633,30.009
						c0.132,1.123-0.218,2.252-0.969,3.1c-0.75,0.848-1.828,1.335-2.963,1.335H1288.55z"/>
					<path style="fill:#4E2D17;" d="M1295.472,1271.171l3.633,30.009h-10.555l3.622-30.009H1295.472 M1295.472,1263.257h-3.301
						c-4.005,0-7.38,2.991-7.862,6.963l-3.616,30.014c-0.269,2.246,0.43,4.504,1.931,6.195c1.502,1.696,3.656,2.664,5.925,2.664
						h10.555c2.264,0,4.424-0.969,5.925-2.664c1.502-1.696,2.2-3.954,1.931-6.2l-3.633-30.008
						C1302.847,1266.243,1299.472,1263.257,1295.472,1263.257L1295.472,1263.257z"/>
				</g>
			</g>
			<g>
				<g>
					<path style="fill:#B9BBBB;" d="M1088.064,1082.89c-2.183,0-3.959-1.777-3.959-3.959v-11.208c0-2.183,1.777-3.96,3.959-3.96
						h211.041c2.183,0,3.959,1.776,3.959,3.96v11.208c0,2.183-1.776,3.959-3.959,3.959H1088.064z"/>
					<path style="fill:#4E2D17;" d="M1299.105,1067.722v11.208h-211.041v-11.208H1299.105 M1299.105,1059.808h-211.041
						c-4.372,0-7.913,3.541-7.913,7.913v11.208c0,4.372,3.541,7.913,7.913,7.913h211.041c4.367,0,7.919-3.541,7.919-7.913v-11.208
						C1307.024,1063.349,1303.472,1059.808,1299.105,1059.808L1299.105,1059.808z"/>
				</g>
				<g>
					<rect x="1088.064" y="1073.32" style="fill:#B9BBBB;" width="211.041" height="5.61"/>
				</g>
				<g>
					<path style="fill:#B9BBBB;" d="M1288.55,1107.288c-1.135,0-2.212-0.487-2.968-1.336c-0.745-0.848-1.094-1.977-0.962-3.1
						l3.621-30.008c0.241-1.989,1.931-3.484,3.931-3.484h3.301c2,0,3.69,1.495,3.931,3.484l3.633,30.008
						c0.132,1.123-0.218,2.252-0.969,3.1c-0.75,0.849-1.828,1.336-2.963,1.336H1288.55z"/>
					<path style="fill:#4E2D17;" d="M1295.472,1073.32l3.633,30.009h-10.555l3.622-30.009H1295.472 M1295.472,1065.407h-3.301
						c-4.005,0-7.38,2.991-7.862,6.962l-3.616,30.014c-0.269,2.247,0.43,4.504,1.931,6.195c1.502,1.696,3.656,2.664,5.925,2.664
						h10.555c2.264,0,4.424-0.968,5.925-2.664c1.502-1.696,2.2-3.954,1.931-6.2l-3.633-30.009
						C1302.847,1068.392,1299.472,1065.407,1295.472,1065.407L1295.472,1065.407z"/>
				</g>
			</g>
		</g>
		<g>
			<g>
				<path style="fill:#FFD600;" d="M1454.152,1255.854c-9.719,0-17.334-10.325-17.334-23.499c0-13.185,7.615-23.516,17.334-23.516
					h35.481c9.719,0,17.334,10.332,17.334,23.516c0,13.174-7.615,23.499-17.334,23.499H1454.152z"/>
				<path style="fill:#4E2D17;" d="M1489.632,1213.806c6.831,0,12.366,8.303,12.366,18.548c0,10.234-5.536,18.531-12.366,18.531
					h-35.481c-6.831,0-12.366-8.297-12.366-18.531c0-10.246,5.536-18.548,12.366-18.548H1489.632 M1489.632,1203.876h-35.481
					c-12.504,0-22.302,12.509-22.302,28.479c0,15.959,9.798,28.462,22.302,28.462h35.481c12.503,0,22.302-12.503,22.302-28.462
					C1511.934,1216.385,1502.136,1203.876,1489.632,1203.876L1489.632,1203.876z"/>
			</g>
			<g>
				<path style="fill:#FFD600;" d="M1703.264,1255.854c-9.718,0-17.334-10.325-17.334-23.499c0-13.185,7.616-23.516,17.334-23.516
					h35.493c9.707,0,17.322,10.332,17.322,23.516c0,13.174-7.615,23.499-17.322,23.499H1703.264z"/>
				<path style="fill:#4E2D17;" d="M1738.757,1213.806c6.83,0,12.354,8.303,12.354,18.548c0,10.234-5.524,18.531-12.354,18.531
					h-35.493c-6.819,0-12.365-8.297-12.365-18.531c0-10.246,5.547-18.548,12.365-18.548H1738.757 M1738.757,1203.876h-35.493
					c-12.503,0-22.301,12.509-22.301,28.479c0,15.959,9.798,28.462,22.301,28.462h35.493c12.497,0,22.29-12.503,22.29-28.462
					C1761.047,1216.385,1751.254,1203.876,1738.757,1203.876L1738.757,1203.876z"/>
			</g>
			<g>
				<path style="fill:#9F5D22;" d="M1646.857,1250.914l0.011-30.473c0.052-11.008,0.103-20.514-4.653-25.293
					c-3.117-3.129-8.589-4.647-16.743-4.647h-59.009c-8.148,0-13.621,1.519-16.732,4.647c-4.756,4.779-4.704,14.285-4.653,25.287
					l0.017,30.479h-28.972l-0.017-47.881c-0.08-14.984-0.161-29.132,8.985-38.329c6.418-6.452,16.658-9.587,31.309-9.587h79.134
					c14.657,0,24.903,3.134,31.315,9.587c9.14,9.191,9.059,23.328,8.979,38.295l-0.023,47.915H1646.857z"/>
				<path style="fill:#4E2D17;" d="M1635.534,1160.086c37.784,0,35.309,21.23,35.309,47.446v38.414h-19.024v-21.791
					c0-21.334,1.834-38.622-26.348-38.622h-59.009c-28.17,0-26.336,17.288-26.336,38.622v21.791h-19.035v-38.414
					c0-26.216-2.453-47.446,35.309-47.446H1635.534 M1635.534,1150.155H1556.4c-16.044,0-27.436,3.61-34.828,11.048
					c-10.6,10.658-10.521,25.814-10.429,41.858l0.012,4.47v38.414v9.931h9.936h19.035h9.936v-9.931v-21.791l-0.023-3.742
					c-0.046-9.489-0.092-18.446,3.208-21.763c2.625-2.63,8.63-3.186,13.214-3.186h59.009c4.584,0,10.601,0.556,13.225,3.192
					c3.295,3.312,3.255,12.274,3.203,21.757l-0.017,3.742v21.791v9.931h9.936h19.024h9.936v-9.931v-38.414l0.012-4.504
					c0.091-16.033,0.172-31.172-10.418-41.824C1662.981,1153.766,1651.584,1150.155,1635.534,1150.155L1635.534,1150.155z"/>
			</g>
			<g style="opacity:0.5;">
				<g>
					<rect x="1521.091" y="1219.754" style="fill:#B96D2C;" width="19.035" height="7.982"/>
				</g>
				<g>
					<rect x="1651.819" y="1219.754" style="fill:#B96D2C;" width="19.024" height="7.982"/>
				</g>
				<g>
					<path style="fill:#B96D2C;" d="M1625.471,1177.546h-59.009c-27.482,0-26.405,16.474-26.336,37.085
						c0.16-16.715,2.51-29.098,26.336-29.098h59.009c23.837,0,26.187,12.383,26.348,29.098
						C1651.888,1194.02,1652.965,1177.546,1625.471,1177.546z"/>
				</g>
			</g>
			<g>
				<g>
					<path style="fill:#FAAA3F;" d="M1391.017,1560.956c-18.251,0-33.103-14.853-33.103-33.109v-261.736
						c0-18.257,14.852-33.109,33.103-33.109h410.851c18.262,0,33.121,14.852,33.121,33.109v261.736
						c0,18.256-14.859,33.109-33.121,33.109H1391.017z"/>
					<path style="fill:#4E2D17;" d="M1801.868,1237.97c15.494,0,28.158,12.658,28.158,28.141v261.736
						c0,15.483-12.664,28.141-28.158,28.141h-410.851c-15.471,0-28.135-12.658-28.135-28.141v-261.736
						c0-15.483,12.664-28.141,28.135-28.141H1801.868 M1801.868,1228.04h-410.851c-20.99,0-38.071,17.076-38.071,38.071v261.736
						c0,20.995,17.081,38.071,38.071,38.071h410.851c21.007,0,38.094-17.076,38.094-38.071v-261.736
						C1839.962,1245.115,1822.875,1228.04,1801.868,1228.04L1801.868,1228.04z"/>
				</g>
				<g>
					<g>
						<path style="fill:#9F5D22;" d="M1357.914,1309.562v-43.451c0-18.257,14.852-33.109,33.103-33.109h42.145v4.968
							c0.035,0.59,0.057,0.911,0.057,1.243c0,38.787-31.556,70.349-70.337,70.349H1357.914z"/>
						<path style="fill:#4E2D17;" d="M1428.194,1237.97c0,0.412,0.057,0.819,0.057,1.243c0,36.106-29.27,65.381-65.369,65.381
							v-38.484c0-15.483,12.664-28.141,28.135-28.141H1428.194 M1438.13,1227.965l-9.936,0.074h-37.177
							c-20.99,0-38.071,17.076-38.071,38.071v38.484v9.93h9.936c41.52,0,75.306-33.785,75.306-75.311
							c0-0.447-0.024-0.883-0.057-1.318V1227.965L1438.13,1227.965z"/>
					</g>
					<g>
						<path style="fill:#9F5D22;" d="M1830.027,1309.562c-38.788,0-70.349-31.562-70.349-70.349c0-0.333,0.373-5.598,0.373-5.598
							l4.652-0.613h37.166c18.262,0,33.121,14.852,33.121,33.109v43.451H1830.027z"/>
						<path style="fill:#4E2D17;" d="M1801.868,1237.97c15.494,0,28.158,12.658,28.158,28.141v38.484
							c-36.1,0-65.381-29.276-65.381-65.381c0-0.424,0.057-0.831,0.057-1.243H1801.868 M1801.868,1228.04h-37.166h-9.93v9.931
							c-0.041,0.361-0.063,0.796-0.063,1.243c0,41.526,33.791,75.311,75.317,75.311h9.936v-9.93v-38.484
							C1839.962,1245.115,1822.875,1228.04,1801.868,1228.04L1801.868,1228.04z"/>
					</g>
					<g>
						<path style="fill:#9F5D22;" d="M1391.017,1560.956c-18.251,0-33.103-14.853-33.103-33.109v-42.203h4.968
							c38.781,0,70.337,31.556,70.337,70.343v4.968H1391.017z"/>
						<path style="fill:#4E2D17;" d="M1362.882,1490.612c36.1,0,65.369,29.27,65.369,65.375h-37.234
							c-15.471,0-28.135-12.658-28.135-28.141V1490.612 M1362.882,1480.682h-9.936v9.931v37.234
							c0,20.995,17.081,38.071,38.071,38.071h37.234h9.936v-9.93C1438.188,1514.462,1404.402,1480.682,1362.882,1480.682
							L1362.882,1480.682z"/>
					</g>
					<g>
						<path style="fill:#9F5D22;" d="M1759.677,1560.956v-4.968c0-38.787,31.562-70.343,70.349-70.343h4.962v42.203
							c0,18.256-14.859,33.109-33.121,33.109H1759.677z"/>
						<path style="fill:#4E2D17;" d="M1830.027,1490.612v37.234c0,15.483-12.664,28.141-28.158,28.141h-37.223
							C1764.646,1519.882,1793.926,1490.612,1830.027,1490.612 M1839.962,1480.682h-9.936c-41.527,0-75.317,33.78-75.317,75.306
							v9.93h9.936h37.223c21.007,0,38.094-17.076,38.094-38.071v-37.234V1480.682L1839.962,1480.682z"/>
					</g>
				</g>
			</g>
			<g style="opacity:0.5;">
				<path style="fill:#B96D2C;" d="M1808.355,1238.801c0.825,2.624,1.398,5.369,1.398,8.274v38.478v186.018v37.229
					c0,15.489-12.664,28.152-28.147,28.152h-37.234h-336.394h-37.223c-2.235,0-4.401-0.333-6.487-0.843
					c3.576,11.46,14.165,19.878,26.748,19.878h37.234h336.394h37.223c15.494,0,28.158-12.658,28.158-28.141v-37.234v-186.017
					v-38.484C1830.027,1252.874,1820.732,1241.752,1808.355,1238.801z"/>
			</g>
			<g>
				<path style="fill:#9F5D22;" d="M1455.813,1566.571c-2.745,0-4.968-2.223-4.968-4.968v-329.249c0-2.744,2.223-4.968,4.968-4.968
					h32.157c2.745,0,4.968,2.223,4.968,4.968v329.249c0,2.745-2.223,4.968-4.968,4.968H1455.813z"/>
				<path style="fill:#4E2D17;" d="M1487.971,1232.354v329.249h-32.157v-329.249H1487.971 M1487.971,1222.425h-32.157
					c-5.484,0-9.936,4.446-9.936,9.93v329.249c0,5.484,4.452,9.931,9.936,9.931h32.157c5.484,0,9.936-4.447,9.936-9.931v-329.249
					C1497.907,1226.871,1493.455,1222.425,1487.971,1222.425L1487.971,1222.425z"/>
			</g>
			<g>
				<rect x="1455.813" y="1232.354" style="fill:#B56B2A;" width="22.027" height="329.249"/>
			</g>
			<g>
				<path style="fill:#9F5D22;" d="M1704.937,1566.571c-2.751,0-4.968-2.223-4.968-4.968v-329.249c0-2.744,2.217-4.968,4.968-4.968
					h32.146c2.745,0,4.968,2.223,4.968,4.968v329.249c0,2.745-2.223,4.968-4.968,4.968H1704.937z"/>
				<path style="fill:#4E2D17;" d="M1737.083,1232.354v329.249h-32.146v-329.249H1737.083 M1737.083,1222.425h-32.146
					c-5.484,0-9.936,4.446-9.936,9.93v329.249c0,5.484,4.452,9.931,9.936,9.931h32.146c5.484,0,9.936-4.447,9.936-9.931v-329.249
					C1747.02,1226.871,1742.567,1222.425,1737.083,1222.425L1737.083,1222.425z"/>
			</g>
			<g>
				<rect x="1704.937" y="1232.354" style="fill:#B56B2A;" width="22.027" height="329.249"/>
			</g>
			<g>
				<path style="fill:#FFD600;" d="M1449.143,1435.735c-8.818,0-15.992-7.18-15.992-16.005v-45.497
					c0-8.824,7.174-16.004,15.992-16.004h45.497c8.825,0,16.005,7.18,16.005,16.004v45.497c0,8.824-7.18,16.005-16.005,16.005
					H1449.143z M1458.139,1381.522c-0.939,0-1.702,0.762-1.702,1.708v27.499c0,0.946,0.762,1.713,1.702,1.713h27.516
					c0.934,0,1.691-0.767,1.691-1.713v-27.499c0-0.945-0.756-1.708-1.691-1.708h-5.071v5.083c0,4.796-3.902,8.698-8.692,8.698
					s-8.693-3.902-8.693-8.698v-5.083H1458.139z"/>
				<path style="fill:#4E2D17;" d="M1494.641,1363.197c6.097,0,11.036,4.939,11.036,11.036v45.497
					c0,6.097-4.939,11.036-11.036,11.036h-45.497c-6.096,0-11.025-4.939-11.025-11.036v-45.497c0-6.097,4.928-11.036,11.025-11.036
					H1494.641 M1471.892,1390.335c-2.051,0-3.725-1.679-3.725-3.731v-10.051h-10.028c-3.678,0-6.67,2.985-6.67,6.676v27.499
					c0,3.696,2.991,6.682,6.67,6.682h27.516c3.667,0,6.659-2.986,6.659-6.682v-27.499c0-3.69-2.991-6.676-6.659-6.676h-10.039
					v10.051C1475.617,1388.656,1473.943,1390.335,1471.892,1390.335 M1494.641,1353.266h-45.497c-11.552,0-20.96,9.403-20.96,20.966
					v45.497c0,11.563,9.409,20.967,20.96,20.967h45.497c11.564,0,20.973-9.404,20.973-20.967v-45.497
					C1515.613,1362.67,1506.204,1353.266,1494.641,1353.266L1494.641,1353.266z M1461.4,1407.479v-12.136
					c2.51,3.008,6.28,4.922,10.492,4.922s7.982-1.913,10.486-4.922v12.136H1461.4L1461.4,1407.479z"/>
			</g>
			<g>
				<path style="fill:#FFD600;" d="M1698.267,1435.735c-8.824,0-16.005-7.18-16.005-16.005v-45.497
					c0-8.824,7.18-16.004,16.005-16.004h45.497c8.818,0,15.993,7.18,15.993,16.004v45.497c0,8.824-7.174,16.005-15.993,16.005
					H1698.267z M1707.264,1381.522c-0.963,0-1.713,0.75-1.713,1.708v27.499c0,0.963,0.75,1.713,1.713,1.713h27.505
					c0.939,0,1.702-0.767,1.702-1.713v-27.499c0-0.945-0.762-1.708-1.702-1.708h-5.06v5.083c0,4.796-3.903,8.698-8.693,8.698
					c-4.79,0-8.692-3.902-8.692-8.698v-5.083H1707.264z"/>
				<path style="fill:#4E2D17;" d="M1743.765,1363.197c6.085,0,11.025,4.939,11.025,11.036v45.497
					c0,6.097-4.939,11.036-11.025,11.036h-45.497c-6.097,0-11.036-4.939-11.036-11.036v-45.497c0-6.097,4.939-11.036,11.036-11.036
					H1743.765 M1721.016,1390.335c-2.062,0-3.724-1.679-3.724-3.731v-10.051h-10.028c-3.702,0-6.682,2.985-6.682,6.676v27.499
					c0,3.696,2.98,6.682,6.682,6.682h27.505c3.69,0,6.67-2.986,6.67-6.682v-27.499c0-3.69-2.98-6.676-6.67-6.676h-10.028v10.051
					C1724.741,1388.656,1723.067,1390.335,1721.016,1390.335 M1743.765,1353.266h-45.497c-11.563,0-20.972,9.403-20.972,20.966
					v45.497c0,11.563,9.409,20.967,20.972,20.967h45.497c11.552,0,20.961-9.404,20.961-20.967v-45.497
					C1764.725,1362.67,1755.317,1353.266,1743.765,1353.266L1743.765,1353.266z M1710.513,1407.479v-12.148
					c2.51,3.014,6.286,4.933,10.503,4.933c4.212,0,7.982-1.913,10.492-4.922v12.136H1710.513L1710.513,1407.479z"/>
			</g>
		</g>
	</g>
	<g>
		<g>
			<g>
				<g>
					<polygon style="fill:#BCBEC0;" points="898.31,1322.123 991.774,1321.854 1009.137,1368.738 881.234,1369.116 					"/>
					<path style="fill:#4E2D17;" d="M989.803,1324.696l15.265,41.217l-119.783,0.355l15.013-41.314L989.803,1324.696
						 M993.745,1319.012l-3.959,0.011l-89.505,0.258l-3.959,0.011l-1.353,3.725l-15.013,41.314l-2.773,7.633l8.12-0.023
						l119.783-0.355l8.126-0.024l-2.825-7.621l-15.265-41.217L993.745,1319.012L993.745,1319.012z"/>
				</g>
			</g>
			<g>
				<g>
					<polygon style="fill:#28363A;" points="917.477,1339.692 972.705,1339.531 983.546,1368.812 906.813,1369.042 					"/>
					<path style="fill:#4E2D17;" d="M970.733,1342.373l8.745,23.614l-68.613,0.207l8.607-23.671L970.733,1342.373 M974.675,1336.689
						l-3.959,0.011l-51.268,0.149l-3.954,0.012l-1.352,3.724l-8.607,23.671l-2.779,7.633l8.125-0.023l68.613-0.207l8.12-0.023
						l-2.819-7.621l-8.744-23.614L974.675,1336.689L974.675,1336.689z"/>
				</g>
			</g>
			<g>
				<g>
					<path style="fill:#6D6E71;" d="M833.473,1386.106c-4.688,0-8.504-3.811-8.504-8.498l-0.063-22.204
						c0-4.693,3.799-8.521,8.486-8.537l36.874-0.103c4.722,0,8.526,3.805,8.526,8.486l0.069,22.193
						c0.017,2.263-0.865,4.412-2.458,6.028c-1.605,1.622-3.737,2.521-6.005,2.527L833.473,1386.106z"/>
					<path style="fill:#4E2D17;" d="M870.318,1349.599c3.106,0,5.638,2.521,5.638,5.65l0.069,22.204
						c0.023,3.14-2.521,5.696-5.638,5.707l-36.891,0.109c-0.012,0-0.012,0-0.023,0c-3.117,0-5.662-2.539-5.662-5.662l-0.069-22.216
						c0-3.141,2.521-5.679,5.661-5.69l36.868-0.103C870.284,1349.599,870.301,1349.599,870.318,1349.599 M870.318,1343.926h-0.023
						h-0.069l-36.845,0.103c-6.234,0.023-11.311,5.122-11.311,11.363l0.069,22.233c0,6.234,5.089,11.318,11.335,11.318l36.931-0.109
						c3.031-0.011,5.879-1.209,8.016-3.369c2.132-2.155,3.301-5.02,3.278-8.051l-0.069-22.182
						C881.629,1349.003,876.553,1343.926,870.318,1343.926L870.318,1343.926z"/>
				</g>
			</g>
			<g>
				<g>
					<path style="fill:#BCBEC0;" d="M778.412,1560.365c-6.744,0-12.245-5.673-12.263-12.641l-0.521-171.291
						c-0.012-6.985,5.478-12.698,12.251-12.726l300.672-0.917c6.802,0,12.309,5.673,12.326,12.646l0.516,171.286
						c0.017,3.461-1.301,6.704-3.701,9.117c-2.298,2.315-5.335,3.593-8.55,3.599L778.412,1560.365z"/>
					<path style="fill:#4E2D17;" d="M1078.598,1365.626c5.208,0,9.432,4.384,9.443,9.816l0.516,171.286
						c0.023,5.449-4.194,9.861-9.421,9.873l-300.672,0.928c-0.023,0-0.035,0-0.052,0c-5.192,0-9.415-4.384-9.426-9.81
						l-0.516-171.291c-0.011-5.443,4.206-9.861,9.421-9.884l300.672-0.917C1078.574,1365.626,1078.586,1365.626,1078.598,1365.626
						 M1078.598,1359.953h-0.024h-0.046l-300.655,0.917c-8.337,0.034-15.093,7.02-15.076,15.569l0.516,171.297
						c0.018,8.526,6.796,15.465,15.099,15.465l300.747-0.928c3.965-0.012,7.713-1.581,10.543-4.435
						c2.934-2.951,4.544-6.91,4.527-11.133l-0.516-171.28C1093.697,1366.898,1086.912,1359.953,1078.598,1359.953L1078.598,1359.953
						z"/>
				</g>
			</g>
			<path style="opacity:0.5;fill:#808285;" d="M1079.469,1365.667l0.516,171.085c0.023,5.644-4.355,10.223-9.787,10.24
				l-301.211,0.94c0.138,5.334,4.321,9.615,9.478,9.598l300.672-0.928c5.226-0.012,9.443-4.424,9.421-9.873l-0.516-171.286
				C1088.041,1370.331,1084.27,1366.131,1079.469,1365.667z"/>
			<g>
				<g>
					<path style="fill:#D1D3D4;" d="M945.412,1560.486c-57.324,0-104.1-46.649-104.266-103.99
						c-0.086-27.86,10.687-54.087,30.324-73.845c19.637-19.764,45.795-30.685,73.65-30.766c57.657,0,104.438,46.649,104.615,103.985
						c0.178,57.502-46.477,104.432-103.985,104.615H945.412z"/>
					<path style="fill:#4E2D17;" d="M945.452,1355.547c55.434,0,100.45,44.861,100.622,100.335
						c0.172,55.594-44.753,100.764-100.335,100.942c-0.109,0-0.218,0-0.333,0c-55.445,0-100.438-44.861-100.598-100.341
						c-0.172-55.583,44.753-100.782,100.324-100.936C945.234,1355.547,945.343,1355.547,945.452,1355.547 M945.452,1348.23h-0.343
						c-28.828,0.08-55.904,11.386-76.234,31.842c-20.331,20.451-31.476,47.595-31.39,76.435
						c0.172,59.353,48.591,107.635,107.921,107.635h0.356c59.536-0.19,107.819-48.764,107.635-108.283
						C1053.213,1396.512,1004.787,1348.23,945.452,1348.23L945.452,1348.23z"/>
				</g>
			</g>
			<g>
				<g>
					<path style="fill:#808285;" d="M945.463,1537.663c-44.798,0-81.356-36.438-81.488-81.231
						c-0.069-21.757,8.349-42.242,23.683-57.68c15.346-15.437,35.779-23.975,57.543-24.043c45.021,0,81.574,36.438,81.712,81.23
						c0.126,44.919-36.312,81.575-81.219,81.724H945.463z"/>
					<g>
						<path style="fill:#4E2D17;" d="M945.435,1377.545c43.326-0.006,78.509,35.045,78.646,78.406
							c0.115,43.428-34.977,78.732-78.4,78.876c-0.069,0-0.143,0-0.218,0c-43.343,0-78.526-35.046-78.652-78.4
							c-0.137-43.428,34.965-78.744,78.4-78.881C945.28,1377.545,945.36,1377.545,945.435,1377.545 M945.44,1371.872h-0.006h-0.006
							H945.2c-22.531,0.069-43.676,8.905-59.548,24.88c-15.884,15.976-24.582,37.172-24.513,59.691
							c0.137,46.351,37.968,84.056,84.325,84.056c46.707-0.155,84.417-38.089,84.29-84.565
							C1029.605,1409.582,991.786,1371.872,945.44,1371.872L945.44,1371.872z"/>
					</g>
				</g>
			</g>
			<path style="fill:#E6E7E8;stroke:#4E2D17;stroke-width:5.4588;stroke-miterlimit:10;" d="M1067.47,1391.796
				c0.011,2.945-1.777,5.323-3.988,5.329l-27.459,0.063c-2.223,0.018-4.023-2.361-4.034-5.283l-0.035-10.624
				c0-2.94,1.788-5.312,4.011-5.329l27.448-0.086c2.212-0.005,4.022,2.39,4.022,5.306L1067.47,1391.796z"/>
			
				<line style="fill:none;stroke:#4E2D17;stroke-width:5.4588;stroke-miterlimit:10;" x1="1031.966" y1="1386.587" x2="1067.458" y2="1386.473"/>
			<g>
				<g>
					<g>
						<path style="fill:#28363A;" d="M945.457,1524.655c-37.641,0-68.361-30.622-68.481-68.263
							c-0.057-18.291,7.019-35.504,19.913-48.472c12.887-12.967,30.06-20.135,48.345-20.193c37.842,0,68.55,30.616,68.659,68.252
							c0.057,18.285-7.008,35.498-19.901,48.471c-12.887,12.968-30.06,20.141-48.346,20.205H945.457z"/>
						<path style="fill:#4E2D17;" d="M945.44,1391.349c35.722,0,64.728,28.891,64.831,64.642
							c0.115,35.808-28.823,64.928-64.636,65.043c-0.057,0-0.12,0-0.184,0c-35.733,0-64.739-28.903-64.854-64.654
							c-0.103-35.813,28.834-64.928,64.648-65.031C945.308,1391.349,945.372,1391.349,945.44,1391.349 M945.44,1384.112h-0.012
							h-0.206c-19.254,0.052-37.332,7.604-50.907,21.259c-13.569,13.655-21.018,31.773-20.961,51.032
							c0.132,39.63,32.473,71.868,72.097,71.868c19.46-0.057,37.538-7.616,51.113-21.27c13.569-13.655,21.007-31.779,20.949-51.033
							C1017.4,1416.344,985.058,1384.112,945.44,1384.112L945.44,1384.112z"/>
					</g>
				</g>
				<path style="opacity:0.6;fill:#F1F2F2;" d="M945.246,1391.349c-3.118,0.006-6.166,0.309-9.18,0.75l-47.961,94.324
					c3.174,6.005,7.243,11.455,12.067,16.148l56.064-110.254C952.661,1391.716,949.004,1391.332,945.246,1391.349z"/>
				<path style="opacity:0.6;fill:#F1F2F2;" d="M943.263,1520.919l53.21-104.638c-3.897-4.973-8.492-9.363-13.661-13.019
					l-58.115,114.305C930.554,1519.555,936.788,1520.696,943.263,1520.919z"/>
			</g>
		</g>
		<g>
			<path style="fill:#D1D3D4;" d="M786.142,1565.374c-16.755,0-35.991-2.51-35.991-22.072v-165.974
				c0-19.506,19.122-19.506,35.991-19.506h0.687c16.875,0,36.003,0,36.003,19.506v165.974c0,19.563-19.242,22.072-36.003,22.072
				H786.142z"/>
			<path style="fill:#4E2D17;" d="M786.83,1360.349c18.485,0,33.476,0.613,33.476,16.979v165.974
				c0,16.365-14.99,19.546-33.476,19.546h-0.687c-18.485,0-33.464-3.18-33.464-19.546v-165.974
				c0-16.365,14.979-16.979,33.464-16.979H786.83 M786.83,1355.295h-0.687c-17.156,0-38.518,0-38.518,22.032v165.974
				c0,24.6,27.986,24.6,38.518,24.6h0.687c10.538,0,38.529,0,38.529-24.6v-165.974
				C825.359,1355.295,803.997,1355.295,786.83,1355.295L786.83,1355.295z"/>
		</g>
		<path style="opacity:0.5;fill:#808285;" d="M809.693,1362.486c0.023,0.446,0.149,0.785,0.149,1.255v165.974
			c0,16.365-14.978,19.539-33.464,19.539h-0.699c-8.79,0-16.709-0.767-22.68-3.283c1.662,13.918,15.781,16.875,33.143,16.875h0.687
			c18.485,0,33.476-3.18,33.476-19.546v-165.974C820.305,1368.812,816.191,1364.612,809.693,1362.486z"/>
	</g>
</g>
</svg>
